<svg width="34" height="34" viewBox="0 0 34 34" fill="none" xmlns="http://www.w3.org/2000/svg">
<g clip-path="url(#clip0_2888_130)">
<path d="M14.2777 8.96558H31.8119C33.0224 8.96558 34.0037 7.98425 34.0037 6.77381C34.0037 5.56336 33.0224 4.58203 31.8119 4.58203H14.2777C13.0673 4.58203 12.0859 5.56336 12.0859 6.77381C12.0859 7.98425 13.0671 8.96558 14.2777 8.96558Z" fill="#5C9963"/>
<path d="M31.8119 14.8086H14.2777C13.0673 14.8086 12.0859 15.7899 12.0859 17.0004C12.0859 18.2108 13.0673 19.1921 14.2777 19.1921H31.8119C33.0224 19.1921 34.0037 18.2108 34.0037 17.0004C34.0037 15.7899 33.0224 14.8086 31.8119 14.8086Z" fill="#5C9963"/>
<path d="M31.8119 25.0391H14.2777C13.0673 25.0391 12.0859 26.0204 12.0859 27.2308C12.0859 28.4413 13.0673 29.4226 14.2777 29.4226H31.8119C33.0224 29.4226 34.0037 28.4413 34.0037 27.2308C34.0037 26.0204 33.0224 25.0391 31.8119 25.0391Z" fill="#5C9963"/>
<path d="M7.12855 15.2551L5.66898 15.043L5.01627 13.7203C4.83157 13.3462 4.45079 13.1094 4.03347 13.1094C3.61645 13.1094 3.23538 13.3462 3.05068 13.7203L2.39783 15.043L0.938395 15.2551C0.52561 15.315 0.182524 15.6042 0.0536479 16.0009C-0.0752285 16.3976 0.0323146 16.8331 0.330834 17.1243L1.38698 18.1537L1.13755 19.6074C1.06698 20.0186 1.23604 20.4341 1.57343 20.6793C1.7644 20.8181 1.9903 20.8887 2.21766 20.8887C2.39198 20.8887 2.56718 20.8471 2.72747 20.7629L4.03318 20.0764L5.3389 20.7629C5.49933 20.8472 5.67438 20.8887 5.8487 20.8887C5.84973 20.8887 5.8509 20.8887 5.85177 20.8887C6.45699 20.8886 6.94751 20.3981 6.94751 19.7928C6.94751 19.7009 6.93626 19.6115 6.91493 19.5262L6.67939 18.1537L7.73553 17.1243C8.03434 16.8331 8.14174 16.3976 8.01286 16.0009C7.88443 15.6042 7.54134 15.315 7.12855 15.2551Z" fill="#5C9963"/>
<path d="M7.12855 5.02856L5.66898 4.8164L5.01627 3.49373C4.83157 3.11967 4.45079 2.88281 4.03347 2.88281C3.61645 2.88281 3.23538 3.11967 3.05068 3.49373L2.39783 4.8164L0.938395 5.02856C0.52561 5.08847 0.182524 5.37764 0.0536479 5.77435C-0.0752285 6.17106 0.0323146 6.60649 0.330834 6.89771L1.38698 7.92711L1.13755 9.38084C1.06698 9.79202 1.23604 10.2076 1.57343 10.4528C1.7644 10.5916 1.9903 10.6622 2.21766 10.6622C2.39198 10.6622 2.56718 10.6205 2.72747 10.5363L4.03318 9.84988L5.3389 10.5363C5.49933 10.6207 5.67438 10.6622 5.8487 10.6622C5.84973 10.6622 5.8509 10.6622 5.85177 10.6622C6.45699 10.6622 6.94751 10.1715 6.94751 9.56627C6.94751 9.47436 6.93626 9.38494 6.91493 9.2996L6.67939 7.92711L7.73553 6.89771C8.03434 6.60649 8.14174 6.17106 8.01286 5.77435C7.88443 5.37764 7.54134 5.08847 7.12855 5.02856Z" fill="#5C9963"/>
<path d="M7.12855 25.4856L5.66898 25.2734L5.01627 23.9508C4.83157 23.5767 4.45079 23.3398 4.03347 23.3398C3.61645 23.3398 3.23538 23.5767 3.05068 23.9508L2.39783 25.2734L0.938395 25.4856C0.52561 25.5455 0.182524 25.8347 0.0536479 26.2314C-0.0752285 26.6281 0.0323146 27.0635 0.330834 27.3547L1.38698 28.3841L1.13755 29.8379C1.06698 30.2491 1.23604 30.6646 1.57343 30.9098C1.7644 31.0486 1.9903 31.1192 2.21766 31.1192C2.39198 31.1192 2.56718 31.0775 2.72747 30.9934L4.03318 30.3069L5.3389 30.9934C5.49933 31.0777 5.67438 31.1192 5.8487 31.1192C5.84973 31.1192 5.8509 31.1192 5.85177 31.1192C6.45699 31.119 6.94751 30.6285 6.94751 30.0233C6.94751 29.9314 6.93626 29.842 6.91493 29.7566L6.67939 28.3841L7.73553 27.3547C8.03434 27.0635 8.14174 26.6281 8.01286 26.2314C7.88443 25.8347 7.54134 25.5455 7.12855 25.4856Z" fill="#5C9963"/>
</g>
<defs>
<clipPath id="clip0_2888_130">
<rect width="34" height="34" fill="white"/>
</clipPath>
</defs>
</svg>
