<svg width="25" height="26" viewBox="0 0 25 26" fill="none" xmlns="http://www.w3.org/2000/svg">
<path d="M9.45379 4.50547C8.70593 4.2918 7.53072 4.07812 6.67602 4.07812C5.82133 4.07812 4.64613 4.2918 3.89826 4.50547C3.15041 4.61231 2.61622 5.1465 2.50937 5.89435C2.29571 6.64222 2.08203 7.81743 2.08203 8.67211C2.08203 9.52681 2.29571 10.702 2.40254 11.4499C2.50937 12.1977 3.15041 12.7319 3.79143 12.8387C4.53928 12.9456 5.71449 13.1593 6.56919 13.1593C7.42389 13.1593 8.59909 12.9456 9.34695 12.8387C10.0948 12.7319 10.629 12.0909 10.7359 11.4499C10.8427 10.702 11.0563 9.52681 11.0563 8.67211C11.0563 7.81743 10.8427 6.64222 10.7359 5.89435C10.7359 5.1465 10.2016 4.61231 9.45379 4.50547Z" fill="#008E28"/>
<path d="M9.45633 16.258C8.70847 16.1511 7.53326 15.9375 6.67856 15.9375C5.82387 15.9375 4.64867 16.1511 3.9008 16.258C3.15295 16.3649 2.61876 17.0058 2.51192 17.6469C2.40508 18.3948 2.19141 19.57 2.19141 20.4247C2.19141 21.2794 2.40508 22.4546 2.51192 23.2024C2.61876 23.9503 3.25978 24.4845 3.9008 24.5914C4.64867 24.6981 5.82387 24.9119 6.67856 24.9119C7.53326 24.9119 8.70847 24.6981 9.45633 24.5914C10.2042 24.4845 10.7384 23.8434 10.8452 23.2024C10.952 22.4546 11.1658 21.2794 11.1658 20.4247C11.1658 19.57 10.952 18.3948 10.8452 17.6469C10.7384 16.8991 10.2042 16.3649 9.45633 16.258Z" fill="#008E28"/>
<path d="M15.6508 12.8413C16.3987 12.9482 17.5739 13.1618 18.4286 13.1618C19.2833 13.1618 20.4585 12.9482 21.2063 12.8413C21.9542 12.7344 22.4884 12.0934 22.5952 11.4524C22.702 10.7046 22.9157 9.52935 22.9157 8.67466C22.9157 7.81996 22.702 6.64475 22.5952 5.89689C22.4884 5.14903 21.8473 4.61484 21.2063 4.50801C20.4585 4.40117 19.2833 4.1875 18.4286 4.1875C17.5739 4.1875 16.3987 4.40117 15.6508 4.50801C14.903 4.61484 14.3687 5.25586 14.2619 5.89689C14.1551 6.64475 13.9414 7.81996 13.9414 8.67466C13.9414 9.52935 14.1551 10.7046 14.2619 11.4524C14.3687 12.2003 14.903 12.7344 15.6508 12.8413Z" fill="#008E28"/>
<path d="M21.2063 16.258C20.4585 16.1511 19.2833 15.9375 18.4286 15.9375C17.5739 15.9375 16.3987 16.1511 15.6508 16.258C14.903 16.3649 14.3687 17.0058 14.2619 17.6469C14.1551 18.3948 13.9414 19.57 13.9414 20.4247C13.9414 21.2794 14.1551 22.4546 14.2619 23.2024C14.3687 23.9503 15.0097 24.4845 15.6508 24.5914C16.3987 24.6981 17.5739 24.9119 18.4286 24.9119C19.2833 24.9119 20.4585 24.6981 21.2063 24.5914C21.9542 24.4845 22.4884 23.8434 22.5952 23.2024C22.702 22.4546 22.9157 21.2794 22.9157 20.4247C22.9157 19.57 22.702 18.3948 22.5952 17.6469C22.4884 16.8991 21.9542 16.3649 21.2063 16.258Z" fill="#008E28"/>
</svg>
