<svg width="30" height="30" viewBox="0 0 30 30" fill="none" xmlns="http://www.w3.org/2000/svg">
<path d="M0.5 14.5676C0.5 6.7963 6.7963 0.5 14.5676 0.5C22.3388 0.5 28.6351 6.7963 28.6351 14.5676C28.6351 22.3388 22.3388 28.6351 14.5676 28.6351C6.7963 28.6351 0.5 22.3388 0.5 14.5676ZM22.3213 17.4172C22.9851 17.4172 23.5262 16.8761 23.5262 16.2123V12.9228C23.5262 12.259 22.9851 11.718 22.3213 11.718H17.4172V6.81386C17.4172 6.15003 16.8761 5.60898 16.2123 5.60898H12.9228C12.259 5.60898 11.718 6.15003 11.718 6.81386V11.718H6.81386C6.15003 11.718 5.60898 12.259 5.60898 12.9228V16.2123C5.60898 16.8761 6.15003 17.4172 6.81386 17.4172H11.718V22.3213C11.718 22.9851 12.259 23.5262 12.9228 23.5262H16.2123C16.8761 23.5262 17.4172 22.9851 17.4172 22.3213V17.4172H22.3213Z" fill="#00AA45" stroke="#219653"/>
</svg>
