<svg width="36" height="35" viewBox="0 0 36 35" fill="none" xmlns="http://www.w3.org/2000/svg">
<g clip-path="url(#clip0_1037_663)">
<path d="M28.9532 13.1571C28.6603 13.2578 28.5067 13.5702 28.6103 13.8549C29.0348 15.0229 29.25 16.2492 29.25 17.5C29.25 23.531 24.2033 28.4375 18 28.4375C11.7968 28.4375 6.75 23.531 6.75 17.5C6.75 11.469 11.7968 6.5625 18 6.5625C20.6685 6.5625 23.2558 7.48686 25.2852 9.16535C25.5218 9.36093 25.8768 9.33317 26.0781 9.10314C26.2794 8.87312 26.2508 8.52797 26.0141 8.33226C23.7815 6.48566 20.9353 5.46875 18 5.46875C11.1764 5.46875 5.625 10.8659 5.625 17.5C5.625 24.1341 11.1764 29.5312 18 29.5312C24.8236 29.5312 30.375 24.1341 30.375 17.5C30.375 16.1247 30.1381 14.7757 29.671 13.4906C29.5675 13.2058 29.2462 13.0564 28.9532 13.1571Z" fill="#12782E"/>
<path d="M27.5841 11.7709C27.6904 11.9386 27.8747 12.031 28.0634 12.031C28.1641 12.031 28.266 12.0047 28.3581 11.9496C28.6225 11.7912 28.7048 11.4542 28.5417 11.1971C28.2921 10.8034 28.0159 10.4194 27.721 10.0559C27.5285 9.81866 27.1748 9.77812 26.9309 9.96529C26.687 10.1523 26.6453 10.4962 26.8377 10.7333C27.106 11.0638 27.3571 11.413 27.5841 11.7709Z" fill="black"/>
<path d="M33.75 14.2188H32.8083C32.4287 12.5885 31.7744 11.0519 30.8583 9.63929L31.5234 8.99261C32.4007 8.13969 32.4007 6.75199 31.5234 5.899L29.9325 4.35217C29.0552 3.49945 27.6277 3.49938 26.7505 4.35217L26.0853 4.99892C24.6324 4.10826 23.0519 3.47211 21.375 3.10304V2.1875C21.375 0.981299 20.3657 0 19.125 0H16.875C15.6343 0 14.625 0.981299 14.625 2.1875V3.10304C12.9481 3.47218 11.3676 4.10826 9.9147 4.99892L9.24954 4.35217C8.37232 3.49945 6.94484 3.49938 6.06755 4.35217L4.47659 5.89907C3.5993 6.75199 3.5993 8.13969 4.47659 8.99268L5.14174 9.63929C4.22564 11.052 3.57131 12.5886 3.1917 14.2188H2.25C1.00934 14.2188 0 15.2 0 16.4062V18.5938C0 19.8 1.00934 20.7812 2.25 20.7812H3.1917C3.57131 22.4115 4.22564 23.948 5.14174 25.3606L4.47659 26.0074C3.5993 26.8603 3.5993 28.248 4.47659 29.101L6.06755 30.6478C6.94477 31.5006 8.37218 31.5008 9.24954 30.6478L9.9147 30.001C11.3677 30.8917 12.9481 31.5279 14.6249 31.8969V32.8125C14.6249 34.0187 15.6343 35 16.8749 35H19.1249C20.3656 35 21.3749 34.0187 21.3749 32.8125V31.8969C23.0517 31.5279 24.6322 30.8917 26.0852 30.0011L26.7503 30.6478C27.6275 31.5006 29.055 31.5008 29.9323 30.6478L31.5233 29.1009C32.4006 28.248 32.4006 26.8603 31.5233 26.0073L30.8581 25.3607C31.7742 23.9481 32.4285 22.4115 32.8082 20.7812H33.75C34.9907 20.7812 36 19.8 36 18.5938V16.4062C36 15.2 34.9907 14.2188 33.75 14.2188ZM34.875 18.5938C34.875 19.1968 34.3703 19.6875 33.75 19.6875H32.352C32.0828 19.6875 31.8514 19.8729 31.7999 20.1298C31.4394 21.9285 30.7232 23.6102 29.6714 25.1282C29.521 25.3453 29.5498 25.6355 29.7401 25.8205L30.7279 26.7808C31.1665 27.2072 31.1665 27.9012 30.7279 28.3276L29.1369 29.8744C28.6983 30.3008 27.9846 30.3008 27.5459 29.8744L26.5582 28.914C26.3679 28.7291 26.0693 28.701 25.8462 28.8472C24.2846 29.8698 22.5548 30.5661 20.7049 30.9165C20.4407 30.9665 20.25 31.1916 20.25 31.4533V32.8125C20.25 33.4156 19.7453 33.9062 19.125 33.9062H16.875C16.2547 33.9062 15.75 33.4156 15.75 32.8125V31.4532C15.75 31.1916 15.5593 30.9665 15.2951 30.9164C13.4451 30.566 11.7153 29.8697 10.1539 28.8471C10.0582 28.7844 9.94873 28.7538 9.83981 28.7538C9.69469 28.7538 9.55062 28.8083 9.44184 28.914L8.45409 29.8744C8.01541 30.3008 7.30174 30.3008 6.86306 29.8744L5.2721 28.3276C4.83349 27.9012 4.83349 27.2072 5.2721 26.7808L6.25992 25.8204C6.45026 25.6354 6.47909 25.3452 6.32869 25.1282C5.27688 23.6101 4.56068 21.9284 4.20019 20.1298C4.14872 19.8729 3.91725 19.6875 3.64809 19.6875H2.25C1.6297 19.6875 1.125 19.1968 1.125 18.5938V16.4062C1.125 15.8032 1.6297 15.3125 2.25 15.3125H3.64802C3.91718 15.3125 4.14865 15.1271 4.20012 14.8702C4.56061 13.0716 5.27674 11.39 6.32862 9.87178C6.47902 9.65474 6.45012 9.36455 6.25978 9.1795L5.27203 8.21919C4.83342 7.79276 4.83342 7.09885 5.27203 6.67242L6.86306 5.12559C7.30174 4.69923 8.01541 4.69909 8.45409 5.12559L9.44184 6.08597C9.63218 6.27095 9.93066 6.29904 10.1538 6.15282C11.7151 5.13023 13.4449 4.43399 15.2951 4.08352C15.5592 4.03348 15.75 3.80844 15.75 3.54669V2.1875C15.75 1.58443 16.2547 1.09375 16.875 1.09375H19.125C19.7453 1.09375 20.25 1.58443 20.25 2.1875V3.54669C20.25 3.80837 20.4407 4.03341 20.7049 4.08352C22.5551 4.43406 24.2848 5.1303 25.8462 6.15282C26.0693 6.29904 26.3678 6.27102 26.5582 6.08597L27.5459 5.12559C27.9846 4.69923 28.6983 4.69909 29.1369 5.12559L30.7279 6.67242C31.1665 7.09885 31.1665 7.79276 30.7279 8.21919L29.7401 9.1795C29.5498 9.36455 29.521 9.65474 29.6714 9.87178C30.7233 11.3898 31.4394 13.0716 31.7998 14.8702C31.8513 15.1271 32.0827 15.3125 32.352 15.3125H33.75C34.3703 15.3125 34.875 15.8032 34.875 16.4062V18.5938Z" fill="#010F87"/>
<path d="M14.826 20.1586L12.73 20.6878C12.7266 20.6887 12.723 20.6896 12.7196 20.6905C11.3855 21.0539 10.6875 22.3255 10.6875 23.3937V23.9844C10.6875 24.6309 11.2695 25.1569 11.9849 25.1569L17.9909 25.1563C17.9952 25.1563 17.9994 25.1569 18.0037 25.1569C18.0081 25.1569 18.0123 25.1563 18.0167 25.1563L24.0227 25.1556C24.738 25.1556 25.32 24.6297 25.32 23.9832V23.3925C25.32 22.3242 24.622 21.0526 23.2879 20.6893C23.2845 20.6884 23.281 20.6875 23.2776 20.6866L21.1817 20.1574C21.004 20.1065 20.8636 20.0171 20.8333 19.9704L20.8319 18.862C20.8337 18.8599 20.8355 18.8581 20.8373 18.8561C21.5559 18.021 21.9517 16.939 21.9517 15.8093V14.9838C22.6687 12.7131 22.1634 10.7442 21.9041 10.1712C21.9033 10.1693 21.9021 10.1676 21.9012 10.1657C21.8962 10.1549 21.8907 10.1445 21.885 10.1343C21.8818 10.1283 21.8787 10.1223 21.8752 10.1165C21.8698 10.1074 21.8638 10.0987 21.8579 10.09C21.8534 10.0833 21.849 10.0765 21.8442 10.0701C21.8391 10.0632 21.8334 10.0567 21.828 10.0501C21.8218 10.0425 21.8156 10.0348 21.8091 10.0276C21.8045 10.0225 21.7994 10.0178 21.7946 10.0129C21.7867 10.0049 21.7789 9.99702 21.7706 9.98957C21.766 9.98546 21.7611 9.9817 21.7564 9.97781C21.7475 9.97029 21.7386 9.96277 21.7292 9.95586C21.7238 9.95183 21.7181 9.94828 21.7125 9.94452C21.7035 9.93836 21.6946 9.93214 21.6852 9.92654C21.678 9.92216 21.6704 9.91833 21.6629 9.9143C21.6549 9.91 21.647 9.90542 21.6388 9.90145C21.6295 9.89701 21.62 9.89311 21.6104 9.88915C21.6036 9.88627 21.5968 9.8832 21.5899 9.8806C21.5795 9.8767 21.5687 9.87349 21.558 9.87021C21.5516 9.86823 21.5452 9.86597 21.5386 9.86419C21.5282 9.86139 21.5177 9.85934 21.507 9.85709C21.4997 9.85558 21.4924 9.8538 21.485 9.85257C21.4757 9.85107 21.4663 9.85004 21.4569 9.84895C21.4477 9.84786 21.4386 9.84663 21.4293 9.84601C21.4216 9.84546 21.414 9.84546 21.4062 9.84526C21.3949 9.84492 21.3836 9.84464 21.3723 9.84499C21.366 9.84512 21.3597 9.84574 21.3534 9.84615C21.3408 9.8469 21.328 9.84793 21.3154 9.84957C21.3135 9.84977 21.3116 9.84977 21.3097 9.85004C20.7676 9.92544 20.1064 9.77143 19.4063 9.60853C18.168 9.32019 16.7714 8.99589 15.5479 9.85353C14.3648 9.95238 13.526 10.919 13.526 12.2255C13.526 13.1755 13.9795 14.8724 14.0834 15.2489V15.7056C14.0834 16.8848 14.5031 17.9747 15.1759 18.7878L15.1744 19.9717C15.144 20.0183 15.0036 20.1078 14.826 20.1586ZM15.2083 15.5187C15.2083 14.9751 15.4449 14.1802 15.6218 13.6773C18.1704 13.7342 20.0934 14.3293 20.8267 14.5931V14.8966C20.8267 14.8982 20.8267 14.9 20.8267 14.9016V15.8091C20.8267 16.7732 20.4538 17.6564 19.8721 18.2676C19.8706 18.2691 19.8692 18.2707 19.8677 18.2722C19.3676 18.7956 18.7142 19.1184 18.0101 19.1184C16.5175 19.1184 15.2084 17.5235 15.2084 15.7054L15.2083 15.5187ZM16.2996 19.7447C16.8199 20.0428 17.4013 20.2122 18.01 20.2122C18.6075 20.2122 19.1841 20.0618 19.708 19.7772L19.7083 19.9776C19.7083 20.2488 19.8089 20.4762 19.965 20.6621L18.0062 21.7861L16.0555 20.6482C16.2042 20.4652 16.2993 20.243 16.2993 19.9795L16.2996 19.7447ZM11.9848 24.0631C11.8699 24.0631 11.8125 23.9994 11.8125 23.9844V23.3937C11.8125 22.739 12.2267 21.9633 13.0185 21.745L14.9242 21.2639L17.4413 22.7322V24.0625L11.9848 24.0631ZM24.195 23.3924V23.9831C24.195 23.9982 24.1376 24.0618 24.0226 24.0618L18.5662 24.0624V22.7347L21.1171 21.271L22.9892 21.7437C23.781 21.9621 24.195 22.7377 24.195 23.3924ZM15.7494 10.9381C15.7512 10.9381 15.7529 10.9379 15.7546 10.9378C15.7714 10.9377 15.7882 10.937 15.8049 10.9354C15.8104 10.9349 15.8157 10.9339 15.8211 10.9332C15.834 10.9316 15.8468 10.93 15.8595 10.9275C15.8664 10.9262 15.8731 10.9244 15.8799 10.9227C15.891 10.9202 15.9019 10.9177 15.9129 10.9145C15.9204 10.9123 15.9275 10.9096 15.9349 10.9071C15.9449 10.9037 15.9548 10.9005 15.9647 10.8965C15.9725 10.8933 15.9799 10.8897 15.9875 10.8862C15.9965 10.8821 16.0055 10.8782 16.0143 10.8737C16.0229 10.8692 16.031 10.8642 16.0393 10.8593C16.0466 10.855 16.0542 10.8509 16.0615 10.8462C16.072 10.8393 16.0819 10.8319 16.0919 10.8244C16.0963 10.8211 16.101 10.8182 16.1054 10.8147C16.933 10.1572 18.0071 10.4074 19.1443 10.6719C19.7564 10.8145 20.385 10.9604 20.9953 10.9626C21.142 11.4894 21.2862 12.423 21.1313 13.535C20.2158 13.2108 18.0676 12.5787 15.2303 12.5787C15.2291 12.5787 15.2279 12.5788 15.2267 12.5788C15.2128 12.5789 15.199 12.5798 15.1853 12.5809C15.18 12.5813 15.1747 12.5814 15.1695 12.582C15.1578 12.5832 15.1463 12.5852 15.1348 12.5871C15.1276 12.5883 15.1204 12.5892 15.1133 12.5906C15.1048 12.5924 15.0965 12.5948 15.0881 12.5969C15.0785 12.5994 15.0688 12.6016 15.0593 12.6044C15.0538 12.6062 15.0485 12.6084 15.0431 12.6103C15.0313 12.6143 15.0195 12.6183 15.0081 12.623C15.0038 12.6248 14.9997 12.6271 14.9955 12.629C14.9835 12.6344 14.9714 12.6398 14.9599 12.6459C14.9533 12.6494 14.947 12.6535 14.9406 12.6574C14.9318 12.6625 14.9229 12.6674 14.9145 12.673C14.9038 12.6801 14.8936 12.6878 14.8834 12.6956C14.8796 12.6985 14.8756 12.7011 14.8719 12.7041C14.8601 12.7136 14.8487 12.7239 14.8377 12.7344C14.8359 12.736 14.834 12.7376 14.8322 12.7393C14.8222 12.749 14.8129 12.7594 14.8036 12.7699C14.801 12.7729 14.7981 12.7756 14.7956 12.7786C14.7884 12.7871 14.7819 12.7961 14.7752 12.8052C14.7709 12.8108 14.7664 12.8164 14.7624 12.8222C14.7578 12.8291 14.7536 12.8363 14.7492 12.8433C14.7438 12.852 14.7383 12.8607 14.7334 12.8698C14.7304 12.8752 14.7279 12.8809 14.7251 12.8864C14.7215 12.8936 14.7177 12.9007 14.7144 12.9082C14.6755 12.6502 14.651 12.4132 14.651 12.2254C14.6509 11.6316 14.9386 10.9381 15.7494 10.9381Z" fill="black"/>
</g>
<defs>
<clipPath id="clip0_1037_663">
<rect width="36" height="35" fill="white"/>
</clipPath>
</defs>
</svg>
