<svg width="35" height="31" viewBox="0 0 35 31" fill="none" xmlns="http://www.w3.org/2000/svg">
<path d="M7.58987 0.953644C4.96665 2.63895 3.07336 4.66996 1.6591 7.34917C1.2257 8.14861 0.883539 8.86163 0.883539 8.92645C0.883539 8.99127 4.12265 9.03448 8.0689 9.03448H15.2543V10.763V12.4915H7.72674H0.199219V13.6799V14.8682H6.92837H13.6575V16.5968V18.3253H8.63916H3.62082V20.0538V21.7823H9.43754H15.2543V23.5108V25.2394H9.66565H4.07703L4.442 25.7795C5.01227 26.6222 7.47582 28.3723 9.23224 29.215C11.8555 30.4681 14.0453 30.9219 17.0791 30.9219C21.3675 30.9003 24.8575 29.7335 28.0967 27.2272C30.8111 25.1313 31.0392 25.2394 23.9223 25.2394H17.7634V24.5912C17.7634 24.159 18.06 23.5324 18.6074 22.8626L19.4514 21.7823H26.0209H32.5676L32.9325 21.1557C33.7081 19.7081 34.2555 17.1585 34.2784 14.8682C34.3012 12.7508 33.8678 10.0068 33.5028 9.79071C33.4115 9.72589 33.1378 9.96356 32.9097 10.2877C32.7044 10.6118 31.0164 12.794 29.1916 15.1275L25.884 19.4056H23.6486C20.9797 19.4056 20.9341 19.8161 24.1276 15.7325C25.3822 14.1336 26.4315 12.7508 26.4315 12.6428C26.4315 12.5563 24.4926 12.4915 22.0975 12.4915H17.7634V10.763V9.03448H25.5191C29.7847 9.03448 33.2747 8.99127 33.2747 8.92645C33.2747 8.86163 32.9325 8.14861 32.4991 7.34917C31.0621 4.64836 29.2372 2.70377 26.5683 0.996857L25.6331 0.391874H17.0563H8.47949L7.58987 0.953644Z" fill="white"/>
</svg>
