<svg width="40" height="22" viewBox="0 0 40 22" fill="none" xmlns="http://www.w3.org/2000/svg">
<path d="M36.2766 5.09297C27.6952 7.37772 25.3552 6.44145 22.9108 5.35049C22.6289 4.0509 20.2478 3.00773 17.2092 2.82904C17.2459 2.68734 17.2668 2.53543 17.2668 2.37648C17.2668 2.36696 17.2659 2.35783 17.2658 2.34831C17.5155 2.09922 17.6697 1.75613 17.6697 1.37704C17.6697 0.616776 17.0485 0 16.282 0C15.5165 0 14.8957 0.616776 14.8957 1.37704C14.8957 1.75563 15.0496 2.09843 15.2984 2.34752C15.2983 2.35724 15.2973 2.36676 15.2973 2.37657C15.2973 2.53563 15.3184 2.68744 15.355 2.82914C12.1176 3.01953 9.62533 4.19151 9.62533 5.6094C9.62533 5.66473 9.63012 5.71957 9.63761 5.7741C9.63522 5.77281 9.63262 5.77163 9.63022 5.77034C9.63022 5.77034 9.34295 6.06851 9.00953 6.41904C8.79988 6.61112 8.605 6.81191 8.42501 7.02015C7.71173 5.88209 7.31408 4.50991 6.1714 3.5544C1.89781 0.141501 -2.94293 7.08778 2.2577 9.49371C2.99675 9.84285 4.02846 10.387 4.91414 11.0325C4.38665 11.2951 4.01847 11.8235 3.98651 12.4411C3.96264 12.6211 3.98651 12.8095 4.04974 12.9935C4.2532 13.6906 4.89996 14.2008 5.66748 14.2008C5.72961 14.2008 5.79073 14.197 5.85107 14.1905C6.431 14.1442 7.06028 13.777 7.60605 12.8893C8.55026 14.7201 10.5726 16.1717 13.1156 16.8405C12.6267 17.0892 12.2155 17.3934 11.9108 17.7387C10.8364 18.1909 10.1749 18.8089 10.1749 19.4907C10.1749 20.8766 12.9093 22 16.282 22C19.656 22 22.3902 20.8766 22.3902 19.4907C22.3902 18.8089 21.7276 18.1909 20.6537 17.7387C20.4179 17.4713 20.1169 17.229 19.7667 17.0173C28.792 15.7715 30.2729 9.63729 39.857 6.46347C40.5853 6.05423 38.4003 4.6288 36.2766 5.09297ZM7.09474 9.73982C5.50037 8.47364 2.53877 7.77189 2.48084 6.11611C2.44408 4.69772 4.50092 4.43207 5.55031 5.14384C6.59661 5.78263 7.15637 6.85336 7.93537 7.66172C7.50786 8.30418 7.21859 9.00366 7.09474 9.73982ZM21.2307 7.83287C19.8321 8.42278 17.9525 8.74772 15.9382 8.74772C12.7702 8.74772 10.4728 8.05241 9.48279 7.2509C9.60275 7.12417 9.72301 6.99784 9.83289 6.88272C11.4528 7.58695 13.6302 7.98369 15.9383 7.98369C18.7748 7.98369 21.3582 7.39448 23.0006 6.39029C23.0011 6.39058 23.0016 6.39068 23.0022 6.39098C22.9129 6.85396 22.2375 7.40817 21.2307 7.83287Z" fill="#003902"/>
</svg>
