<svg width="23" height="24" viewBox="0 0 23 24" fill="none" xmlns="http://www.w3.org/2000/svg">
<path d="M22.8056 12.5063V11.8071C22.8056 11.4208 22.5559 11.1078 22.2477 11.1078H12.4838V9.35972H14.9945C15.6107 9.35972 16.1104 8.73346 16.1104 7.96122V2.36724C16.1104 1.59501 15.6107 0.96875 14.9945 0.96875H8.29934C7.68317 0.96875 7.18348 1.59501 7.18348 2.36724V7.96122C7.18348 8.73346 7.68317 9.35972 8.29934 9.35972H10.81V11.1078H1.04621C0.737956 11.1078 0.488281 11.4208 0.488281 11.8071V12.5063C0.488281 12.8927 0.737956 13.2056 1.04621 13.2056H4.67278V14.9537H2.72001C2.10385 14.9537 1.60415 15.58 1.60415 16.3522V21.9462C1.60415 22.7184 2.10385 23.3447 2.72001 23.3447H8.29934C8.91551 23.3447 9.41521 22.7184 9.41521 21.9462V16.3522C9.41521 15.58 8.91551 14.9537 8.29934 14.9537H6.34658V13.2056H16.9473V14.9537H14.9945C14.3784 14.9537 13.8787 15.58 13.8787 16.3522V21.9462C13.8787 22.7184 14.3784 23.3447 14.9945 23.3447H20.5739C21.19 23.3447 21.6897 22.7184 21.6897 21.9462V16.3522C21.6897 15.58 21.19 14.9537 20.5739 14.9537H18.6211V13.2056H22.2477C22.5559 13.2056 22.8056 12.8927 22.8056 12.5063ZM9.41521 6.56273V3.76574H13.8787V6.56273H9.41521ZM7.18348 20.5477H3.83588V17.7507H7.18348V20.5477ZM19.458 20.5477H16.1104V17.7507H19.458V20.5477Z" fill="#003902"/>
</svg>
