<svg width="28" height="19" viewBox="0 0 28 19" fill="none" xmlns="http://www.w3.org/2000/svg">
<path d="M2.2929 10.9142L2.46167 10.5823L2.19212 10.3255C1.10434 9.2891 0.5 8.0725 0.5 6.78571C0.5 5.12871 1.49997 3.56956 3.23964 2.40212C4.97617 1.23679 7.40395 0.5 10.1111 0.5C12.8183 0.5 15.2461 1.23679 16.9826 2.40212C18.7223 3.56956 19.7222 5.12871 19.7222 6.78571C19.7222 8.44271 18.7223 10.0019 16.9826 11.1693C15.2461 12.3346 12.8183 13.0714 10.1111 13.0714C8.18297 13.0714 6.39768 12.6897 4.89642 12.0511L4.68193 11.9598L4.47415 12.0654C3.53593 12.5423 2.26598 13.0011 0.743985 13.0641C1.13583 12.6465 1.81713 11.8496 2.2929 10.9142ZM0.443801 13.3682C0.445548 13.3666 0.447536 13.3647 0.449759 13.3626C0.4478 13.3646 0.44584 13.3665 0.44389 13.3683L0.443801 13.3682ZM25.8086 15.7534L25.5384 16.0099L25.7068 16.3421C26.1823 17.2803 26.8632 18.0758 27.2552 18.4926C25.7336 18.4295 24.4639 17.9708 23.5259 17.494L23.3174 17.3881L23.1025 17.4801C21.6026 18.1222 19.8178 18.5 17.8889 18.5C14.3329 18.5 11.2928 17.2314 9.63582 15.4201C9.79271 15.4255 9.95109 15.4286 10.1111 15.4286C13.4168 15.4286 16.436 14.491 18.6423 12.9514C20.8466 11.4132 22.2778 9.2405 22.2778 6.78571C22.2778 6.73304 22.2772 6.68038 22.2759 6.62775C25.473 7.7092 27.5 9.87608 27.5 12.2143C27.5 13.5016 26.8952 14.722 25.8086 15.7534ZM27.5483 18.7896C27.5471 18.7885 27.5459 18.7873 27.5447 18.786C27.546 18.7872 27.5472 18.7884 27.5484 18.7895L27.5483 18.7896Z" fill="#3DFB52" stroke="#FFFEFE"/>
</svg>
