<?xml version="1.0" encoding="UTF-8"?>
<!DOCTYPE svg PUBLIC "-//W3C//DTD SVG 1.1//EN" "http://www.w3.org/Graphics/SVG/1.1/DTD/svg11.dtd">
<svg xmlns="http://www.w3.org/2000/svg" version="1.1" width="512px" height="512px" style="shape-rendering:geometricPrecision; text-rendering:geometricPrecision; image-rendering:optimizeQuality; fill-rule:evenodd; clip-rule:evenodd" xmlns:xlink="http://www.w3.org/1999/xlink">
<g><path style="opacity:0.995" fill="#5eac23" d="M 232.5,-0.5 C 247.833,-0.5 263.167,-0.5 278.5,-0.5C 368.144,10.3879 435.644,54.7213 481,132.5C 497.695,163.971 507.861,197.304 511.5,232.5C 511.5,247.833 511.5,263.167 511.5,278.5C 500.612,368.144 456.279,435.644 378.5,481C 347.029,497.695 313.696,507.861 278.5,511.5C 263.167,511.5 247.833,511.5 232.5,511.5C 142.856,500.612 75.3562,456.279 30,378.5C 13.3053,347.029 3.1386,313.696 -0.5,278.5C -0.5,263.167 -0.5,247.833 -0.5,232.5C 10.3875,142.857 54.7208,75.3573 132.5,30C 163.971,13.3053 197.304,3.1386 232.5,-0.5 Z M 289.5,93.5 C 298.506,93.3336 307.506,93.5002 316.5,94C 319,95.1667 320.833,97 322,99.5C 322.955,103.902 324.121,108.236 325.5,112.5C 328.833,113.833 332.167,115.167 335.5,116.5C 339.633,114.198 343.633,111.698 347.5,109C 350.783,108.257 353.783,108.924 356.5,111C 362.699,116.864 368.532,123.031 374,129.5C 374.667,131.833 374.667,134.167 374,136.5C 371.873,140.589 369.373,144.423 366.5,148C 368.316,151.793 370.316,155.46 372.5,159C 387.185,159.03 393.185,166.363 390.5,181C 390.803,186.704 389.97,192.204 388,197.5C 387.097,198.701 385.931,199.535 384.5,200C 380.196,201.106 375.863,202.106 371.5,203C 369.833,206.667 368.167,210.333 366.5,214C 369.388,217.222 371.888,220.722 374,224.5C 374.79,227.634 374.457,230.634 373,233.5C 366.802,240.032 360.302,246.199 353.5,252C 351.167,252.667 348.833,252.667 346.5,252C 343.328,250.248 340.328,248.248 337.5,246C 333.173,246.327 329.007,247.494 325,249.5C 324.106,253.863 323.106,258.196 322,262.5C 320.52,265.663 318.02,267.496 314.5,268C 306.5,268.667 298.5,268.667 290.5,268C 287.804,267.31 285.637,265.81 284,263.5C 282.749,258.562 281.249,253.729 279.5,249C 276.376,247.686 273.209,246.52 270,245.5C 266.311,247.266 262.811,249.433 259.5,252C 256.833,252.667 254.167,252.667 251.5,252C 243.627,245.795 236.794,238.628 231,230.5C 230.333,228.833 230.333,227.167 231,225.5C 233.698,221.633 236.198,217.633 238.5,213.5C 236.762,209.951 235.429,206.284 234.5,202.5C 219.147,203.313 212.814,196.147 215.5,181C 215.667,176.5 215.833,172 216,167.5C 216.667,166.167 217.333,164.833 218,163.5C 222.873,161.022 228.04,159.355 233.5,158.5C 235.287,155.092 236.954,151.592 238.5,148C 236.739,144.569 234.572,141.403 232,138.5C 230,135.167 230,131.833 232,128.5C 238.167,122.333 244.333,116.167 250.5,110C 252.754,108.85 255.087,108.516 257.5,109C 261.766,111.381 265.932,113.881 270,116.5C 273.109,115.029 276.276,113.695 279.5,112.5C 281.018,107.122 282.851,101.789 285,96.5C 286.652,95.6006 288.152,94.6006 289.5,93.5 Z M 300.5,138.5 C 321.724,139.192 335.891,149.526 343,169.5C 347.376,192.916 338.876,209.75 317.5,220C 293.142,226.669 275.309,218.836 264,196.5C 257.008,173.324 263.842,155.491 284.5,143C 289.821,140.941 295.155,139.441 300.5,138.5 Z M 383.5,239.5 C 392.598,238.601 401.265,240.101 409.5,244C 416.919,249.59 419.086,256.757 416,265.5C 388.5,297.667 361,329.833 333.5,362C 328.714,365.726 323.381,368.393 317.5,370C 283.5,370.333 249.5,370.667 215.5,371C 211.239,373.587 207.239,376.587 203.5,380C 204.776,382.554 205.776,385.221 206.5,388C 206.561,389.711 205.894,391.044 204.5,392C 186.203,400.598 167.87,409.098 149.5,417.5C 146.182,415.915 144.015,413.248 143,409.5C 126.363,374.394 109.863,339.227 93.5,304C 93.9031,302.527 94.5697,301.194 95.5,300C 113.288,291.94 130.954,283.606 148.5,275C 150.235,274.349 151.902,274.515 153.5,275.5C 155.253,278.005 156.753,280.671 158,283.5C 183.485,265.11 210.651,261.943 239.5,274C 242.167,276 244.833,278 247.5,280C 268.5,280.333 289.5,280.667 310.5,281C 316.352,282.356 321.352,285.19 325.5,289.5C 340.653,274.847 355.653,260.014 370.5,245C 374.741,242.651 379.075,240.818 383.5,239.5 Z"/></g>
<g><path style="opacity:0.979" fill="#5eac23" d="M 291.5,102.5 C 298.841,102.334 306.174,102.5 313.5,103C 314.512,108.22 315.846,113.387 317.5,118.5C 323.578,121.287 329.745,123.954 336,126.5C 340.925,123.91 345.592,120.91 350,117.5C 355.348,122.681 360.515,128.015 365.5,133.5C 363.494,137.513 360.994,141.18 358,144.5C 357.833,145.5 357.667,146.5 357.5,147.5C 359.932,153.372 362.099,159.372 364,165.5C 369.265,167.654 374.765,168.988 380.5,169.5C 380.5,177.167 380.5,184.833 380.5,192.5C 374.603,192.51 369.103,193.843 364,196.5C 362.08,202.597 359.58,208.43 356.5,214C 359.257,218.853 362.257,223.52 365.5,228C 361.213,233.289 356.546,238.289 351.5,243C 346.797,241.695 342.464,239.362 338.5,236C 336.833,235.333 335.167,235.333 333.5,236C 327.948,238.512 322.448,241.012 317,243.5C 315.884,248.376 314.717,253.21 313.5,258C 306.174,258.5 298.841,258.666 291.5,258.5C 290.605,253.858 289.772,249.191 289,244.5C 288.167,243.667 287.333,242.833 286.5,242C 280.823,239.827 275.156,237.66 269.5,235.5C 264.63,237.679 259.963,240.346 255.5,243.5C 250.015,238.515 244.681,233.348 239.5,228C 242.91,223.592 245.91,218.925 248.5,214C 245.866,207.397 242.866,201.063 239.5,195C 234.624,193.884 229.79,192.717 225,191.5C 224.5,184.174 224.334,176.841 224.5,169.5C 230.004,169.083 235.338,167.916 240.5,166C 242.609,160.349 245.109,154.849 248,149.5C 248.667,148.167 248.667,146.833 248,145.5C 245.578,141.656 242.911,137.99 240,134.5C 239.333,133.833 239.333,133.167 240,132.5C 245,127.5 250,122.5 255,117.5C 259.62,120.891 264.453,123.891 269.5,126.5C 275.38,123.727 281.38,121.227 287.5,119C 289.654,113.735 290.988,108.235 291.5,102.5 Z M 300.5,138.5 C 295.155,139.441 289.821,140.941 284.5,143C 263.842,155.491 257.008,173.324 264,196.5C 275.309,218.836 293.142,226.669 317.5,220C 338.876,209.75 347.376,192.916 343,169.5C 335.891,149.526 321.724,139.192 300.5,138.5 Z"/></g>
<g><path style="opacity:0.984" fill="#5eac23" d="M 294.5,148.5 C 321.819,146.656 335.319,159.323 335,186.5C 329.798,206.355 316.965,215.188 296.5,213C 279.916,208.748 270.916,198.082 269.5,181C 270.907,164.768 279.24,153.935 294.5,148.5 Z"/></g>
<g><path style="opacity:0.979" fill="#5dac23" d="M 384.5,248.5 C 391.821,247.859 398.821,249.025 405.5,252C 408.601,255.502 409.101,259.335 407,263.5C 379.833,294.667 352.667,325.833 325.5,357C 322.785,358.908 319.785,360.241 316.5,361C 282.5,361.333 248.5,361.667 214.5,362C 208.622,363.525 203.789,366.692 200,371.5C 186.968,345.435 174.468,319.101 162.5,292.5C 163.545,290.795 164.878,289.295 166.5,288C 187,275.308 208.667,272.642 231.5,280C 236.356,282.26 240.689,285.26 244.5,289C 265.833,289.333 287.167,289.667 308.5,290C 318.862,292.549 322.696,299.049 320,309.5C 318.64,312.735 316.473,315.235 313.5,317C 293.231,318.298 272.898,318.965 252.5,319C 249.833,321.667 249.833,324.333 252.5,327C 272.167,327.667 291.833,327.667 311.5,327C 325.647,322.212 331.814,312.378 330,297.5C 344.5,283 359,268.5 373.5,254C 376.99,251.588 380.657,249.755 384.5,248.5 Z"/></g>
<g><path style="opacity:0.985" fill="#5eac23" d="M 146.5,285.5 C 147.675,285.281 148.675,285.614 149.5,286.5C 164.894,319.621 180.56,352.621 196.5,385.5C 182.04,392.879 167.373,399.879 152.5,406.5C 136.005,373.506 120.005,340.173 104.5,306.5C 118.32,299.117 132.32,292.117 146.5,285.5 Z"/></g>
</svg>
