<svg width="45" height="45" viewBox="0 0 45 45" fill="none" xmlns="http://www.w3.org/2000/svg">
<g id="Group 498">
<g id="Rectangle 654" filter="url(#filter0_d_3141_2127)">
<rect x="4" width="37" height="37" rx="5" fill="#A75CDB"/>
</g>
<path id="Vector" d="M10 17.9862C10.0333 18.0545 10.075 18.1483 10.125 18.2678C10.175 18.3872 10.3 18.6347 10.5 19.0101C10.7 19.3855 10.9167 19.7439 11.15 20.0852C11.3833 20.4265 11.7083 20.836 12.125 21.3138C12.5417 21.7916 12.975 22.2438 13.425 22.6704C13.875 23.0971 14.4333 23.5151 15.1 23.9247C15.7667 24.3342 16.45 24.6926 17.15 24.9998C17.85 25.3069 18.6667 25.5458 19.6 25.7165C20.5333 25.8871 21.5 25.981 22.5 25.998C23.5 26.0151 24.4667 25.9212 25.4 25.7165C26.3333 25.5117 27.1583 25.2643 27.875 24.9742C28.5917 24.6841 29.2667 24.3342 29.9 23.9247C30.5333 23.5151 31.0917 23.0885 31.575 22.6448C32.0583 22.2012 32.4917 21.766 32.875 21.3394C33.2583 20.9128 33.5833 20.4862 33.85 20.0596C34.1167 19.6329 34.3333 19.2831 34.5 19.0101C34.6667 18.7371 34.7917 18.4896 34.875 18.2678L35 17.9862C34.9833 17.918 34.9417 17.8241 34.875 17.7047C34.8083 17.5852 34.6833 17.3463 34.5 16.9879C34.3167 16.6296 34.1 16.2712 33.85 15.9129C33.6 15.5545 33.275 15.1364 32.875 14.6586C32.475 14.1808 32.0417 13.7371 31.575 13.3276C31.1083 12.918 30.55 12.5 29.9 12.0733C29.25 11.6467 28.5667 11.2884 27.85 10.9983C27.1333 10.7082 26.3167 10.4693 25.4 10.2816C24.4833 10.0939 23.5167 10 22.5 10C21.4833 10 20.5167 10.0939 19.6 10.2816C18.6833 10.4693 17.8583 10.7082 17.125 10.9983C16.3917 11.2884 15.7167 11.6467 15.1 12.0733C14.4833 12.5 13.925 12.918 13.425 13.3276C12.925 13.7371 12.4917 14.1808 12.125 14.6586C11.7583 15.1364 11.4333 15.5545 11.15 15.9129C10.8667 16.2712 10.65 16.6296 10.5 16.9879C10.35 17.3463 10.225 17.5937 10.125 17.7302L10 17.9862ZM17.825 17.9862C17.825 16.6722 18.275 15.546 19.175 14.6074C20.075 13.6689 21.1833 13.1996 22.5 13.1996C23.8167 13.1996 24.925 13.6689 25.825 14.6074C26.725 15.546 27.1833 16.6722 27.2 17.9862C27.2167 19.3002 26.7583 20.435 25.825 21.3906C24.8917 22.3462 23.7833 22.8155 22.5 22.7984C21.2167 22.7814 20.1083 22.3121 19.175 21.3906C18.2417 20.4691 17.7917 19.3343 17.825 17.9862ZM19.375 17.9862C19.375 18.8736 19.6833 19.6329 20.3 20.2643C20.9167 20.8957 21.65 21.2029 22.5 21.1858C23.35 21.1688 24.0833 20.8616 24.7 20.2643C25.3167 19.6671 25.625 18.9077 25.625 17.9862C25.625 17.0647 25.3167 16.3139 24.7 15.7337C24.0833 15.1535 23.35 14.8378 22.5 14.7866C21.65 14.7354 20.9167 15.0511 20.3 15.7337L22.5 17.9862H19.375Z" fill="white"/>
</g>
<defs>
<filter id="filter0_d_3141_2127" x="0" y="0" width="45" height="45" filterUnits="userSpaceOnUse" color-interpolation-filters="sRGB">
<feFlood flood-opacity="0" result="BackgroundImageFix"/>
<feColorMatrix in="SourceAlpha" type="matrix" values="0 0 0 0 0 0 0 0 0 0 0 0 0 0 0 0 0 0 127 0" result="hardAlpha"/>
<feOffset dy="4"/>
<feGaussianBlur stdDeviation="2"/>
<feComposite in2="hardAlpha" operator="out"/>
<feColorMatrix type="matrix" values="0 0 0 0 0.0611979 0 0 0 0 0.428386 0 0 0 0 0.979167 0 0 0 0.5 0"/>
<feBlend mode="normal" in2="BackgroundImageFix" result="effect1_dropShadow_3141_2127"/>
<feBlend mode="normal" in="SourceGraphic" in2="effect1_dropShadow_3141_2127" result="shape"/>
</filter>
</defs>
</svg>
