<svg width="32" height="32" viewBox="0 0 32 32" fill="none" xmlns="http://www.w3.org/2000/svg">
<path d="M31.9094 16.356V15.3737C31.9094 14.831 31.5577 14.3914 31.1236 14.3914H17.3717V11.9358H20.9079C21.7757 11.9358 22.4795 11.056 22.4795 9.9712V2.11299C22.4795 1.02819 21.7757 0.148438 20.9079 0.148438H11.4781C10.6102 0.148438 9.90641 1.02819 9.90641 2.11299V9.9712C9.90641 11.056 10.6102 11.9358 11.4781 11.9358H15.0142V14.3914H1.26238C0.828217 14.3914 0.476562 14.831 0.476562 15.3737V16.356C0.476562 16.8987 0.828217 17.3383 1.26238 17.3383H6.37022V19.794H3.61985C2.75201 19.794 2.0482 20.6737 2.0482 21.7585V29.6167C2.0482 30.7015 2.75201 31.5813 3.61985 31.5813H11.4781C12.3459 31.5813 13.0497 30.7015 13.0497 29.6167V21.7585C13.0497 20.6737 12.3459 19.794 11.4781 19.794H8.72768V17.3383H23.6583V19.794H20.9079C20.0401 19.794 19.3363 20.6737 19.3363 21.7585V29.6167C19.3363 30.7015 20.0401 31.5813 20.9079 31.5813H28.7661C29.634 31.5813 30.3378 30.7015 30.3378 29.6167V21.7585C30.3378 20.6737 29.634 19.794 28.7661 19.794H26.0157V17.3383H31.1236C31.5577 17.3383 31.9094 16.8987 31.9094 16.356ZM13.0497 8.00665V4.07754H19.3363V8.00665H13.0497ZM9.90641 27.6522H5.19149V23.7231H9.90641V27.6522ZM27.1945 27.6522H22.4795V23.7231H27.1945V27.6522Z" fill="#003902"/>
</svg>
