<svg width="32" height="32" viewBox="0 0 32 32" fill="none" xmlns="http://www.w3.org/2000/svg">
<path d="M31.9094 16.3501V15.3679C31.9094 14.8252 31.5577 14.3856 31.1236 14.3856H17.3717V11.9299H20.9079C21.7757 11.9299 22.4795 11.0501 22.4795 9.96534V2.10713C22.4795 1.02233 21.7757 0.142578 20.9079 0.142578H11.4781C10.6102 0.142578 9.90641 1.02233 9.90641 2.10713V9.96534C9.90641 11.0501 10.6102 11.9299 11.4781 11.9299H15.0142V14.3856H1.26238C0.828217 14.3856 0.476562 14.8252 0.476562 15.3679V16.3501C0.476562 16.8928 0.828217 17.3324 1.26238 17.3324H6.37022V19.7881H3.61985C2.75201 19.7881 2.0482 20.6679 2.0482 21.7527V29.6109C2.0482 30.6957 2.75201 31.5754 3.61985 31.5754H11.4781C12.3459 31.5754 13.0497 30.6957 13.0497 29.6109V21.7527C13.0497 20.6679 12.3459 19.7881 11.4781 19.7881H8.72768V17.3324H23.6583V19.7881H20.9079C20.0401 19.7881 19.3363 20.6679 19.3363 21.7527V29.6109C19.3363 30.6957 20.0401 31.5754 20.9079 31.5754H28.7661C29.634 31.5754 30.3378 30.6957 30.3378 29.6109V21.7527C30.3378 20.6679 29.634 19.7881 28.7661 19.7881H26.0157V17.3324H31.1236C31.5577 17.3324 31.9094 16.8928 31.9094 16.3501ZM13.0497 8.00079V4.07168H19.3363V8.00079H13.0497ZM9.90641 27.6463H5.19149V23.7172H9.90641V27.6463ZM27.1945 27.6463H22.4795V23.7172H27.1945V27.6463Z" fill="#006A2B"/>
</svg>
