<?xml version="1.0" encoding="UTF-8"?>
<!DOCTYPE svg PUBLIC "-//W3C//DTD SVG 1.1//EN" "http://www.w3.org/Graphics/SVG/1.1/DTD/svg11.dtd">
<svg xmlns="http://www.w3.org/2000/svg" version="1.1" width="512px" height="512px" style="shape-rendering:geometricPrecision; text-rendering:geometricPrecision; image-rendering:optimizeQuality; fill-rule:evenodd; clip-rule:evenodd" xmlns:xlink="http://www.w3.org/1999/xlink">
<g><path style="opacity:0.943" fill="#92f27e" d="M 209.5,2.5 C 209.5,16.5 209.5,30.5 209.5,44.5C 206.357,43.8665 203.857,42.1998 202,39.5C 200.41,29.5745 200.077,19.5745 201,9.5C 202.805,5.85707 205.638,3.52374 209.5,2.5 Z"/></g>
<g><path style="opacity:0.992" fill="#80e37b" d="M 209.5,2.5 C 212.495,2.29379 215.162,2.96046 217.5,4.5C 216.179,17.2646 216.179,29.9313 217.5,42.5C 215.162,44.0395 212.495,44.7062 209.5,44.5C 209.5,30.5 209.5,16.5 209.5,2.5 Z"/></g>
<g><path style="opacity:0.981" fill="#6ed278" d="M 217.5,4.5 C 219.173,5.34301 220.34,6.67634 221,8.5C 221.667,18.5 221.667,28.5 221,38.5C 220.34,40.3237 219.173,41.657 217.5,42.5C 216.179,29.9313 216.179,17.2646 217.5,4.5 Z"/></g>
<g><path style="opacity:1" fill="#fe7b3b" d="M 452.5,22.5 C 450.833,21.5 449.5,20.1667 448.5,18.5C 452.665,14.5032 456.998,10.6699 461.5,7C 467.773,7.46973 473.107,10.1364 477.5,15C 476.109,16.6501 474.609,17.1501 473,16.5C 467.423,17.3967 461.923,19.3967 456.5,22.5C 455.005,21.2947 453.672,21.2947 452.5,22.5 Z"/></g>
<g><path style="opacity:0.987" fill="#f8f2f9" d="M 445.5,15.5 C 446.167,16.8333 447.167,17.8333 448.5,18.5C 449.5,20.1667 450.833,21.5 452.5,22.5C 456.5,27.1667 460.833,31.5 465.5,35.5C 466.167,36.5 466.833,37.5 467.5,38.5C 464.281,40.5284 462.114,43.1951 461,46.5C 471.035,56.7022 481.202,66.7022 491.5,76.5C 491.795,78.7354 491.461,80.7354 490.5,82.5C 473.286,65.8836 455.619,49.717 437.5,34C 433.561,30.5706 430.228,26.7372 427.5,22.5C 430.149,20.8906 433.149,20.0572 436.5,20C 438.167,18.3333 439.833,16.6667 441.5,15C 442.928,14.4209 444.262,14.5876 445.5,15.5 Z"/></g>
<g><path style="opacity:1" fill="#fe6c3b" d="M 488.5,16.5 C 487.038,17.4577 485.705,18.6244 484.5,20C 486,21.5 487.5,23 489,24.5C 489.617,25.4491 489.451,26.2825 488.5,27C 480.604,29.2842 472.938,32.1176 465.5,35.5C 460.833,31.5 456.5,27.1667 452.5,22.5C 453.672,21.2947 455.005,21.2947 456.5,22.5C 461.923,19.3967 467.423,17.3967 473,16.5C 474.609,17.1501 476.109,16.6501 477.5,15C 473.107,10.1364 467.773,7.46973 461.5,7C 456.998,10.6699 452.665,14.5032 448.5,18.5C 447.167,17.8333 446.167,16.8333 445.5,15.5C 450.631,10.8698 455.631,6.03651 460.5,1C 463.964,0.183403 467.298,0.516736 470.5,2C 477.119,6.13268 483.119,10.966 488.5,16.5 Z"/></g>
<g><path style="opacity:0.989" fill="#f3e6fb" d="M 427.5,22.5 C 430.228,26.7372 433.561,30.5706 437.5,34C 455.619,49.717 473.286,65.8836 490.5,82.5C 490.167,84.8333 488.833,86.1667 486.5,86.5C 466.502,68.1692 446.502,49.8359 426.5,31.5C 426.5,30.8333 426.167,30.5 425.5,30.5C 425.111,27.4467 425.777,24.78 427.5,22.5 Z"/></g>
<g><path style="opacity:1" fill="#fc522e" d="M 488.5,16.5 C 491.833,19.1667 494.833,22.1667 497.5,25.5C 496.524,26.8149 495.524,28.1482 494.5,29.5C 496.124,30.8689 496.624,32.5355 496,34.5C 495.667,34.1667 495.333,33.8333 495,33.5C 487.506,36.5019 480.339,39.8352 473.5,43.5C 471.5,41.8333 469.5,40.1667 467.5,38.5C 466.833,37.5 466.167,36.5 465.5,35.5C 472.938,32.1176 480.604,29.2842 488.5,27C 489.451,26.2825 489.617,25.4491 489,24.5C 487.5,23 486,21.5 484.5,20C 485.705,18.6244 487.038,17.4577 488.5,16.5 Z"/></g>
<g><path style="opacity:0.988" fill="#f8f6fb" d="M 425.5,30.5 C 426.167,30.5 426.5,30.8333 426.5,31.5C 426.5,35.1667 426.5,38.8333 426.5,42.5C 426.336,45.1873 426.503,47.854 427,50.5C 438.035,61.7021 449.202,72.7021 460.5,83.5C 464.167,87.8333 468.167,91.8333 472.5,95.5C 472.5,96.1667 472.5,96.8333 472.5,97.5C 451.738,79.5758 431.404,61.0758 411.5,42C 410.552,41.5172 409.552,41.3505 408.5,41.5C 411.149,39.8906 414.149,39.0572 417.5,39C 420.371,36.2972 423.038,33.4639 425.5,30.5 Z"/></g>
<g><path style="opacity:1" fill="#fa3d22" d="M 497.5,25.5 C 500.516,28.5203 503.183,31.8536 505.5,35.5C 499.527,40.8063 493.86,46.4729 488.5,52.5C 487.167,53.1667 486.167,54.1667 485.5,55.5C 481.167,51.8333 477.167,47.8333 473.5,43.5C 480.339,39.8352 487.506,36.5019 495,33.5C 495.333,33.8333 495.667,34.1667 496,34.5C 496.624,32.5355 496.124,30.8689 494.5,29.5C 495.524,28.1482 496.524,26.8149 497.5,25.5 Z"/></g>
<g><path style="opacity:0.991" fill="#f5ecfc" d="M 408.5,41.5 C 409.552,41.3505 410.552,41.5172 411.5,42C 431.404,61.0758 451.738,79.5758 472.5,97.5C 472.946,100.01 472.28,102.01 470.5,103.5C 449.466,83.7971 428.132,64.4638 406.5,45.5C 406.66,43.847 407.326,42.5137 408.5,41.5 Z"/></g>
<g><path style="opacity:0.975" fill="#e7291d" d="M 505.5,35.5 C 507.5,38.1667 509.5,40.8333 511.5,43.5C 511.5,46.1667 511.5,48.8333 511.5,51.5C 508.167,54.5 504.833,57.5 501.5,60.5C 501.586,59.5041 501.252,58.6708 500.5,58C 496.559,55.8543 492.559,54.021 488.5,52.5C 493.86,46.4729 499.527,40.8063 505.5,35.5 Z"/></g>
<g><path style="opacity:0.985" fill="#f2e0f5" d="M 406.5,45.5 C 428.132,64.4638 449.466,83.7971 470.5,103.5C 468.22,105.223 465.553,105.889 462.5,105.5C 457.833,100.167 452.833,95.1667 447.5,90.5C 434.139,76.8066 420.806,63.14 407.5,49.5C 407.167,49.5 406.833,49.5 406.5,49.5C 406.5,48.1667 406.5,46.8333 406.5,45.5 Z"/></g>
<g><path style="opacity:1" fill="#f2def5" d="M 467.5,38.5 C 469.5,40.1667 471.5,41.8333 473.5,43.5C 477.167,47.8333 481.167,51.8333 485.5,55.5C 488.833,59.5 492.5,63.1667 496.5,66.5C 497.577,71.0148 495.91,74.3482 491.5,76.5C 481.202,66.7022 471.035,56.7022 461,46.5C 462.114,43.1951 464.281,40.5284 467.5,38.5 Z"/></g>
<g><path style="opacity:1" fill="#fed742" d="M 406.5,49.5 C 406.833,49.5 407.167,49.5 407.5,49.5C 407.5,53.8333 407.5,58.1667 407.5,62.5C 407.5,62.8333 407.5,63.1667 407.5,63.5C 389.167,81.1667 371.167,99.1667 353.5,117.5C 337.833,132.5 322.5,147.833 307.5,163.5C 291.356,178.468 276.356,193.968 262.5,210C 263.769,209.891 264.769,210.058 265.5,210.5C 255.47,219.507 245.47,228.507 235.5,237.5C 234.25,233.592 231.917,230.592 228.5,228.5C 287.833,168.833 347.167,109.167 406.5,49.5 Z"/></g>
<g><path style="opacity:1" fill="#cc2728" d="M 488.5,52.5 C 492.559,54.021 496.559,55.8543 500.5,58C 501.252,58.6708 501.586,59.5041 501.5,60.5C 499.833,62.5 498.167,64.5 496.5,66.5C 492.5,63.1667 488.833,59.5 485.5,55.5C 486.167,54.1667 487.167,53.1667 488.5,52.5 Z"/></g>
<g><path style="opacity:1" fill="#eadef5" d="M 426.5,42.5 C 431.159,46.5015 436.493,49.5015 442.5,51.5C 450.29,58.1191 457.957,64.9525 465.5,72C 461.833,70.3333 458.167,68.6667 454.5,67C 459.03,70.0297 462.697,73.863 465.5,78.5C 465.192,79.3081 464.692,79.9747 464,80.5C 463.033,77.0948 461.2,76.5948 458.5,79C 460.65,80.1923 461.317,81.6923 460.5,83.5C 449.202,72.7021 438.035,61.7021 427,50.5C 426.503,47.854 426.336,45.1873 426.5,42.5 Z"/></g>
<g><path style="opacity:0.97" fill="#8eef7e" d="M 363.5,68.5 C 353.22,77.112 343.553,86.4453 334.5,96.5C 329.123,93.3906 327.29,88.7239 329,82.5C 334.801,75.6975 340.968,69.1975 347.5,63C 354.777,59.7073 360.11,61.5406 363.5,68.5 Z"/></g>
<g><path style="opacity:0.898" fill="#8bed7d" d="M 87.5,96.5 C 78.1667,86.8333 68.8333,77.1667 59.5,67.5C 59.8588,65.629 60.8588,64.129 62.5,63C 65.7383,61.6323 69.0717,61.2989 72.5,62C 79.636,68.1349 86.4693,74.6349 93,81.5C 94.7975,84.8648 94.7975,88.1982 93,91.5C 91.9243,94.079 90.091,95.7457 87.5,96.5 Z"/></g>
<g><path style="opacity:0.964" fill="#73d779" d="M 363.5,68.5 C 365.003,72.3206 364.336,75.6539 361.5,78.5C 356.364,82.0975 351.364,86.5975 346.5,92C 347.056,92.3826 347.389,92.8826 347.5,93.5C 343.878,97.3545 339.544,98.3545 334.5,96.5C 343.553,86.4453 353.22,77.112 363.5,68.5 Z"/></g>
<g><path style="opacity:1" fill="#fde22f" d="M 407.5,63.5 C 407.5,67.8333 407.5,72.1667 407.5,76.5C 407.5,79.8333 407.5,83.1667 407.5,86.5C 401.824,90.9582 395.99,95.9582 390,101.5C 389.5,101 389,100.5 388.5,100C 389.667,98.8333 390.833,97.6667 392,96.5C 392.688,95.6683 392.521,95.0016 391.5,94.5C 386.478,97.2223 381.978,99.889 378,102.5C 377.667,102.167 377.333,101.833 377,101.5C 375.167,102.667 373.333,103.833 371.5,105C 372.258,106.364 371.758,107.531 370,108.5C 369.282,107.549 368.449,107.383 367.5,108C 362.949,111.434 358.282,114.601 353.5,117.5C 371.167,99.1667 389.167,81.1667 407.5,63.5 Z"/></g>
<g><path style="opacity:0.967" fill="#6fd378" d="M 59.5,67.5 C 68.8333,77.1667 78.1667,86.8333 87.5,96.5C 84.157,97.783 80.8237,97.6163 77.5,96C 71.6667,90.1667 65.8333,84.3333 60,78.5C 58.2996,74.7713 58.1329,71.1046 59.5,67.5 Z"/></g>
<g><path style="opacity:1" fill="#edb540" d="M 407.5,49.5 C 420.806,63.14 434.139,76.8066 447.5,90.5C 444.737,90.7438 442.571,92.0771 441,94.5C 440.333,93.8333 439.667,93.1667 439,92.5C 438.23,93.5981 437.397,93.5981 436.5,92.5C 434.582,90.4506 433.082,88.1172 432,85.5C 429.667,84.5 428,82.8333 427,80.5C 426,80.5 425,80.5 424,80.5C 421.978,77.8981 419.812,75.3981 417.5,73C 415.965,72.5038 414.465,72.6705 413,73.5C 411.7,72.2927 410.2,71.6261 408.5,71.5C 408.81,68.2869 408.477,65.2869 407.5,62.5C 407.5,58.1667 407.5,53.8333 407.5,49.5 Z"/></g>
<g><path style="opacity:1" fill="#e5d6f3" d="M 426.5,31.5 C 446.502,49.8359 466.502,68.1692 486.5,86.5C 484.801,86.3398 483.134,86.5065 481.5,87C 478.631,90.0379 475.631,92.8712 472.5,95.5C 468.167,91.8333 464.167,87.8333 460.5,83.5C 461.317,81.6923 460.65,80.1923 458.5,79C 461.2,76.5948 463.033,77.0948 464,80.5C 464.692,79.9747 465.192,79.3081 465.5,78.5C 462.697,73.863 459.03,70.0297 454.5,67C 458.167,68.6667 461.833,70.3333 465.5,72C 457.957,64.9525 450.29,58.1191 442.5,51.5C 436.493,49.5015 431.159,46.5015 426.5,42.5C 426.5,38.8333 426.5,35.1667 426.5,31.5 Z"/></g>
<g><path style="opacity:0.803" fill="#5cdc62" d="M 361.5,78.5 C 357.561,84.1082 352.894,89.1082 347.5,93.5C 347.389,92.8826 347.056,92.3826 346.5,92C 351.364,86.5975 356.364,82.0975 361.5,78.5 Z"/></g>
<g><path style="opacity:1" fill="#f4c23d" d="M 407.5,62.5 C 408.477,65.2869 408.81,68.2869 408.5,71.5C 410.2,71.6261 411.7,72.2927 413,73.5C 414.465,72.6705 415.965,72.5038 417.5,73C 419.812,75.3981 421.978,77.8981 424,80.5C 425,80.5 426,80.5 427,80.5C 428,82.8333 429.667,84.5 432,85.5C 433.082,88.1172 434.582,90.4506 436.5,92.5C 436.36,94.1238 437.027,95.2904 438.5,96C 437.333,98.5 436.167,101 435,103.5C 434.667,103.167 434.333,102.833 434,102.5C 433.583,103.756 432.75,104.423 431.5,104.5C 429.61,104.703 428.11,104.037 427,102.5C 425.34,103.166 423.506,103.166 421.5,102.5C 421.33,101.178 421.663,100.011 422.5,99C 421.331,96.9935 420.665,94.8268 420.5,92.5C 419.5,92.5 418.5,92.5 417.5,92.5C 417.587,89.4017 417.087,89.0684 416,91.5C 415.654,89.7818 415.154,88.1151 414.5,86.5C 410.487,84.1832 408.154,80.8499 407.5,76.5C 407.5,72.1667 407.5,67.8333 407.5,63.5C 407.5,63.1667 407.5,62.8333 407.5,62.5 Z"/></g>
<g><path style="opacity:1" fill="#fddd37" d="M 407.5,86.5 C 407.5,86.8333 407.5,87.1667 407.5,87.5C 407.5,90.8333 407.5,94.1667 407.5,97.5C 405.857,99.9731 403.69,101.973 401,103.5C 400.667,103.167 400.333,102.833 400,102.5C 398.56,106.01 396.227,107.677 393,107.5C 388.264,112.447 383.43,117.281 378.5,122C 369.046,127.651 359.879,135.151 351,144.5C 347.692,145.43 345.025,147.763 343,151.5C 342.667,151.167 342.333,150.833 342,150.5C 339.333,153.167 336.667,155.833 334,158.5C 333.667,158.167 333.333,157.833 333,157.5C 331.887,159.329 330.387,160.163 328.5,160C 332.633,154.866 337.133,150.032 342,145.5C 342.667,144.833 342.667,144.167 342,143.5C 339.667,145.167 337.333,146.833 335,148.5C 333.933,146.717 332.433,146.217 330.5,147C 325.672,149.777 321.172,153.611 317,158.5C 316.667,158.167 316.333,157.833 316,157.5C 313.982,159.35 312.149,161.35 310.5,163.5C 309.473,164.791 308.473,164.791 307.5,163.5C 322.5,147.833 337.833,132.5 353.5,117.5C 358.282,114.601 362.949,111.434 367.5,108C 368.449,107.383 369.282,107.549 370,108.5C 371.758,107.531 372.258,106.364 371.5,105C 373.333,103.833 375.167,102.667 377,101.5C 377.333,101.833 377.667,102.167 378,102.5C 381.978,99.889 386.478,97.2223 391.5,94.5C 392.521,95.0016 392.688,95.6683 392,96.5C 390.833,97.6667 389.667,98.8333 388.5,100C 389,100.5 389.5,101 390,101.5C 395.99,95.9582 401.824,90.9582 407.5,86.5 Z"/></g>
<g><path style="opacity:1" fill="#f9b535" d="M 447.5,90.5 C 452.833,95.1667 457.833,100.167 462.5,105.5C 460.167,108.5 457.5,111.167 454.5,113.5C 453.258,111.108 451.925,111.275 450.5,114C 448.22,114.233 446.22,115.066 444.5,116.5C 443.914,116.291 443.414,115.957 443,115.5C 440.069,116.716 437.236,118.05 434.5,119.5C 430.166,119.777 425.833,121.11 421.5,123.5C 422.851,120.908 424.685,119.574 427,119.5C 430.083,116.092 432.749,112.425 435,108.5C 435.58,105.453 435.247,105.119 434,107.5C 433.302,106.309 432.469,105.309 431.5,104.5C 432.75,104.423 433.583,103.756 434,102.5C 434.333,102.833 434.667,103.167 435,103.5C 436.167,101 437.333,98.5 438.5,96C 437.027,95.2904 436.36,94.1238 436.5,92.5C 437.397,93.5981 438.23,93.5981 439,92.5C 439.667,93.1667 440.333,93.8333 441,94.5C 442.571,92.0771 444.737,90.7438 447.5,90.5 Z"/></g>
<g><path style="opacity:1" fill="#fec337" d="M 421.5,102.5 C 423.506,103.166 425.34,103.166 427,102.5C 428.11,104.037 429.61,104.703 431.5,104.5C 432.469,105.309 433.302,106.309 434,107.5C 435.247,105.119 435.58,105.453 435,108.5C 432.749,112.425 430.083,116.092 427,119.5C 424.685,119.574 422.851,120.908 421.5,123.5C 418.943,125.285 416.443,126.952 414,128.5C 413.667,128.167 413.333,127.833 413,127.5C 397.201,139.956 381.368,152.456 365.5,165C 356.73,173.778 347.397,181.778 337.5,189C 311.437,213.227 285.77,238.06 260.5,263.5C 259.737,261.632 258.737,259.965 257.5,258.5C 257.167,257.833 256.833,257.167 256.5,256.5C 270.414,244.089 283.914,231.089 297,217.5C 297.333,217.833 297.667,218.167 298,218.5C 306.528,209.94 315.862,200.94 326,191.5C 326.333,191.833 326.667,192.167 327,192.5C 336.217,185.304 345.051,177.137 353.5,168C 366.019,159.515 378.186,149.348 390,137.5C 390.333,137.833 390.667,138.167 391,138.5C 398.97,130.515 407.47,123.348 416.5,117C 416.258,114.928 416.591,112.761 417.5,110.5C 418.552,110.649 419.552,110.483 420.5,110C 420.167,109.667 419.833,109.333 419.5,109C 420.5,107.333 421.5,105.667 422.5,104C 421.944,103.617 421.611,103.117 421.5,102.5 Z"/></g>
<g><path style="opacity:1" fill="#feb12d" d="M 454.5,113.5 C 451.833,116.833 448.833,119.833 445.5,122.5C 439.385,124.775 433.885,128.108 429,132.5C 427.434,131.939 426.101,132.606 425,134.5C 422.67,133.844 421.003,134.844 420,137.5C 419.667,137.167 419.333,136.833 419,136.5C 405.957,147.934 392.457,158.767 378.5,169C 342.72,202.772 307.22,237.606 272,273.5C 271.536,274.094 271.369,274.761 271.5,275.5C 266.405,274.91 261.738,275.91 257.5,278.5C 258.167,277.5 258.833,276.5 259.5,275.5C 296.583,239.918 333.25,203.752 369.5,167C 370.449,166.383 371.282,166.549 372,167.5C 374.333,165.167 376.667,162.833 379,160.5C 379.333,160.833 379.667,161.167 380,161.5C 383.853,157.28 387.686,153.78 391.5,151C 402.458,142.776 413.124,134.942 423.5,127.5C 424.086,127.709 424.586,128.043 425,128.5C 426.353,127.315 427.52,125.981 428.5,124.5C 429.086,124.709 429.586,125.043 430,125.5C 430.919,123.154 432.419,121.154 434.5,119.5C 437.236,118.05 440.069,116.716 443,115.5C 443.414,115.957 443.914,116.291 444.5,116.5C 446.22,115.066 448.22,114.233 450.5,114C 451.925,111.275 453.258,111.108 454.5,113.5 Z"/></g>
<g><path style="opacity:1" fill="#fed13c" d="M 407.5,87.5 C 408.314,89.631 408.814,91.9644 409,94.5C 409.804,96.8834 410.971,99.05 412.5,101C 409.994,103.721 409.327,106.388 410.5,109C 409.283,110.648 408.45,112.481 408,114.5C 402.699,118.8 397.699,123.466 393,128.5C 384.414,133.343 376.414,139.677 369,147.5C 368.667,147.167 368.333,146.833 368,146.5C 357.7,156.497 347.366,165.831 337,174.5C 336.667,174.167 336.333,173.833 336,173.5C 329.022,180.809 321.689,187.809 314,194.5C 313.667,194.167 313.333,193.833 313,193.5C 299.228,207.38 284.561,221.713 269,236.5C 268.667,236.167 268.333,235.833 268,235.5C 262.833,240.667 257.667,245.833 252.5,251C 251.552,251.483 250.552,251.649 249.5,251.5C 246.833,251.5 244.167,251.5 241.5,251.5C 244.298,248.572 247.632,246.072 251.5,244C 255.547,240.368 259.047,236.201 262,231.5C 265.15,230.429 267.983,228.262 270.5,225C 269.346,224.086 269.513,223.253 271,222.5C 271.333,222.833 271.667,223.167 272,223.5C 287.336,208.462 303.002,194.462 319,181.5C 319.914,182.654 320.747,182.487 321.5,181C 321.167,180.667 320.833,180.333 320.5,180C 330.995,169.767 341.162,160.6 351,152.5C 351.333,152.833 351.667,153.167 352,153.5C 357.757,147.405 363.757,141.738 370,136.5C 370.333,136.833 370.667,137.167 371,137.5C 378.911,129.183 387.411,122.35 396.5,117C 399.374,113.551 402.707,110.551 406.5,108C 407.456,104.606 407.789,101.106 407.5,97.5C 407.5,94.1667 407.5,90.8333 407.5,87.5 Z"/></g>
<g><path style="opacity:0.999" fill="#feab29" d="M 445.5,122.5 C 440.5,128.167 435.167,133.5 429.5,138.5C 429.483,136.972 428.816,136.472 427.5,137C 417.537,145.37 407.537,153.037 397.5,160C 357.965,199.368 318.632,238.868 279.5,278.5C 276.828,277.499 274.162,276.499 271.5,275.5C 271.369,274.761 271.536,274.094 272,273.5C 307.22,237.606 342.72,202.772 378.5,169C 392.457,158.767 405.957,147.934 419,136.5C 419.333,136.833 419.667,137.167 420,137.5C 421.003,134.844 422.67,133.844 425,134.5C 426.101,132.606 427.434,131.939 429,132.5C 433.885,128.108 439.385,124.775 445.5,122.5 Z"/></g>
<g><path style="opacity:0.997" fill="#fea625" d="M 429.5,138.5 C 385.167,183.167 340.833,227.833 296.5,272.5C 295.833,272.5 295.5,272.833 295.5,273.5C 291.227,276.434 287.227,279.767 283.5,283.5C 282.197,281.858 280.864,280.191 279.5,278.5C 318.632,238.868 357.965,199.368 397.5,160C 407.537,153.037 417.537,145.37 427.5,137C 428.816,136.472 429.483,136.972 429.5,138.5 Z"/></g>
<g><path style="opacity:1" fill="#fecb3a" d="M 407.5,76.5 C 408.154,80.8499 410.487,84.1832 414.5,86.5C 415.154,88.1151 415.654,89.7818 416,91.5C 417.087,89.0684 417.587,89.4017 417.5,92.5C 418.5,92.5 419.5,92.5 420.5,92.5C 420.665,94.8268 421.331,96.9935 422.5,99C 421.663,100.011 421.33,101.178 421.5,102.5C 421.611,103.117 421.944,103.617 422.5,104C 421.5,105.667 420.5,107.333 419.5,109C 419.833,109.333 420.167,109.667 420.5,110C 419.552,110.483 418.552,110.649 417.5,110.5C 416.591,112.761 416.258,114.928 416.5,117C 407.47,123.348 398.97,130.515 391,138.5C 390.667,138.167 390.333,137.833 390,137.5C 378.186,149.348 366.019,159.515 353.5,168C 345.051,177.137 336.217,185.304 327,192.5C 326.667,192.167 326.333,191.833 326,191.5C 315.862,200.94 306.528,209.94 298,218.5C 297.667,218.167 297.333,217.833 297,217.5C 283.914,231.089 270.414,244.089 256.5,256.5C 254.305,254.576 251.972,252.909 249.5,251.5C 250.552,251.649 251.552,251.483 252.5,251C 257.667,245.833 262.833,240.667 268,235.5C 268.333,235.833 268.667,236.167 269,236.5C 284.561,221.713 299.228,207.38 313,193.5C 313.333,193.833 313.667,194.167 314,194.5C 321.689,187.809 329.022,180.809 336,173.5C 336.333,173.833 336.667,174.167 337,174.5C 347.366,165.831 357.7,156.497 368,146.5C 368.333,146.833 368.667,147.167 369,147.5C 376.414,139.677 384.414,133.343 393,128.5C 397.699,123.466 402.699,118.8 408,114.5C 408.45,112.481 409.283,110.648 410.5,109C 409.327,106.388 409.994,103.721 412.5,101C 410.971,99.05 409.804,96.8834 409,94.5C 408.814,91.9644 408.314,89.631 407.5,87.5C 407.5,87.1667 407.5,86.8333 407.5,86.5C 407.5,83.1667 407.5,79.8333 407.5,76.5 Z"/></g>
<g><path style="opacity:1" fill="#fed73c" d="M 407.5,97.5 C 407.789,101.106 407.456,104.606 406.5,108C 402.707,110.551 399.374,113.551 396.5,117C 387.411,122.35 378.911,129.183 371,137.5C 370.667,137.167 370.333,136.833 370,136.5C 363.757,141.738 357.757,147.405 352,153.5C 351.667,153.167 351.333,152.833 351,152.5C 341.162,160.6 330.995,169.767 320.5,180C 320.833,180.333 321.167,180.667 321.5,181C 320.747,182.487 319.914,182.654 319,181.5C 303.002,194.462 287.336,208.462 272,223.5C 271.667,223.167 271.333,222.833 271,222.5C 269.513,223.253 269.346,224.086 270.5,225C 267.983,228.262 265.15,230.429 262,231.5C 259.047,236.201 255.547,240.368 251.5,244C 247.632,246.072 244.298,248.572 241.5,251.5C 240.5,251.5 239.5,251.5 238.5,251.5C 237.475,251.103 237.308,250.437 238,249.5C 264.195,223.639 290.028,197.472 315.5,171C 315.167,170.833 314.833,170.667 314.5,170.5C 311.919,173.248 308.919,175.414 305.5,177C 304.198,180.134 301.865,181.968 298.5,182.5C 293.616,186.413 289.116,190.746 285,195.5C 284.667,195.167 284.333,194.833 284,194.5C 277.219,199.471 271.052,204.804 265.5,210.5C 264.769,210.058 263.769,209.891 262.5,210C 276.356,193.968 291.356,178.468 307.5,163.5C 308.473,164.791 309.473,164.791 310.5,163.5C 312.149,161.35 313.982,159.35 316,157.5C 316.333,157.833 316.667,158.167 317,158.5C 321.172,153.611 325.672,149.777 330.5,147C 332.433,146.217 333.933,146.717 335,148.5C 337.333,146.833 339.667,145.167 342,143.5C 342.667,144.167 342.667,144.833 342,145.5C 337.133,150.032 332.633,154.866 328.5,160C 330.387,160.163 331.887,159.329 333,157.5C 333.333,157.833 333.667,158.167 334,158.5C 336.667,155.833 339.333,153.167 342,150.5C 342.333,150.833 342.667,151.167 343,151.5C 345.025,147.763 347.692,145.43 351,144.5C 359.879,135.151 369.046,127.651 378.5,122C 383.43,117.281 388.264,112.447 393,107.5C 396.227,107.677 398.56,106.01 400,102.5C 400.333,102.833 400.667,103.167 401,103.5C 403.69,101.973 405.857,99.9731 407.5,97.5 Z"/></g>
<g><path style="opacity:1" fill="#febc33" d="M 434.5,119.5 C 432.419,121.154 430.919,123.154 430,125.5C 429.586,125.043 429.086,124.709 428.5,124.5C 427.52,125.981 426.353,127.315 425,128.5C 424.586,128.043 424.086,127.709 423.5,127.5C 413.124,134.942 402.458,142.776 391.5,151C 387.686,153.78 383.853,157.28 380,161.5C 379.667,161.167 379.333,160.833 379,160.5C 376.667,162.833 374.333,165.167 372,167.5C 371.282,166.549 370.449,166.383 369.5,167C 333.25,203.752 296.583,239.918 259.5,275.5C 260.36,271.566 260.693,267.566 260.5,263.5C 285.77,238.06 311.437,213.227 337.5,189C 347.397,181.778 356.73,173.778 365.5,165C 381.368,152.456 397.201,139.956 413,127.5C 413.333,127.833 413.667,128.167 414,128.5C 416.443,126.952 418.943,125.285 421.5,123.5C 425.833,121.11 430.166,119.777 434.5,119.5 Z"/></g>
<g><path style="opacity:1" fill="#fed13d" d="M 238.5,251.5 C 237.035,252.737 235.368,253.737 233.5,254.5C 236.471,249.123 237.138,243.456 235.5,237.5C 245.47,228.507 255.47,219.507 265.5,210.5C 271.052,204.804 277.219,199.471 284,194.5C 284.333,194.833 284.667,195.167 285,195.5C 289.116,190.746 293.616,186.413 298.5,182.5C 301.865,181.968 304.198,180.134 305.5,177C 308.919,175.414 311.919,173.248 314.5,170.5C 314.833,170.667 315.167,170.833 315.5,171C 290.028,197.472 264.195,223.639 238,249.5C 237.308,250.437 237.475,251.103 238.5,251.5 Z"/></g>
<g><path style="opacity:0.978" fill="#92f27e" d="M 40.5,216.5 C 27.2076,214.518 13.5409,213.851 -0.5,214.5C -0.5,212.833 -0.5,211.167 -0.5,209.5C 0.971672,207.866 2.63834,206.366 4.5,205C 14.8333,204.333 25.1667,204.333 35.5,205C 40.028,207.788 41.6947,211.621 40.5,216.5 Z"/></g>
<g><path style="opacity:0.985" fill="#7add7a" d="M -0.5,214.5 C 13.5409,213.851 27.2076,214.518 40.5,216.5C 40.1022,221.4 37.4355,224.233 32.5,225C 24.1667,225.667 15.8333,225.667 7.5,225C 3.89071,224.375 1.22405,222.542 -0.5,219.5C -0.5,217.833 -0.5,216.167 -0.5,214.5 Z"/></g>
<g><path style="opacity:0.978" fill="#fed8a8" d="M 228.5,228.5 C 231.917,230.592 234.25,233.592 235.5,237.5C 237.138,243.456 236.471,249.123 233.5,254.5C 226.678,266.139 219.845,277.806 213,289.5C 212.329,290.252 211.496,290.586 210.5,290.5C 209.29,290.068 208.29,289.401 207.5,288.5C 208.964,282.775 210.631,277.108 212.5,271.5C 217.462,256.937 222.796,242.604 228.5,228.5 Z"/></g>
<g><path style="opacity:1" fill="#fedeb6" d="M 238.5,251.5 C 239.5,251.5 240.5,251.5 241.5,251.5C 244.167,251.5 246.833,251.5 249.5,251.5C 251.972,252.909 254.305,254.576 256.5,256.5C 256.833,257.167 257.167,257.833 257.5,258.5C 253.865,261.659 250.198,264.826 246.5,268C 245.552,268.483 244.552,268.649 243.5,268.5C 243.5,269.5 243.5,270.5 243.5,271.5C 238.941,272.538 235.274,275.038 232.5,279C 230.783,280.559 228.783,281.392 226.5,281.5C 226.5,282.5 226.5,283.5 226.5,284.5C 225.448,284.351 224.448,284.517 223.5,285C 220.426,287.849 217.426,290.683 214.5,293.5C 213.128,292.488 211.795,291.488 210.5,290.5C 211.496,290.586 212.329,290.252 213,289.5C 219.845,277.806 226.678,266.139 233.5,254.5C 235.368,253.737 237.035,252.737 238.5,251.5 Z"/></g>
<g><path style="opacity:0.994" fill="#f7f5fa" d="M 203.5,269.5 C 197.171,276.662 190.338,283.329 183,289.5C 182,286.833 181,286.833 180,289.5C 179.667,288.833 179.333,288.167 179,287.5C 175.571,291.439 171.737,294.772 167.5,297.5C 154.514,296.506 141.514,296.339 128.5,297C 126.968,301.809 127.301,306.476 129.5,311C 136.492,311.5 143.492,311.666 150.5,311.5C 151.263,312.268 152.263,312.768 153.5,313C 149.25,318.074 144.917,322.907 140.5,327.5C 120.505,326.754 101.005,329.087 82,334.5C 81.3333,338.5 81.3333,342.5 82,346.5C 82.7387,347.574 83.7387,348.241 85,348.5C 96.0104,345.811 107.177,344.144 118.5,343.5C 120.604,343.201 122.604,343.534 124.5,344.5C 122.146,347.688 119.312,350.355 116,352.5C 113.946,355.047 112.113,357.714 110.5,360.5C 89.2189,362.612 68.7189,367.612 49,375.5C 48.3333,379.833 48.3333,384.167 49,388.5C 49.7247,389.059 50.5581,389.392 51.5,389.5C 62.6735,385.735 74.0068,382.735 85.5,380.5C 87.1033,380.312 88.4366,380.812 89.5,382C 83.1803,388.299 77.1803,394.799 71.5,401.5C 63.4541,401.055 55.9541,403.055 49,407.5C 48.3333,411.833 48.3333,416.167 49,420.5C 49.3826,421.056 49.8826,421.389 50.5,421.5C 44.5585,428.779 38.2251,435.779 31.5,442.5C 31.5,442.833 31.5,443.167 31.5,443.5C 23.9991,446.408 18.4991,444.408 15,437.5C 14.5012,441.486 14.3345,445.486 14.5,449.5C 14.5,454.167 14.5,458.833 14.5,463.5C 13.5012,414.67 13.1678,365.67 13.5,316.5C 13.3337,309.159 13.5003,301.826 14,294.5C 14.6998,290.934 16.5332,288.1 19.5,286C 78.9564,259.913 140.29,254.413 203.5,269.5 Z"/></g>
<g><path style="opacity:1" fill="#e6ddf1" d="M 371.5,261.5 C 374.305,262.319 377.305,262.819 380.5,263C 377.583,266.243 375.083,269.743 373,273.5C 369.667,276.833 366.333,280.167 363,283.5C 362.577,282.044 361.744,281.544 360.5,282C 348.742,293.73 337.576,305.897 327,318.5C 326.577,317.044 325.744,316.544 324.5,317C 312.842,328.207 302.009,340.041 292,352.5C 291.577,351.044 290.744,350.544 289.5,351C 281.937,358.395 274.603,365.895 267.5,373.5C 263.5,369.833 259.5,366.167 255.5,362.5C 255.5,362.167 255.5,361.833 255.5,361.5C 255.5,360.167 255.5,358.833 255.5,357.5C 272.44,342.071 289.274,325.738 306,308.5C 306.333,309.167 306.667,309.833 307,310.5C 321.164,294.003 336.33,278.503 352.5,264C 349.854,263.503 347.187,263.336 344.5,263.5C 353.283,261.903 362.283,261.236 371.5,261.5 Z"/></g>
<g><path style="opacity:1" fill="#ede5f6" d="M 371.5,261.5 C 380.886,261.22 390.22,261.553 399.5,262.5C 400.706,263.88 400.373,265.047 398.5,266C 399.167,266.333 399.833,266.667 400.5,267C 392.01,274.378 385.177,282.545 380,291.5C 376.833,294.667 373.667,297.833 370.5,301C 371.167,301.333 371.833,301.667 372.5,302C 366.5,308 360.5,314 354.5,320C 355.167,320.333 355.833,320.667 356.5,321C 352.631,324.534 349.131,328.367 346,332.5C 334.999,344.187 323.666,354.854 312,364.5C 307.657,372.906 301.49,380.406 293.5,387C 294.167,387.333 294.833,387.667 295.5,388C 293.297,390.372 290.963,392.539 288.5,394.5C 281.167,387.833 274.167,380.833 267.5,373.5C 274.603,365.895 281.937,358.395 289.5,351C 290.744,350.544 291.577,351.044 292,352.5C 302.009,340.041 312.842,328.207 324.5,317C 325.744,316.544 326.577,317.044 327,318.5C 337.576,305.897 348.742,293.73 360.5,282C 361.744,281.544 362.577,282.044 363,283.5C 366.333,280.167 369.667,276.833 373,273.5C 375.083,269.743 377.583,266.243 380.5,263C 377.305,262.819 374.305,262.319 371.5,261.5 Z"/></g>
<g><path style="opacity:1" fill="#d9cfea" d="M 344.5,263.5 C 347.187,263.336 349.854,263.503 352.5,264C 336.33,278.503 321.164,294.003 307,310.5C 306.667,309.833 306.333,309.167 306,308.5C 289.274,325.738 272.44,342.071 255.5,357.5C 255.5,349.5 255.5,341.5 255.5,333.5C 264.162,325.672 272.328,317.338 280,308.5C 280.333,309.167 280.667,309.833 281,310.5C 292.333,298.5 303.667,286.5 315,274.5C 315.333,275.167 315.667,275.833 316,276.5C 318.872,273.963 321.372,271.13 323.5,268C 322.207,267.51 320.873,267.343 319.5,267.5C 327.555,265.214 335.888,263.881 344.5,263.5 Z"/></g>
<g><path style="opacity:0.998" fill="#f3e9fb" d="M 399.5,262.5 C 431.539,265.01 462.206,272.843 491.5,286C 493.041,287.371 494.375,288.871 495.5,290.5C 447.328,327.329 400.161,363.995 354,400.5C 353.333,399.833 353.333,399.167 354,398.5C 357,395.5 360,392.5 363,389.5C 363.667,388.833 363.667,388.167 363,387.5C 353.22,395.923 344.72,405.423 337.5,416C 334.319,418.092 331.319,420.425 328.5,423C 323.832,423.015 320.165,425.182 317.5,429.5C 296.125,434.014 275.625,441.014 256,450.5C 255.501,446.179 255.334,441.846 255.5,437.5C 269.338,426.499 283.338,415.666 297.5,405C 294.664,401.333 291.664,397.833 288.5,394.5C 290.963,392.539 293.297,390.372 295.5,388C 294.833,387.667 294.167,387.333 293.5,387C 301.49,380.406 307.657,372.906 312,364.5C 323.666,354.854 334.999,344.187 346,332.5C 349.131,328.367 352.631,324.534 356.5,321C 355.833,320.667 355.167,320.333 354.5,320C 360.5,314 366.5,308 372.5,302C 371.833,301.667 371.167,301.333 370.5,301C 373.667,297.833 376.833,294.667 380,291.5C 385.177,282.545 392.01,274.378 400.5,267C 399.833,266.667 399.167,266.333 398.5,266C 400.373,265.047 400.706,263.88 399.5,262.5 Z"/></g>
<g><path style="opacity:1" fill="#d1c6e4" d="M 319.5,267.5 C 320.873,267.343 322.207,267.51 323.5,268C 321.372,271.13 318.872,273.963 316,276.5C 315.667,275.833 315.333,275.167 315,274.5C 303.667,286.5 292.333,298.5 281,310.5C 280.667,309.833 280.333,309.167 280,308.5C 272.328,317.338 264.162,325.672 255.5,333.5C 255.334,327.824 255.501,322.157 256,316.5C 256.667,315.167 257.333,315.167 258,316.5C 267.667,306.833 277.333,297.167 287,287.5C 289.287,282.194 292.787,277.694 297.5,274C 296.906,273.536 296.239,273.369 295.5,273.5C 295.5,272.833 295.833,272.5 296.5,272.5C 304.063,270.359 311.73,268.693 319.5,267.5 Z"/></g>
<g><path style="opacity:0.999" fill="#f5f0fa" d="M 203.5,269.5 C 206.37,270.634 209.37,271.3 212.5,271.5C 210.631,277.108 208.964,282.775 207.5,288.5C 204.778,293.668 202.444,299.001 200.5,304.5C 195.54,303.375 190.54,302.375 185.5,301.5C 184.228,301.57 183.062,301.903 182,302.5C 181.333,306.5 181.333,310.5 182,314.5C 185.467,316.765 189.3,318.099 193.5,318.5C 190.23,323.44 186.23,327.773 181.5,331.5C 174.231,330.013 166.898,329.513 159.5,330C 158.371,334.079 158.204,338.245 159,342.5C 161.542,344.182 164.375,345.182 167.5,345.5C 163.108,350.894 158.108,355.561 152.5,359.5C 144.826,359.334 137.159,359.5 129.5,360C 129,360.5 128.5,361 128,361.5C 124.485,371.805 127.985,376.138 138.5,374.5C 133.167,380.167 127.833,385.833 122.5,391.5C 109.262,391.818 96.2621,393.651 83.5,397C 83,397.5 82.5,398 82,398.5C 81.2039,402.755 81.3705,406.921 82.5,411C 87.5004,410.837 92.5004,410.337 97.5,409.5C 99.5273,409.338 101.527,409.505 103.5,410C 97.6304,415.702 91.9638,421.535 86.5,427.5C 67.8029,431.091 49.4695,436.091 31.5,442.5C 38.2251,435.779 44.5585,428.779 50.5,421.5C 57.963,419.514 65.1296,416.847 72,413.5C 72.7625,409.413 72.5958,405.413 71.5,401.5C 77.1803,394.799 83.1803,388.299 89.5,382C 88.4366,380.812 87.1033,380.312 85.5,380.5C 89.9301,378.925 94.5968,377.758 99.5,377C 105.204,376.633 110.87,375.966 116.5,375C 117,374.5 117.5,374 118,373.5C 118.667,369.5 118.667,365.5 118,361.5C 115.619,360.565 113.119,360.232 110.5,360.5C 112.113,357.714 113.946,355.047 116,352.5C 119.312,350.355 122.146,347.688 124.5,344.5C 122.604,343.534 120.604,343.201 118.5,343.5C 127.991,342.67 137.658,342.17 147.5,342C 148.629,337.921 148.796,333.755 148,329.5C 145.865,327.722 143.365,327.055 140.5,327.5C 144.917,322.907 149.25,318.074 153.5,313C 152.263,312.768 151.263,312.268 150.5,311.5C 157.132,312.663 163.798,313.163 170.5,313C 171.632,308.587 171.799,304.087 171,299.5C 169.698,298.915 168.531,298.249 167.5,297.5C 171.737,294.772 175.571,291.439 179,287.5C 179.333,288.167 179.667,288.833 180,289.5C 181,286.833 182,286.833 183,289.5C 190.338,283.329 197.171,276.662 203.5,269.5 Z"/></g>
<g><path style="opacity:1" fill="#fdd4a5" d="M 257.5,258.5 C 258.737,259.965 259.737,261.632 260.5,263.5C 260.693,267.566 260.36,271.566 259.5,275.5C 258.833,276.5 258.167,277.5 257.5,278.5C 249.137,284.312 241.137,291.479 233.5,300C 233.728,300.399 234.062,300.565 234.5,300.5C 231.203,302.601 227.537,303.935 223.5,304.5C 220.908,300.568 217.908,296.901 214.5,293.5C 217.426,290.683 220.426,287.849 223.5,285C 224.448,284.517 225.448,284.351 226.5,284.5C 226.5,283.5 226.5,282.5 226.5,281.5C 228.783,281.392 230.783,280.559 232.5,279C 235.274,275.038 238.941,272.538 243.5,271.5C 243.5,270.5 243.5,269.5 243.5,268.5C 244.552,268.649 245.552,268.483 246.5,268C 250.198,264.826 253.865,261.659 257.5,258.5 Z"/></g>
<g><path style="opacity:1" fill="#fcc694" d="M 271.5,275.5 C 274.162,276.499 276.828,277.499 279.5,278.5C 280.864,280.191 282.197,281.858 283.5,283.5C 278.511,285.497 273.511,287.497 268.5,289.5C 260.874,291.595 253.541,294.262 246.5,297.5C 242.5,298.5 238.5,299.5 234.5,300.5C 234.062,300.565 233.728,300.399 233.5,300C 241.137,291.479 249.137,284.312 257.5,278.5C 261.738,275.91 266.405,274.91 271.5,275.5 Z"/></g>
<g><path style="opacity:1" fill="#fbfbfd" d="M 91.5,299.5 C 80.4447,302.013 69.4447,304.846 58.5,308C 54.9382,308.739 51.7716,310.239 49,312.5C 48.2009,317.087 48.3676,321.587 49.5,326C 50.8333,326.667 52.1667,326.667 53.5,326C 60.2993,323.122 67.2993,320.955 74.5,319.5C 74.9382,319.435 75.2716,319.601 75.5,320C 71.5,322.667 67.5,325.333 63.5,328C 64.1667,328.333 64.8333,328.667 65.5,329C 64.1667,330 62.8333,331 61.5,332C 62.1667,332.333 62.8333,332.667 63.5,333C 59.8901,334.944 56.5568,337.277 53.5,340C 54.056,340.383 54.3893,340.883 54.5,341.5C 51.3918,341.375 49.3918,342.708 48.5,345.5C 47.2573,348.836 44.924,351.336 41.5,353C 42.1667,353.333 42.8333,353.667 43.5,354C 40.9906,355.421 38.6572,357.088 36.5,359C 37.1667,359.333 37.8333,359.667 38.5,360C 37.0337,360.635 35.7003,361.469 34.5,362.5C 33.2798,361.289 32.1131,361.289 31,362.5C 29.6256,347.188 29.2923,331.854 30,316.5C 32.238,309.93 36.738,305.763 43.5,304C 61.203,296.744 79.203,292.077 97.5,290C 98.5,291 99.5,292 100.5,293C 97.079,294.699 94.079,296.865 91.5,299.5 Z"/></g>
<g><path style="opacity:0.998" fill="#f2e4fb" d="M 495.5,290.5 C 496.09,291.766 496.59,293.099 497,294.5C 497.5,301.826 497.666,309.159 497.5,316.5C 496.51,322.645 496.177,328.978 496.5,335.5C 459.376,364.118 422.376,392.952 385.5,422C 362.709,422.98 340.042,425.48 317.5,429.5C 320.165,425.182 323.832,423.015 328.5,423C 331.319,420.425 334.319,418.092 337.5,416C 344.72,405.423 353.22,395.923 363,387.5C 363.667,388.167 363.667,388.833 363,389.5C 360,392.5 357,395.5 354,398.5C 353.333,399.167 353.333,399.833 354,400.5C 400.161,363.995 447.328,327.329 495.5,290.5 Z"/></g>
<g><path style="opacity:1" fill="#bfc4d3" d="M 167.5,297.5 C 168.531,298.249 169.698,298.915 171,299.5C 171.799,304.087 171.632,308.587 170.5,313C 163.798,313.163 157.132,312.663 150.5,311.5C 143.492,311.666 136.492,311.5 129.5,311C 127.301,306.476 126.968,301.809 128.5,297C 141.514,296.339 154.514,296.506 167.5,297.5 Z"/></g>
<g><path style="opacity:1" fill="#bfc4d2" d="M 74.5,319.5 C 67.2993,320.955 60.2993,323.122 53.5,326C 52.1667,326.667 50.8333,326.667 49.5,326C 48.3676,321.587 48.2009,317.087 49,312.5C 51.7716,310.239 54.9382,308.739 58.5,308C 69.4447,304.846 80.4447,302.013 91.5,299.5C 99.8225,298.251 108.156,297.417 116.5,297C 117,297.5 117.5,298 118,298.5C 118.667,302.5 118.667,306.5 118,310.5C 103.231,312.628 88.7305,315.628 74.5,319.5 Z"/></g>
<g><path style="opacity:1" fill="#797e8d" d="M 207.5,288.5 C 208.29,289.401 209.29,290.068 210.5,290.5C 211.795,291.488 213.128,292.488 214.5,293.5C 217.908,296.901 220.908,300.568 223.5,304.5C 223.389,305.117 223.056,305.617 222.5,306C 216.667,307.556 211,309.389 205.5,311.5C 201.907,310.57 200.241,308.237 200.5,304.5C 202.444,299.001 204.778,293.668 207.5,288.5 Z"/></g>
<g><path style="opacity:1" fill="#b7a9d2" d="M 246.5,297.5 C 246.938,297.435 247.272,297.601 247.5,298C 245.833,299.667 244.167,301.333 242.5,303C 234.609,310.396 226.609,317.563 218.5,324.5C 217.167,323.5 215.833,322.5 214.5,321.5C 211.5,318.167 208.5,314.833 205.5,311.5C 211,309.389 216.667,307.556 222.5,306C 223.056,305.617 223.389,305.117 223.5,304.5C 227.537,303.935 231.203,302.601 234.5,300.5C 238.5,299.5 242.5,298.5 246.5,297.5 Z"/></g>
<g><path style="opacity:1" fill="#bec3d2" d="M 200.5,304.5 C 200.241,308.237 201.907,310.57 205.5,311.5C 208.5,314.833 211.5,318.167 214.5,321.5C 213.469,322.355 212.303,323.022 211,323.5C 205.181,321.667 199.348,320.001 193.5,318.5C 189.3,318.099 185.467,316.765 182,314.5C 181.333,310.5 181.333,306.5 182,302.5C 183.062,301.903 184.228,301.57 185.5,301.5C 190.54,302.375 195.54,303.375 200.5,304.5 Z"/></g>
<g><path style="opacity:1" fill="#c6b7dd" d="M 268.5,289.5 C 269.239,289.369 269.906,289.536 270.5,290C 265.366,294.133 260.532,298.633 256,303.5C 255.667,307.5 255.333,311.5 255,315.5C 247.995,323.671 240.495,331.338 232.5,338.5C 229.167,335.5 225.833,332.5 222.5,329.5C 221.167,327.833 219.833,326.167 218.5,324.5C 226.609,317.563 234.609,310.396 242.5,303C 244.167,301.333 245.833,299.667 247.5,298C 247.272,297.601 246.938,297.435 246.5,297.5C 253.541,294.262 260.874,291.595 268.5,289.5 Z"/></g>
<g><path style="opacity:0.987" fill="#fb4527" d="M 497.5,316.5 C 504.007,317.407 508.674,320.74 511.5,326.5C 511.5,340.833 511.5,355.167 511.5,369.5C 506.833,373.833 502.167,378.167 497.5,382.5C 497.5,360.5 497.5,338.5 497.5,316.5 Z"/></g>
<g><path style="opacity:0.998" fill="#fe6f43" d="M 13.5,316.5 C 13.1678,365.67 13.5012,414.67 14.5,463.5C 16.6304,471.092 21.6304,473.926 29.5,472C 30.745,471.209 32.0783,470.709 33.5,470.5C 30.8333,473.5 28.1667,476.5 25.5,479.5C 22.0664,480.447 18.733,481.614 15.5,483C 8.38912,484.938 3.05579,482.771 -0.5,476.5C -0.5,426.5 -0.5,376.5 -0.5,326.5C 2.3263,320.74 6.99297,317.407 13.5,316.5 Z"/></g>
<g><path style="opacity:1" fill="#f3e9fb" d="M 193.5,318.5 C 199.348,320.001 205.181,321.667 211,323.5C 212.303,323.022 213.469,322.355 214.5,321.5C 215.833,322.5 217.167,323.5 218.5,324.5C 219.833,326.167 221.167,327.833 222.5,329.5C 220.167,333.833 216.833,337.167 212.5,339.5C 202.014,336.963 191.681,334.296 181.5,331.5C 186.23,327.773 190.23,323.44 193.5,318.5 Z"/></g>
<g><path style="opacity:1" fill="#cfc0e4" d="M 295.5,273.5 C 296.239,273.369 296.906,273.536 297.5,274C 292.787,277.694 289.287,282.194 287,287.5C 277.333,297.167 267.667,306.833 258,316.5C 257.333,315.167 256.667,315.167 256,316.5C 255.501,322.157 255.334,327.824 255.5,333.5C 255.5,341.5 255.5,349.5 255.5,357.5C 255.5,358.833 255.5,360.167 255.5,361.5C 252.5,358.833 249.5,356.167 246.5,353.5C 241.833,348.5 237.167,343.5 232.5,338.5C 240.495,331.338 247.995,323.671 255,315.5C 255.333,311.5 255.667,307.5 256,303.5C 260.532,298.633 265.366,294.133 270.5,290C 269.906,289.536 269.239,289.369 268.5,289.5C 273.511,287.497 278.511,285.497 283.5,283.5C 287.227,279.767 291.227,276.434 295.5,273.5 Z"/></g>
<g><path style="opacity:1" fill="#bfc3d2" d="M 140.5,327.5 C 143.365,327.055 145.865,327.722 148,329.5C 148.796,333.755 148.629,337.921 147.5,342C 137.658,342.17 127.991,342.67 118.5,343.5C 107.177,344.144 96.0104,345.811 85,348.5C 83.7387,348.241 82.7387,347.574 82,346.5C 81.3333,342.5 81.3333,338.5 82,334.5C 101.005,329.087 120.505,326.754 140.5,327.5 Z"/></g>
<g><path style="opacity:1" fill="#bfc3d2" d="M 181.5,331.5 C 191.681,334.296 202.014,336.963 212.5,339.5C 218.51,354.488 214.177,358.488 199.5,351.5C 189.034,348.481 178.368,346.481 167.5,345.5C 164.375,345.182 161.542,344.182 159,342.5C 158.204,338.245 158.371,334.079 159.5,330C 166.898,329.513 174.231,330.013 181.5,331.5 Z"/></g>
<g><path style="opacity:1" fill="#efdcfa" d="M 496.5,335.5 C 496.667,369.835 496.5,404.168 496,438.5C 492.565,443.794 487.732,445.627 481.5,444C 478.256,443.03 475.09,441.863 472,440.5C 470.739,440.759 469.739,441.426 469,442.5C 467.111,441.903 465.278,441.569 463.5,441.5C 461.622,442.642 459.788,443.642 458,444.5C 456.602,443.949 455.268,443.616 454,443.5C 453.333,444.167 452.667,444.833 452,445.5C 450.602,444.949 449.268,444.616 448,444.5C 446.887,446.8 445.387,447.133 443.5,445.5C 440.982,446.814 438.316,447.647 435.5,448C 452.276,452.646 468.943,457.813 485.5,463.5C 490.465,463.369 493.965,461.036 496,456.5C 496.497,458.81 496.663,461.143 496.5,463.5C 495.467,469.538 491.8,472.538 485.5,472.5C 474.227,468.965 462.894,465.631 451.5,462.5C 418.589,452.965 384.922,449.632 350.5,452.5C 337.424,454.154 324.424,456.321 311.5,459C 295.108,463.743 278.774,468.576 262.5,473.5C 256.499,474.736 250.499,474.569 244.5,473C 217.744,462.561 190.077,456.061 161.5,453.5C 117.581,448.704 74.9141,454.371 33.5,470.5C 32.0783,470.709 30.745,471.209 29.5,472C 21.6304,473.926 16.6304,471.092 14.5,463.5C 14.5,458.833 14.5,454.167 14.5,449.5C 16.8387,453.825 20.5053,456.158 25.5,456.5C 30.5747,455.031 35.5747,453.364 40.5,451.5C 40.9169,452.124 41.5836,452.457 42.5,452.5C 87.8355,444.449 132.835,436.116 177.5,427.5C 176.471,427.704 175.471,427.204 174.5,426C 198.702,401.965 222.702,377.799 246.5,353.5C 249.5,356.167 252.5,358.833 255.5,361.5C 255.5,361.833 255.5,362.167 255.5,362.5C 255.5,387.5 255.5,412.5 255.5,437.5C 255.334,441.846 255.501,446.179 256,450.5C 275.625,441.014 296.125,434.014 317.5,429.5C 340.042,425.48 362.709,422.98 385.5,422C 422.376,392.952 459.376,364.118 496.5,335.5 Z"/></g>
<g><path style="opacity:1" fill="#bfc4d3" d="M 48.5,345.5 C 49.3918,342.708 51.3918,341.375 54.5,341.5C 59.8353,338.414 65.502,337.414 71.5,338.5C 72.5999,342.442 72.7666,346.442 72,350.5C 64.9005,354.089 57.4005,356.256 49.5,357C 48.5399,353.27 48.2065,349.437 48.5,345.5 Z"/></g>
<g><path style="opacity:1" fill="#f3eafb" d="M 167.5,345.5 C 178.368,346.481 189.034,348.481 199.5,351.5C 199.611,352.117 199.944,352.617 200.5,353C 196.833,356.667 193.167,360.333 189.5,364C 188.552,364.483 187.552,364.649 186.5,364.5C 175.104,362.433 163.77,360.766 152.5,359.5C 158.108,355.561 163.108,350.894 167.5,345.5 Z"/></g>
<g><path style="opacity:1" fill="#bfc3d2" d="M 152.5,359.5 C 163.77,360.766 175.104,362.433 186.5,364.5C 195.422,366.817 204.422,369.317 213.5,372C 214.629,376.079 214.796,380.245 214,384.5C 213.044,385.894 211.711,386.561 210,386.5C 199.292,383.281 188.459,380.615 177.5,378.5C 164.601,376.229 151.601,374.896 138.5,374.5C 127.985,376.138 124.485,371.805 128,361.5C 128.5,361 129,360.5 129.5,360C 137.159,359.5 144.826,359.334 152.5,359.5 Z"/></g>
<g><path style="opacity:1" fill="#bfc3d2" d="M 110.5,360.5 C 113.119,360.232 115.619,360.565 118,361.5C 118.667,365.5 118.667,369.5 118,373.5C 117.5,374 117,374.5 116.5,375C 110.87,375.966 105.204,376.633 99.5,377C 94.5968,377.758 89.9301,378.925 85.5,380.5C 74.0068,382.735 62.6735,385.735 51.5,389.5C 50.5581,389.392 49.7247,389.059 49,388.5C 48.3333,384.167 48.3333,379.833 49,375.5C 68.7189,367.612 89.2189,362.612 110.5,360.5 Z"/></g>
<g><path style="opacity:1" fill="#f3e9fb" d="M 138.5,374.5 C 151.601,374.896 164.601,376.229 177.5,378.5C 173.167,383.167 168.833,387.833 164.5,392.5C 150.512,391.767 136.512,391.434 122.5,391.5C 127.833,385.833 133.167,380.167 138.5,374.5 Z"/></g>
<g><path style="opacity:1" fill="#f1e2fb" d="M 222.5,329.5 C 225.833,332.5 229.167,335.5 232.5,338.5C 237.167,343.5 241.833,348.5 246.5,353.5C 222.702,377.799 198.702,401.965 174.5,426C 175.471,427.204 176.471,427.704 177.5,427.5C 132.835,436.116 87.8355,444.449 42.5,452.5C 41.5836,452.457 40.9169,452.124 40.5,451.5C 51.4904,447.892 62.4904,444.392 73.5,441C 68.4512,440.743 63.4512,440.243 58.5,439.5C 49.341,442.535 40.341,443.868 31.5,443.5C 31.5,443.167 31.5,442.833 31.5,442.5C 49.4695,436.091 67.8029,431.091 86.5,427.5C 102.354,425.123 118.021,423.623 133.5,423C 138.5,418 143.5,413 148.5,408C 150.473,407.505 152.473,407.338 154.5,407.5C 160.078,408.228 165.578,408.228 171,407.5C 171.667,403.167 171.667,398.833 171,394.5C 168.723,393.883 166.556,393.216 164.5,392.5C 168.833,387.833 173.167,383.167 177.5,378.5C 188.459,380.615 199.292,383.281 210,386.5C 211.711,386.561 213.044,385.894 214,384.5C 214.796,380.245 214.629,376.079 213.5,372C 204.422,369.317 195.422,366.817 186.5,364.5C 187.552,364.649 188.552,364.483 189.5,364C 193.167,360.333 196.833,356.667 200.5,353C 199.944,352.617 199.611,352.117 199.5,351.5C 214.177,358.488 218.51,354.488 212.5,339.5C 216.833,337.167 220.167,333.833 222.5,329.5 Z"/></g>
<g><path style="opacity:1" fill="#f6f1fb" d="M 255.5,362.5 C 259.5,366.167 263.5,369.833 267.5,373.5C 274.167,380.833 281.167,387.833 288.5,394.5C 291.664,397.833 294.664,401.333 297.5,405C 283.338,415.666 269.338,426.499 255.5,437.5C 255.5,412.5 255.5,387.5 255.5,362.5 Z"/></g>
<g><path style="opacity:1" fill="#bec3d2" d="M 122.5,391.5 C 136.512,391.434 150.512,391.767 164.5,392.5C 166.556,393.216 168.723,393.883 171,394.5C 171.667,398.833 171.667,403.167 171,407.5C 165.578,408.228 160.078,408.228 154.5,407.5C 141.673,406.34 128.673,406.173 115.5,407C 109.279,407.271 103.279,408.104 97.5,409.5C 92.5004,410.337 87.5004,410.837 82.5,411C 81.3705,406.921 81.2039,402.755 82,398.5C 82.5,398 83,397.5 83.5,397C 96.2621,393.651 109.262,391.818 122.5,391.5 Z"/></g>
<g><path style="opacity:1" fill="#bfc4d3" d="M 71.5,401.5 C 72.5958,405.413 72.7625,409.413 72,413.5C 65.1296,416.847 57.963,419.514 50.5,421.5C 49.8826,421.389 49.3826,421.056 49,420.5C 48.3333,416.167 48.3333,411.833 49,407.5C 55.9541,403.055 63.4541,401.055 71.5,401.5 Z"/></g>
<g><path style="opacity:1" fill="#fa3c21" d="M 511.5,369.5 C 511.5,405.167 511.5,440.833 511.5,476.5C 508.606,482.024 503.939,484.69 497.5,484.5C 481.389,478.001 464.722,473.001 447.5,469.5C 447.082,468.778 446.416,468.278 445.5,468C 447.37,465.96 449.37,464.127 451.5,462.5C 462.894,465.631 474.227,468.965 485.5,472.5C 491.8,472.538 495.467,469.538 496.5,463.5C 497.498,436.672 497.831,409.672 497.5,382.5C 502.167,378.167 506.833,373.833 511.5,369.5 Z"/></g>
<g><path style="opacity:1" fill="#f4e9fb" d="M 154.5,407.5 C 152.473,407.338 150.473,407.505 148.5,408C 143.5,413 138.5,418 133.5,423C 118.021,423.623 102.354,425.123 86.5,427.5C 91.9638,421.535 97.6304,415.702 103.5,410C 101.527,409.505 99.5273,409.338 97.5,409.5C 103.279,408.104 109.279,407.271 115.5,407C 128.673,406.173 141.673,406.34 154.5,407.5 Z"/></g>
<g><path style="opacity:1" fill="#dbc1e2" d="M 497.5,316.5 C 497.5,338.5 497.5,360.5 497.5,382.5C 497.831,409.672 497.498,436.672 496.5,463.5C 496.663,461.143 496.497,458.81 496,456.5C 493.965,461.036 490.465,463.369 485.5,463.5C 468.943,457.813 452.276,452.646 435.5,448C 438.316,447.647 440.982,446.814 443.5,445.5C 445.387,447.133 446.887,446.8 448,444.5C 449.268,444.616 450.602,444.949 452,445.5C 452.667,444.833 453.333,444.167 454,443.5C 455.268,443.616 456.602,443.949 458,444.5C 459.788,443.642 461.622,442.642 463.5,441.5C 465.278,441.569 467.111,441.903 469,442.5C 469.739,441.426 470.739,440.759 472,440.5C 475.09,441.863 478.256,443.03 481.5,444C 487.732,445.627 492.565,443.794 496,438.5C 496.5,404.168 496.667,369.835 496.5,335.5C 496.177,328.978 496.51,322.645 497.5,316.5 Z"/></g>
<g><path style="opacity:1" fill="#ddcdee" d="M 31.5,443.5 C 40.341,443.868 49.341,442.535 58.5,439.5C 63.4512,440.243 68.4512,440.743 73.5,441C 62.4904,444.392 51.4904,447.892 40.5,451.5C 35.5747,453.364 30.5747,455.031 25.5,456.5C 20.5053,456.158 16.8387,453.825 14.5,449.5C 14.3345,445.486 14.5012,441.486 15,437.5C 18.4991,444.408 23.9991,446.408 31.5,443.5 Z"/></g>
<g><path style="opacity:1" fill="#fd653e" d="M 161.5,453.5 C 158.036,456.462 154.703,459.629 151.5,463C 150.552,463.483 149.552,463.649 148.5,463.5C 147.5,463.5 146.5,463.5 145.5,463.5C 104.657,461.36 64.6565,466.694 25.5,479.5C 28.1667,476.5 30.8333,473.5 33.5,470.5C 74.9141,454.371 117.581,448.704 161.5,453.5 Z"/></g>
<g><path style="opacity:1" fill="#fb4f2e" d="M 350.5,452.5 C 346.062,456.436 341.729,460.602 337.5,465C 338.056,465.383 338.389,465.883 338.5,466.5C 315.617,469.053 293.617,474.72 272.5,483.5C 269.089,484.36 265.756,485.526 262.5,487C 257.648,487.815 252.981,487.648 248.5,486.5C 253.774,482.895 258.441,478.562 262.5,473.5C 278.774,468.576 295.108,463.743 311.5,459C 324.424,456.321 337.424,454.154 350.5,452.5 Z"/></g>
<g><path style="opacity:1" fill="#fa4327" d="M 451.5,462.5 C 449.37,464.127 447.37,465.96 445.5,468C 446.416,468.278 447.082,468.778 447.5,469.5C 411.343,462.696 375.01,461.696 338.5,466.5C 338.389,465.883 338.056,465.383 337.5,465C 341.729,460.602 346.062,456.436 350.5,452.5C 384.922,449.632 418.589,452.965 451.5,462.5 Z"/></g>
<g><path style="opacity:0.999" fill="#f75433" d="M 145.5,463.5 C 135.739,465.463 126.073,467.629 116.5,470C 116.043,470.414 115.709,470.914 115.5,471.5C 112.103,472.172 108.77,473.005 105.5,474C 106.167,474.333 106.833,474.667 107.5,475C 106.101,475.595 104.768,475.428 103.5,474.5C 102.304,474.846 102.304,475.346 103.5,476C 100.424,476.346 97.4245,477.012 94.5,478C 93.1667,478.667 93.1667,479.333 94.5,480C 87.5087,482.862 80.1753,484.528 72.5,485C 72.1667,485.333 71.8333,485.667 71.5,486C 72.6667,486.167 73.8333,486.333 75,486.5C 78.4843,485.667 81.9843,485.501 85.5,486C 79.8511,487.081 74.1844,488.081 68.5,489C 68.1667,489.333 67.8333,489.667 67.5,490C 68.7932,490.49 70.1266,490.657 71.5,490.5C 51.1276,495.007 30.9609,500.674 11,507.5C 5.90754,507.045 2.07421,504.712 -0.5,500.5C -0.5,492.5 -0.5,484.5 -0.5,476.5C 3.05579,482.771 8.38912,484.938 15.5,483C 18.733,481.614 22.0664,480.447 25.5,479.5C 64.6565,466.694 104.657,461.36 145.5,463.5 Z"/></g>
<g><path style="opacity:0.998" fill="#ea3523" d="M 447.5,469.5 C 464.722,473.001 481.389,478.001 497.5,484.5C 493.162,485.783 488.829,486.783 484.5,487.5C 483.808,486.975 483.308,486.308 483,485.5C 480.214,487.662 477.214,488.329 474,487.5C 472.441,488.029 470.941,488.696 469.5,489.5C 468.808,488.975 468.308,488.308 468,487.5C 465.876,488.622 464.043,490.122 462.5,492C 459.756,491.009 457.089,491.343 454.5,493C 455.416,493.278 456.082,493.778 456.5,494.5C 416.152,485.087 375.485,483.421 334.5,489.5C 334.53,488.503 334.03,487.836 333,487.5C 328.542,488.662 324.042,489.162 319.5,489C 320.328,488.085 321.328,487.419 322.5,487C 328.035,486.641 333.368,485.641 338.5,484C 333.198,484.495 327.864,484.828 322.5,485C 325.689,484.019 326.022,482.686 323.5,481C 326.345,480.462 329.012,479.462 331.5,478C 326.42,477.606 321.42,478.106 316.5,479.5C 315.167,478.833 313.833,478.167 312.5,477.5C 308.344,478.41 304.177,479.41 300,480.5C 299.127,480.265 298.293,479.931 297.5,479.5C 293.344,480.41 289.177,481.41 285,482.5C 281.674,481.76 278.507,482.427 275.5,484.5C 274.583,483.873 273.583,483.539 272.5,483.5C 293.617,474.72 315.617,469.053 338.5,466.5C 375.01,461.696 411.343,462.696 447.5,469.5 Z"/></g>
<g><path style="opacity:1" fill="#f54a2d" d="M 145.5,463.5 C 146.5,463.5 147.5,463.5 148.5,463.5C 172.011,465.128 195.011,469.461 217.5,476.5C 215.848,477.807 214.182,477.807 212.5,476.5C 209.937,476.737 209.937,477.237 212.5,478C 204.571,479.862 196.571,481.528 188.5,483C 185.015,485.843 181.348,488.01 177.5,489.5C 160.901,487.425 144.234,486.092 127.5,485.5C 108.729,486.111 90.0621,487.777 71.5,490.5C 70.1266,490.657 68.7932,490.49 67.5,490C 67.8333,489.667 68.1667,489.333 68.5,489C 74.1844,488.081 79.8511,487.081 85.5,486C 81.9843,485.501 78.4843,485.667 75,486.5C 73.8333,486.333 72.6667,486.167 71.5,486C 71.8333,485.667 72.1667,485.333 72.5,485C 80.1753,484.528 87.5087,482.862 94.5,480C 93.1667,479.333 93.1667,478.667 94.5,478C 97.4245,477.012 100.424,476.346 103.5,476C 102.304,475.346 102.304,474.846 103.5,474.5C 104.768,475.428 106.101,475.595 107.5,475C 106.833,474.667 106.167,474.333 105.5,474C 108.77,473.005 112.103,472.172 115.5,471.5C 115.709,470.914 116.043,470.414 116.5,470C 126.073,467.629 135.739,465.463 145.5,463.5 Z"/></g>
<g><path style="opacity:1" fill="#fc5633" d="M 161.5,453.5 C 190.077,456.061 217.744,462.561 244.5,473C 250.499,474.569 256.499,474.736 262.5,473.5C 258.441,478.562 253.774,482.895 248.5,486.5C 238.313,482.771 227.98,479.438 217.5,476.5C 195.011,469.461 172.011,465.128 148.5,463.5C 149.552,463.649 150.552,463.483 151.5,463C 154.703,459.629 158.036,456.462 161.5,453.5 Z"/></g>
<g><path style="opacity:0.998" fill="#ec3b27" d="M 217.5,476.5 C 227.98,479.438 238.313,482.771 248.5,486.5C 252.981,487.648 257.648,487.815 262.5,487C 265.756,485.526 269.089,484.36 272.5,483.5C 273.583,483.539 274.583,483.873 275.5,484.5C 278.507,482.427 281.674,481.76 285,482.5C 289.177,481.41 293.344,480.41 297.5,479.5C 298.293,479.931 299.127,480.265 300,480.5C 304.177,479.41 308.344,478.41 312.5,477.5C 313.833,478.167 315.167,478.833 316.5,479.5C 321.42,478.106 326.42,477.606 331.5,478C 329.012,479.462 326.345,480.462 323.5,481C 326.022,482.686 325.689,484.019 322.5,485C 327.864,484.828 333.198,484.495 338.5,484C 333.368,485.641 328.035,486.641 322.5,487C 321.328,487.419 320.328,488.085 319.5,489C 324.042,489.162 328.542,488.662 333,487.5C 334.03,487.836 334.53,488.503 334.5,489.5C 309.823,493.837 285.823,500.67 262.5,510C 257.833,510.667 253.167,510.667 248.5,510C 225.387,500.81 201.72,493.976 177.5,489.5C 181.348,488.01 185.015,485.843 188.5,483C 196.571,481.528 204.571,479.862 212.5,478C 209.937,477.237 209.937,476.737 212.5,476.5C 214.182,477.807 215.848,477.807 217.5,476.5 Z"/></g>
<g><path style="opacity:0.999" fill="#dd2c23" d="M 511.5,476.5 C 511.5,484.5 511.5,492.5 511.5,500.5C 508.926,504.712 505.092,507.045 500,507.5C 485.645,502.659 471.145,498.326 456.5,494.5C 456.082,493.778 455.416,493.278 454.5,493C 457.089,491.343 459.756,491.009 462.5,492C 464.043,490.122 465.876,488.622 468,487.5C 468.308,488.308 468.808,488.975 469.5,489.5C 470.941,488.696 472.441,488.029 474,487.5C 477.214,488.329 480.214,487.662 483,485.5C 483.308,486.308 483.808,486.975 484.5,487.5C 488.829,486.783 493.162,485.783 497.5,484.5C 503.939,484.69 508.606,482.024 511.5,476.5 Z"/></g>
</svg>
