<?xml version="1.0" standalone="no"?>
<!DOCTYPE svg PUBLIC "-//W3C//DTD SVG 20010904//EN"
 "http://www.w3.org/TR/2001/REC-SVG-20010904/DTD/svg10.dtd">
<svg version="1.0" xmlns="http://www.w3.org/2000/svg"
 width="43.000000pt" height="39.000000pt" viewBox="0 0 43.000000 39.000000"
 preserveAspectRatio="xMidYMid meet">

<g transform="translate(0.000000,39.000000) scale(0.100000,-0.100000)"
fill="#000000" stroke="none">
<path d="M136 375 c-76 -27 -136 -106 -136 -178 0 -103 103 -197 215 -197 80
0 173 58 202 127 25 62 9 146 -35 187 -20 17 -21 17 -31 -2 -8 -15 -7 -29 4
-56 45 -108 -25 -216 -141 -216 -184 0 -211 248 -33 301 32 10 46 9 85 -6 39
-15 48 -15 55 -4 13 22 5 33 -32 46 -45 16 -105 15 -153 -2z"/>
<path d="M150 317 c-57 -30 -83 -76 -77 -141 4 -43 10 -55 45 -88 38 -35 46
-38 97 -38 51 0 59 3 98 39 40 38 42 42 42 100 0 40 -5 65 -15 75 -13 14 -20
8 -63 -54 -26 -39 -54 -70 -62 -70 -8 0 -26 20 -40 43 -42 73 -27 110 16 40
l23 -36 25 31 c14 17 34 44 44 61 l18 31 -35 15 c-48 20 -65 19 -116 -8z"/>
</g>
</svg>
