<?xml version="1.0" encoding="UTF-8"?>
<!DOCTYPE svg PUBLIC "-//W3C//DTD SVG 1.1//EN" "http://www.w3.org/Graphics/SVG/1.1/DTD/svg11.dtd">
<svg xmlns="http://www.w3.org/2000/svg" version="1.1" width="512px" height="512px" style="shape-rendering:geometricPrecision; text-rendering:geometricPrecision; image-rendering:optimizeQuality; fill-rule:evenodd; clip-rule:evenodd" xmlns:xlink="http://www.w3.org/1999/xlink">
<g><path style="opacity:0.998" fill="#475e68" d="M 208.5,56.5 C 207.205,57.4884 205.872,58.4884 204.5,59.5C 199.956,61.0261 196.789,64.0261 195,68.5C 194.333,77.1667 194.333,85.8333 195,94.5C 197.157,96.495 199.657,97.8283 202.5,98.5C 207.5,95.8333 212.5,93.1667 217.5,90.5C 218.167,85.8333 218.833,81.1667 219.5,76.5C 244.275,90.3903 268.942,104.557 293.5,119C 297.458,122.421 300.292,126.588 302,131.5C 302.168,140.186 302.668,148.852 303.5,157.5C 305.833,158.833 308.167,160.167 310.5,161.5C 311.107,161.376 311.44,161.043 311.5,160.5C 316.52,158.238 321.353,155.572 326,152.5C 326.804,143.422 326.637,134.422 325.5,125.5C 360.999,145.079 395.999,165.413 430.5,186.5C 418.901,184.53 408.568,187.364 399.5,195C 382.977,209.194 372.81,227.028 369,248.5C 368.667,273.167 368.333,297.833 368,322.5C 326.249,298.04 284.415,273.707 242.5,249.5C 241.505,254.792 241.172,260.125 241.5,265.5C 241.824,272.354 241.491,279.021 240.5,285.5C 240.831,263.66 240.497,241.994 239.5,220.5C 227.062,212.774 214.395,205.274 201.5,198C 199.191,197.244 197.191,197.744 195.5,199.5C 194.5,221.156 194.167,242.823 194.5,264.5C 193.506,255.348 193.173,246.015 193.5,236.5C 193.807,230.907 193.473,225.407 192.5,220C 151.574,196.732 110.908,173.066 70.5,149C 68.9751,147.991 67.3084,147.491 65.5,147.5C 65.3334,122.164 65.5,96.8311 66,71.5C 70.5532,48.5362 82.0532,30.0362 100.5,16C 109.403,9.68835 119.07,8.02169 129.5,11C 155.861,26.1784 182.194,41.3451 208.5,56.5 Z"/></g>
<g><path style="opacity:1" fill="#f7d196" d="M 168.5,40.5 C 156.314,44.3639 148.981,52.6972 146.5,65.5C 143.817,65.337 142.15,64.0037 141.5,61.5C 144.777,50.0602 151.944,42.3936 163,38.5C 165.009,38.7579 166.843,39.4245 168.5,40.5 Z"/></g>
<g><path style="opacity:1" fill="#fdd497" d="M 170.5,42.5 C 171.609,42.5569 172.609,42.8902 173.5,43.5C 162.194,48.4925 155.194,57.1592 152.5,69.5C 151.167,68.8333 149.833,68.1667 148.5,67.5C 149.648,56.1874 155.314,48.0207 165.5,43C 167.134,42.5065 168.801,42.3398 170.5,42.5 Z"/></g>
<g><path style="opacity:1" fill="#fcd397" d="M 177.5,46.5 C 178.492,46.3284 179.158,46.6618 179.5,47.5C 168.649,52.6879 161.315,61.0212 157.5,72.5C 155.973,72.573 154.973,71.9063 154.5,70.5C 156.114,59.7215 161.781,51.8882 171.5,47C 173.473,46.5045 175.473,46.3379 177.5,46.5 Z"/></g>
<g><path style="opacity:1" fill="#d6ab6d" d="M 179.5,47.5 C 184.269,48.9106 187.102,51.9106 188,56.5C 178.248,62.293 168.415,67.9597 158.5,73.5C 157.893,73.3764 157.56,73.0431 157.5,72.5C 161.315,61.0212 168.649,52.6879 179.5,47.5 Z"/></g>
<g><path style="opacity:1" fill="#d9b073" d="M 173.5,43.5 C 174.872,44.5116 176.205,45.5116 177.5,46.5C 175.473,46.3379 173.473,46.5045 171.5,47C 161.781,51.8882 156.114,59.7215 154.5,70.5C 153.833,70.1667 153.167,69.8333 152.5,69.5C 155.194,57.1592 162.194,48.4925 173.5,43.5 Z"/></g>
<g><path style="opacity:0.983" fill="#dce3e6" d="M 325.5,125.5 C 326.637,134.422 326.804,143.422 326,152.5C 321.353,155.572 316.52,158.238 311.5,160.5C 310.896,150.617 310.063,140.617 309,130.5C 305.776,122.56 300.943,115.727 294.5,110C 264.785,92.3178 234.785,75.4845 204.5,59.5C 205.872,58.4884 207.205,57.4884 208.5,56.5C 214.106,51.5065 220.439,50.3399 227.5,53C 255.33,68.7474 282.997,84.7474 310.5,101C 318.46,107.431 323.46,115.597 325.5,125.5 Z"/></g>
<g><path style="opacity:1" fill="#d1ab73" d="M 168.5,40.5 C 169.5,40.8333 170.167,41.5 170.5,42.5C 168.801,42.3398 167.134,42.5065 165.5,43C 155.314,48.0207 149.648,56.1874 148.5,67.5C 147.833,66.8333 147.167,66.1667 146.5,65.5C 148.981,52.6972 156.314,44.3639 168.5,40.5 Z"/></g>
<g><path style="opacity:1" fill="#adb6ba" d="M 204.5,59.5 C 234.785,75.4845 264.785,92.3178 294.5,110C 300.943,115.727 305.776,122.56 309,130.5C 310.063,140.617 310.896,150.617 311.5,160.5C 311.44,161.043 311.107,161.376 310.5,161.5C 308.167,160.167 305.833,158.833 303.5,157.5C 302.668,148.852 302.168,140.186 302,131.5C 300.292,126.588 297.458,122.421 293.5,119C 268.942,104.557 244.275,90.3903 219.5,76.5C 219.158,75.6618 218.492,75.3284 217.5,75.5C 213.503,71.2386 209.003,70.572 204,73.5C 202.562,81.7233 202.062,90.0567 202.5,98.5C 199.657,97.8283 197.157,96.495 195,94.5C 194.333,85.8333 194.333,77.1667 195,68.5C 196.789,64.0261 199.956,61.0261 204.5,59.5 Z"/></g>
<g><path style="opacity:1" fill="#dbe2e5" d="M 217.5,75.5 C 217.5,80.5 217.5,85.5 217.5,90.5C 212.5,93.1667 207.5,95.8333 202.5,98.5C 202.062,90.0567 202.562,81.7233 204,73.5C 209.003,70.572 213.503,71.2386 217.5,75.5 Z"/></g>
<g><path style="opacity:1" fill="#73868e" d="M 217.5,75.5 C 218.492,75.3284 219.158,75.6618 219.5,76.5C 218.833,81.1667 218.167,85.8333 217.5,90.5C 217.5,85.5 217.5,80.5 217.5,75.5 Z"/></g>
<g><path style="opacity:1" fill="#3f535c" d="M 65.5,147.5 C 67.3084,147.491 68.9751,147.991 70.5,149C 110.908,173.066 151.574,196.732 192.5,220C 193.473,225.407 193.807,230.907 193.5,236.5C 151.721,212.561 110.054,188.394 68.5,164C 67.552,163.517 66.552,163.351 65.5,163.5C 65.5,158.167 65.5,152.833 65.5,147.5 Z"/></g>
<g><path style="opacity:1" fill="#f9d297" d="M 352.5,153.5 C 340.808,157.861 333.808,166.195 331.5,178.5C 328.648,178.648 326.981,177.314 326.5,174.5C 328.991,164.84 334.658,157.673 343.5,153C 346.592,152.264 349.592,152.431 352.5,153.5 Z"/></g>
<g><path style="opacity:1" fill="#fcd396" d="M 355.5,155.5 C 356.833,156.167 358.167,156.833 359.5,157.5C 347.271,161.402 339.938,169.736 337.5,182.5C 334.796,182.33 333.129,180.997 332.5,178.5C 335.344,168.148 341.678,160.648 351.5,156C 352.793,155.51 354.127,155.343 355.5,155.5 Z"/></g>
<g><path style="opacity:1" fill="#fcd396" d="M 361.5,159.5 C 363.062,159.733 364.395,160.4 365.5,161.5C 353.313,165.365 345.979,173.698 343.5,186.5C 341.938,186.267 340.605,185.6 339.5,184.5C 340.617,173.21 346.283,165.044 356.5,160C 358.134,159.506 359.801,159.34 361.5,159.5 Z"/></g>
<g><path style="opacity:1" fill="#d3ad73" d="M 352.5,153.5 C 353.71,153.932 354.71,154.599 355.5,155.5C 354.127,155.343 352.793,155.51 351.5,156C 341.678,160.648 335.344,168.148 332.5,178.5C 332.167,178.5 331.833,178.5 331.5,178.5C 333.808,166.195 340.808,157.861 352.5,153.5 Z"/></g>
<g><path style="opacity:1" fill="#d6ab6d" d="M 365.5,161.5 C 370.128,163.069 372.128,166.069 371.5,170.5C 362.39,176.289 353.057,181.622 343.5,186.5C 345.979,173.698 353.313,165.365 365.5,161.5 Z"/></g>
<g><path style="opacity:0.997" fill="#475d67" d="M 65.5,163.5 C 66.552,163.351 67.552,163.517 68.5,164C 110.054,188.394 151.721,212.561 193.5,236.5C 193.173,246.015 193.506,255.348 194.5,264.5C 207.967,272.737 221.634,280.737 235.5,288.5C 237.332,287.752 238.999,286.752 240.5,285.5C 241.491,279.021 241.824,272.354 241.5,265.5C 283.857,289.431 326.024,313.764 368,338.5C 368.5,392.832 368.667,447.166 368.5,501.5C 267.554,443.06 166.721,384.394 66,325.5C 65.5,271.501 65.3333,217.501 65.5,163.5 Z"/></g>
<g><path style="opacity:1" fill="#dbb173" d="M 359.5,157.5 C 360.5,157.833 361.167,158.5 361.5,159.5C 359.801,159.34 358.134,159.506 356.5,160C 346.283,165.044 340.617,173.21 339.5,184.5C 338.833,183.833 338.167,183.167 337.5,182.5C 339.938,169.736 347.271,161.402 359.5,157.5 Z"/></g>
<g><path style="opacity:0.995" fill="#3f535c" d="M 430.5,186.5 C 436.487,188.988 440.653,193.322 443,199.5C 444.03,203.773 444.697,208.106 445,212.5C 445.833,294.502 445.667,376.502 444.5,458.5C 419.437,473.364 394.103,487.697 368.5,501.5C 368.667,447.166 368.5,392.832 368,338.5C 326.024,313.764 283.857,289.431 241.5,265.5C 241.172,260.125 241.505,254.792 242.5,249.5C 284.415,273.707 326.249,298.04 368,322.5C 368.333,297.833 368.667,273.167 369,248.5C 372.81,227.028 382.977,209.194 399.5,195C 408.568,187.364 418.901,184.53 430.5,186.5 Z"/></g>
<g><path style="opacity:1" fill="#ced7dc" d="M 239.5,220.5 C 238.685,221.837 237.518,222.837 236,223.5C 235.5,245.164 235.333,266.831 235.5,288.5C 221.634,280.737 207.967,272.737 194.5,264.5C 194.167,242.823 194.5,221.156 195.5,199.5C 197.191,197.744 199.191,197.244 201.5,198C 214.395,205.274 227.062,212.774 239.5,220.5 Z"/></g>
<g><path style="opacity:1" fill="#afb7bb" d="M 239.5,220.5 C 240.497,241.994 240.831,263.66 240.5,285.5C 238.999,286.752 237.332,287.752 235.5,288.5C 235.333,266.831 235.5,245.164 236,223.5C 237.518,222.837 238.685,221.837 239.5,220.5 Z"/></g>
<g><path style="opacity:1" fill="#9ca3a7" d="M 208.5,225.5 C 219.908,227.758 225.075,234.758 224,246.5C 223.072,249.035 221.238,250.035 218.5,249.5C 218.829,255.206 218.495,260.872 217.5,266.5C 215.587,265.627 213.753,264.627 212,263.5C 211.667,257.5 211.333,251.5 211,245.5C 205.26,239.224 204.427,232.557 208.5,225.5 Z"/></g>
</svg>
