<?xml version="1.0" encoding="UTF-8"?>
<!DOCTYPE svg PUBLIC "-//W3C//DTD SVG 1.1//EN" "http://www.w3.org/Graphics/SVG/1.1/DTD/svg11.dtd">
<svg xmlns="http://www.w3.org/2000/svg" version="1.1" width="512px" height="512px" style="shape-rendering:geometricPrecision; text-rendering:geometricPrecision; image-rendering:optimizeQuality; fill-rule:evenodd; clip-rule:evenodd" xmlns:xlink="http://www.w3.org/1999/xlink">
<g><path style="opacity:0.996" fill="#5dab23" d="M 232.5,-0.5 C 247.833,-0.5 263.167,-0.5 278.5,-0.5C 368.144,10.3879 435.644,54.7213 481,132.5C 497.695,163.971 507.861,197.304 511.5,232.5C 511.5,247.833 511.5,263.167 511.5,278.5C 500.612,368.144 456.279,435.644 378.5,481C 347.029,497.695 313.696,507.861 278.5,511.5C 263.167,511.5 247.833,511.5 232.5,511.5C 142.856,500.612 75.3562,456.279 30,378.5C 13.3053,347.029 3.1386,313.696 -0.5,278.5C -0.5,263.167 -0.5,247.833 -0.5,232.5C 10.3875,142.857 54.7208,75.3573 132.5,30C 163.971,13.3053 197.304,3.1386 232.5,-0.5 Z M 222.5,103.5 C 260.854,100.914 287.354,117.247 302,152.5C 311.029,188.425 300.196,216.591 269.5,237C 236.152,253.303 206.319,248.47 180,222.5C 157.977,193.948 156.311,164.282 175,133.5C 186.959,117.275 202.793,107.275 222.5,103.5 Z M 368.5,177.5 C 374.377,177.208 378.21,179.875 380,185.5C 380.5,195.161 380.666,204.828 380.5,214.5C 389.839,214.334 399.173,214.5 408.5,215C 416.462,217.092 418.962,221.926 416,229.5C 414.363,231.81 412.196,233.31 409.5,234C 399.839,234.5 390.172,234.666 380.5,234.5C 380.666,244.172 380.5,253.839 380,263.5C 375.404,272.822 369.404,273.822 362,266.5C 360.597,255.898 360.097,245.231 360.5,234.5C 350.828,234.666 341.161,234.5 331.5,234C 323.887,230.827 322.054,225.66 326,218.5C 327.8,216.683 329.966,215.516 332.5,215C 341.827,214.5 351.161,214.334 360.5,214.5C 360.334,205.161 360.5,195.827 361,186.5C 361.951,182.061 364.451,179.061 368.5,177.5 Z M 224.5,257.5 C 281.294,256.543 324.794,279.876 355,327.5C 368.396,350.75 374.396,375.75 373,402.5C 371.833,404.333 370.333,405.833 368.5,407C 278.833,407.667 189.167,407.667 99.5,407C 94.5297,403.954 92.5297,399.454 93.5,393.5C 98.1617,335.632 126.495,294.132 178.5,269C 193.418,262.937 208.751,259.104 224.5,257.5 Z"/></g>
<g><path style="opacity:0.99" fill="#5eac23" d="M 225.5,122.5 C 249.298,120.483 267.465,129.483 280,149.5C 292.097,177.281 286.263,200.447 262.5,219C 241.187,230.971 220.52,229.971 200.5,216C 181.523,198.12 176.689,176.953 186,152.5C 194.41,136.064 207.577,126.064 225.5,122.5 Z"/></g>
<g><path style="opacity:0.992" fill="#5eac23" d="M 221.5,277.5 C 271.795,275.063 310.629,294.73 338,336.5C 347.221,352.662 352.721,369.995 354.5,388.5C 274.167,388.5 193.833,388.5 113.5,388.5C 119.987,334.521 148.987,299.021 200.5,282C 207.57,280.155 214.57,278.655 221.5,277.5 Z"/></g>
</svg>
