<svg width="47" height="45" viewBox="0 0 47 45" fill="none" xmlns="http://www.w3.org/2000/svg">
<g filter="url(#filter0_d_3141_2109)">
<rect x="4.93359" width="37.2483" height="37" rx="5" fill="#5E91D4"/>
</g>
<path d="M10.9727 17.9862C11.0062 18.0545 11.0482 18.1483 11.0985 18.2678C11.1488 18.3872 11.2747 18.6347 11.476 19.0101C11.6774 19.3855 11.8955 19.7439 12.1304 20.0852C12.3653 20.4265 12.6925 20.836 13.1119 21.3138C13.5314 21.7916 13.9676 22.2438 14.4206 22.6704C14.8737 23.0971 15.4357 23.5151 16.1069 23.9247C16.778 24.3342 17.4659 24.6926 18.1706 24.9998C18.8753 25.3069 19.6975 25.5458 20.6371 25.7165C21.5767 25.8871 22.5498 25.981 23.5565 25.998C24.5633 26.0151 25.5364 25.9212 26.476 25.7165C27.4156 25.5117 28.2461 25.2643 28.9676 24.9742C29.6891 24.6841 30.3686 24.3342 31.0062 23.9247C31.6438 23.5151 32.2059 23.0885 32.6925 22.6448C33.179 22.2012 33.6153 21.766 34.0012 21.3394C34.3871 20.9128 34.7143 20.4862 34.9827 20.0596C35.2512 19.6329 35.4693 19.2831 35.6371 19.0101C35.8049 18.7371 35.9307 18.4896 36.0146 18.2678L36.1404 17.9862C36.1237 17.918 36.0817 17.8241 36.0146 17.7047C35.9475 17.5852 35.8216 17.3463 35.6371 16.9879C35.4525 16.6296 35.2344 16.2712 34.9827 15.9129C34.731 15.5545 34.4039 15.1364 34.0012 14.6586C33.5985 14.1808 33.1623 13.7371 32.6925 13.3276C32.2227 12.918 31.6606 12.5 31.0062 12.0733C30.3519 11.6467 29.6639 11.2884 28.9425 10.9983C28.221 10.7082 27.3988 10.4693 26.476 10.2816C25.5532 10.0939 24.58 10 23.5565 10C22.5331 10 21.5599 10.0939 20.6371 10.2816C19.7143 10.4693 18.8837 10.7082 18.1455 10.9983C17.4072 11.2884 16.7277 11.6467 16.1069 12.0733C15.4861 12.5 14.924 12.918 14.4206 13.3276C13.9173 13.7371 13.481 14.1808 13.1119 14.6586C12.7428 15.1364 12.4156 15.5545 12.1304 15.9129C11.8451 16.2712 11.627 16.6296 11.476 16.9879C11.325 17.3463 11.1992 17.5937 11.0985 17.7302L10.9727 17.9862ZM18.8502 17.9862C18.8502 16.6722 19.3032 15.546 20.2092 14.6074C21.1153 13.6689 22.231 13.1996 23.5565 13.1996C24.8821 13.1996 25.9978 13.6689 26.9039 14.6074C27.8099 15.546 28.2713 16.6722 28.2881 17.9862C28.3049 19.3002 27.8435 20.435 26.9039 21.3906C25.9643 22.3462 24.8485 22.8155 23.5565 22.7984C22.2646 22.7814 21.1488 22.3121 20.2092 21.3906C19.2696 20.4691 18.8166 19.3343 18.8502 17.9862ZM20.4106 17.9862C20.4106 18.8736 20.721 19.6329 21.3418 20.2643C21.9626 20.8957 22.7008 21.2029 23.5565 21.1858C24.4123 21.1688 25.1505 20.8616 25.7713 20.2643C26.3921 19.6671 26.7025 18.9077 26.7025 17.9862C26.7025 17.0647 26.3921 16.3139 25.7713 15.7337C25.1505 15.1535 24.4123 14.8378 23.5565 14.7866C22.7008 14.7354 21.9626 15.0511 21.3418 15.7337L23.5565 17.9862H20.4106Z" fill="white"/>
<defs>
<filter id="filter0_d_3141_2109" x="0.933594" y="0" width="45.25" height="45" filterUnits="userSpaceOnUse" color-interpolation-filters="sRGB">
<feFlood flood-opacity="0" result="BackgroundImageFix"/>
<feColorMatrix in="SourceAlpha" type="matrix" values="0 0 0 0 0 0 0 0 0 0 0 0 0 0 0 0 0 0 127 0" result="hardAlpha"/>
<feOffset dy="4"/>
<feGaussianBlur stdDeviation="2"/>
<feComposite in2="hardAlpha" operator="out"/>
<feColorMatrix type="matrix" values="0 0 0 0 0.0611979 0 0 0 0 0.428386 0 0 0 0 0.979167 0 0 0 0.5 0"/>
<feBlend mode="normal" in2="BackgroundImageFix" result="effect1_dropShadow_3141_2109"/>
<feBlend mode="normal" in="SourceGraphic" in2="effect1_dropShadow_3141_2109" result="shape"/>
</filter>
</defs>
</svg>
