<?xml version="1.0" encoding="UTF-8"?>
<!DOCTYPE svg PUBLIC "-//W3C//DTD SVG 1.1//EN" "http://www.w3.org/Graphics/SVG/1.1/DTD/svg11.dtd">
<svg xmlns="http://www.w3.org/2000/svg" version="1.1" width="512px" height="512px" style="shape-rendering:geometricPrecision; text-rendering:geometricPrecision; image-rendering:optimizeQuality; fill-rule:evenodd; clip-rule:evenodd" xmlns:xlink="http://www.w3.org/1999/xlink">
<g><path style="opacity:0.973" fill="#eab04d" d="M 348.5,-0.5 C 353.167,-0.5 357.833,-0.5 362.5,-0.5C 375.968,6.38686 380.134,17.0535 375,31.5C 370.283,37.377 365.783,43.377 361.5,49.5C 359.697,47.5187 358.03,45.352 356.5,43C 349.55,38.3847 342.884,33.3847 336.5,28C 333.297,25.9971 329.964,24.4971 326.5,23.5C 330.235,17.7162 334.235,12.0496 338.5,6.5C 341.344,3.29987 344.677,0.966541 348.5,-0.5 Z"/></g>
<g><path style="opacity:0.996" fill="#e28086" d="M 326.5,23.5 C 329.964,24.4971 333.297,25.9971 336.5,28C 342.884,33.3847 349.55,38.3847 356.5,43C 358.03,45.352 359.697,47.5187 361.5,49.5C 362.975,54.6638 362.475,59.6638 360,64.5C 357.946,67.0472 356.113,69.7139 354.5,72.5C 353.504,72.4142 352.671,72.7476 352,73.5C 332.616,99.3777 313.449,125.378 294.5,151.5C 290.279,156.248 286.279,161.248 282.5,166.5C 264.338,167.167 246.338,167.833 228.5,168.5C 220.591,169.759 214.591,173.759 210.5,180.5C 202.714,194.424 204.714,206.924 216.5,218C 223.609,222.492 231.275,224.658 239.5,224.5C 234.331,230.846 229.664,237.513 225.5,244.5C 219.197,252.315 213.03,260.315 207,268.5C 204.713,270.054 202.546,271.721 200.5,273.5C 185.437,262.975 170.771,251.975 156.5,240.5C 158.128,235.91 160.295,231.577 163,227.5C 170.752,217.649 178.252,207.649 185.5,197.5C 186.167,197.5 186.5,197.167 186.5,196.5C 225.187,145.807 263.52,94.8069 301.5,43.5C 305.573,37.2528 310.24,31.4195 315.5,26C 318.923,24.0961 322.59,23.2628 326.5,23.5 Z"/></g>
<g><path style="opacity:0.991" fill="#fedccd" d="M 301.5,43.5 C 263.52,94.8069 225.187,145.807 186.5,196.5C 185.833,196.5 185.5,196.833 185.5,197.5C 174.514,200.675 165.014,198.341 157,190.5C 151.222,182.385 150.222,173.718 154,164.5C 176,135.167 198,105.833 220,76.5C 227.349,65.1468 237.516,57.6468 250.5,54C 267.451,50.1766 284.451,46.6766 301.5,43.5 Z"/></g>
<g><path style="opacity:0.998" fill="#fedccd" d="M 354.5,72.5 C 368.797,81.9875 383.463,90.9875 398.5,99.5C 398.667,126.835 398.5,154.169 398,181.5C 391.321,204.774 375.821,214.941 351.5,212C 347.12,210.822 342.787,209.488 338.5,208C 330.045,202.067 320.711,198.067 310.5,196C 283.5,195.667 256.5,195.333 229.5,195C 220.418,193.49 214.084,188.657 210.5,180.5C 214.591,173.759 220.591,169.759 228.5,168.5C 259.875,168.962 291.208,168.462 322.5,167C 327.446,165.194 332.112,162.861 336.5,160C 345.333,151.833 354.167,143.667 363,135.5C 365.323,125.493 361.489,121.993 351.5,125C 342.091,134.414 332.091,143.08 321.5,151C 312.378,152.691 303.378,152.858 294.5,151.5C 313.449,125.378 332.616,99.3777 352,73.5C 352.671,72.7476 353.504,72.4142 354.5,72.5 Z"/></g>
<g><path style="opacity:1" fill="#e9af4e" d="M 293.5,90.5 C 301.696,90.529 304.863,94.529 303,102.5C 296.833,110.667 290.667,118.833 284.5,127C 276.048,130.202 271.881,127.368 272,118.5C 278.678,108.672 285.845,99.3391 293.5,90.5 Z"/></g>
<g><path style="opacity:0.993" fill="#3b66c1" d="M 465.5,245.5 C 465.5,200.833 465.5,156.167 465.5,111.5C 463.339,102.657 466.339,96.4905 474.5,93C 483.5,92.3333 492.5,92.3333 501.5,93C 504.539,94.0314 507.039,95.8647 509,98.5C 510.159,125.249 510.659,152.082 510.5,179C 510.659,205.918 510.159,232.751 509,259.5C 507.039,262.135 504.539,263.969 501.5,265C 491.426,265.923 481.426,265.59 471.5,264C 465.943,259.123 463.943,252.956 465.5,245.5 Z"/></g>
<g><path style="opacity:0.995" fill="#fecbbd" d="M 398.5,99.5 C 419.649,109.607 441.982,113.607 465.5,111.5C 465.5,156.167 465.5,200.833 465.5,245.5C 445.613,250.638 425.613,255.472 405.5,260C 388.707,263.09 372.707,260.757 357.5,253C 349.142,247.487 341.142,241.487 333.5,235C 329.867,232.35 325.867,230.517 321.5,229.5C 321.389,228.883 321.056,228.383 320.5,228C 315.167,226.667 309.833,225.333 304.5,224C 282.761,223.179 261.094,223.345 239.5,224.5C 231.275,224.658 223.609,222.492 216.5,218C 204.714,206.924 202.714,194.424 210.5,180.5C 214.084,188.657 220.418,193.49 229.5,195C 256.5,195.333 283.5,195.667 310.5,196C 320.711,198.067 330.045,202.067 338.5,208C 342.787,209.488 347.12,210.822 351.5,212C 375.821,214.941 391.321,204.774 398,181.5C 398.5,154.169 398.667,126.835 398.5,99.5 Z"/></g>
<g><path style="opacity:1" fill="#fecbbe" d="M 228.5,168.5 C 246.338,167.833 264.338,167.167 282.5,166.5C 286.279,161.248 290.279,156.248 294.5,151.5C 303.378,152.858 312.378,152.691 321.5,151C 332.091,143.08 342.091,134.414 351.5,125C 361.489,121.993 365.323,125.493 363,135.5C 354.167,143.667 345.333,151.833 336.5,160C 332.112,162.861 327.446,165.194 322.5,167C 291.208,168.462 259.875,168.962 228.5,168.5 Z"/></g>
<g><path style="opacity:0.986" fill="#fedccd" d="M 321.5,229.5 C 322.26,238.79 321.094,247.79 318,256.5C 308.341,268.871 296.507,271.371 282.5,264C 277.705,260.245 274.538,255.412 273,249.5C 267.684,264.576 257.184,270.409 241.5,267C 231.314,262.976 225.98,255.476 225.5,244.5C 229.664,237.513 234.331,230.846 239.5,224.5C 261.094,223.345 282.761,223.179 304.5,224C 309.833,225.333 315.167,226.667 320.5,228C 321.056,228.383 321.389,228.883 321.5,229.5 Z"/></g>
<g><path style="opacity:0.991" fill="#375e7c" d="M 156.5,240.5 C 170.771,251.975 185.437,262.975 200.5,273.5C 185.402,285.556 169.735,296.889 153.5,307.5C 147.414,305.423 142.081,302.09 137.5,297.5C 137.337,295.143 137.503,292.81 138,290.5C 143.901,273.619 150.068,256.952 156.5,240.5 Z"/></g>
<g><path style="opacity:0.983" fill="#4a80aa" d="M 137.5,297.5 C 142.081,302.09 147.414,305.423 153.5,307.5C 154.186,322.636 147.186,331.803 132.5,335C 116.5,335.333 100.5,335.667 84.5,336C 82.9512,337.214 81.7845,338.714 81,340.5C 80.5014,344.152 80.3347,347.818 80.5,351.5C 75.1667,348.833 69.8333,348.833 64.5,351.5C 61.2505,334.808 67.5838,323.975 83.5,319C 99.8333,318.667 116.167,318.333 132.5,318C 135.102,317.065 136.602,315.232 137,312.5C 137.499,307.511 137.666,302.511 137.5,297.5 Z"/></g>
<g><path style="opacity:1" fill="#9dc6fb" d="M 80.5,351.5 C 99.6071,362.892 118.94,374.059 138.5,385C 140.373,386.704 142.04,388.537 143.5,390.5C 122.345,401.465 101.511,413.132 81,425.5C 80.5,453.165 80.3334,480.831 80.5,508.5C 79.3065,509.272 78.3065,510.272 77.5,511.5C 74.1667,511.5 70.8333,511.5 67.5,511.5C 66.1667,510.5 64.8333,509.5 63.5,508.5C 64.8294,480.997 64.8294,453.33 63.5,425.5C 42.8058,413.488 22.1392,401.488 1.5,389.5C 2.2899,388.206 3.2899,387.039 4.5,386C 24.6462,374.672 44.6462,363.172 64.5,351.5C 69.8333,348.833 75.1667,348.833 80.5,351.5 Z"/></g>
<g><path style="opacity:0.993" fill="#bdd7fb" d="M 1.5,389.5 C 22.1392,401.488 42.8058,413.488 63.5,425.5C 64.8294,453.33 64.8294,480.997 63.5,508.5C 42.6169,497.142 22.1169,485.142 2,472.5C 0.849571,458.59 0.349571,444.59 0.5,430.5C 0.508471,416.76 0.841804,403.094 1.5,389.5 Z"/></g>
<g><path style="opacity:0.986" fill="#bdd7fb" d="M 143.5,390.5 C 144.149,403.79 144.482,417.123 144.5,430.5C 144.64,444.232 144.14,457.899 143,471.5C 141.127,473.709 138.96,475.542 136.5,477C 117.941,487.777 99.274,498.277 80.5,508.5C 80.3334,480.831 80.5,453.165 81,425.5C 101.511,413.132 122.345,401.465 143.5,390.5 Z"/></g>
</svg>
