<?xml version="1.0" encoding="UTF-8"?>
<!DOCTYPE svg PUBLIC "-//W3C//DTD SVG 1.1//EN" "http://www.w3.org/Graphics/SVG/1.1/DTD/svg11.dtd">
<svg xmlns="http://www.w3.org/2000/svg" version="1.1" width="512px" height="512px" style="shape-rendering:geometricPrecision; text-rendering:geometricPrecision; image-rendering:optimizeQuality; fill-rule:evenodd; clip-rule:evenodd" xmlns:xlink="http://www.w3.org/1999/xlink">
<g><path style="opacity:1" fill="#429846" d="M 209.5,0.5 C 210.5,0.5 211.5,0.5 212.5,0.5C 212.5,56.8333 212.5,113.167 212.5,169.5C 141.383,141.441 70.383,113.108 -0.5,84.5C -0.5,84.1667 -0.5,83.8333 -0.5,83.5C 69.4894,55.8398 139.489,28.1732 209.5,0.5 Z"/></g>
<g><path style="opacity:0.996" fill="#4cae50" d="M 209.5,0.5 C 209.5,0.166667 209.5,-0.166667 209.5,-0.5C 211.5,-0.5 213.5,-0.5 215.5,-0.5C 285.5,27.8333 355.5,56.1667 425.5,84.5C 354.895,113.629 283.895,141.963 212.5,169.5C 212.5,113.167 212.5,56.8333 212.5,0.5C 211.5,0.5 210.5,0.5 209.5,0.5 Z"/></g>
<g><path style="opacity:1" fill="#70ad73" d="M -0.5,84.5 C 70.383,113.108 141.383,141.441 212.5,169.5C 212.5,255.167 212.5,340.833 212.5,426.5C 141.415,398.361 70.4155,370.028 -0.5,341.5C -0.5,255.833 -0.5,170.167 -0.5,84.5 Z"/></g>
<g><path style="opacity:1" fill="#66ba6a" d="M 425.5,84.5 C 426.499,169.665 426.833,254.998 426.5,340.5C 423.833,340.5 421.167,340.5 418.5,340.5C 421.318,325.969 422.151,311.303 421,296.5C 418.117,279.859 408.95,268.359 393.5,262C 390.183,261.502 386.85,261.335 383.5,261.5C 375.202,262.074 369.036,266.074 365,273.5C 361.208,284.494 359.542,295.827 360,307.5C 354.088,324.58 343.255,337.58 327.5,346.5C 322.845,343.837 317.845,342.171 312.5,341.5C 302.342,340.341 292.008,340.175 281.5,341C 268.084,344.083 259.584,352.25 256,365.5C 255.5,380.163 255.333,394.83 255.5,409.5C 241.283,415.441 226.95,421.108 212.5,426.5C 212.5,340.833 212.5,255.167 212.5,169.5C 283.895,141.963 354.895,113.629 425.5,84.5 Z"/></g>
<g><path style="opacity:1" fill="#ddb16f" d="M 383.5,261.5 C 383.5,343.833 383.5,426.167 383.5,508.5C 367.689,505.784 352.356,501.451 337.5,495.5C 338.022,492.432 338.855,489.432 340,486.5C 340.667,445.833 340.667,405.167 340,364.5C 337.526,357.214 333.359,351.214 327.5,346.5C 343.255,337.58 354.088,324.58 360,307.5C 359.542,295.827 361.208,284.494 365,273.5C 369.036,266.074 375.202,262.074 383.5,261.5 Z"/></g>
<g><path style="opacity:0.995" fill="#fecc7f" d="M 383.5,261.5 C 386.85,261.335 390.183,261.502 393.5,262C 408.95,268.359 418.117,279.859 421,296.5C 422.151,311.303 421.318,325.969 418.5,340.5C 421.167,340.5 423.833,340.5 426.5,340.5C 440.504,340.333 454.504,340.5 468.5,341C 491.602,345.938 505.935,359.771 511.5,382.5C 511.5,390.5 511.5,398.5 511.5,406.5C 509.291,429.075 505.124,451.408 499,473.5C 491.937,493.736 478.104,506.403 457.5,511.5C 440.5,511.5 423.5,511.5 406.5,511.5C 398.983,510.428 391.316,509.428 383.5,508.5C 383.5,426.167 383.5,343.833 383.5,261.5 Z"/></g>
<g><path style="opacity:1" fill="#1d83d4" d="M 312.5,341.5 C 307.833,341.5 303.167,341.5 298.5,341.5C 298.5,398.167 298.5,454.833 298.5,511.5C 292.167,511.5 285.833,511.5 279.5,511.5C 267.182,508.015 259.349,500.015 256,487.5C 255.5,461.502 255.333,435.502 255.5,409.5C 255.333,394.83 255.5,380.163 256,365.5C 259.584,352.25 268.084,344.083 281.5,341C 292.008,340.175 302.342,340.341 312.5,341.5 Z"/></g>
<g><path style="opacity:0.998" fill="#2196f2" d="M 312.5,341.5 C 317.845,342.171 322.845,343.837 327.5,346.5C 333.359,351.214 337.526,357.214 340,364.5C 340.667,405.167 340.667,445.833 340,486.5C 338.855,489.432 338.022,492.432 337.5,495.5C 332.511,503.492 325.511,508.825 316.5,511.5C 310.5,511.5 304.5,511.5 298.5,511.5C 298.5,454.833 298.5,398.167 298.5,341.5C 303.167,341.5 307.833,341.5 312.5,341.5 Z"/></g>
</svg>
