<svg width="22" height="21" viewBox="0 0 22 21" fill="none" xmlns="http://www.w3.org/2000/svg">
<path d="M21.7008 18.0353L17.4165 13.9736C17.2231 13.7903 16.961 13.6884 16.686 13.6884H15.9855C17.1716 12.2503 17.8763 10.4415 17.8763 8.4738C17.8763 3.79284 13.8756 0 8.93815 0C4.00068 0 0 3.79284 0 8.4738C0 13.1548 4.00068 16.9476 8.93815 16.9476C11.0137 16.9476 12.9216 16.2795 14.4386 15.1551V15.8191C14.4386 16.0798 14.546 16.3284 14.7394 16.5117L19.0237 20.5734C19.4276 20.9563 20.0808 20.9563 20.4804 20.5734L21.6965 19.4205C22.1004 19.0375 22.1004 18.4183 21.7008 18.0353ZM8.93815 13.6884C5.90004 13.6884 3.43775 11.3581 3.43775 8.4738C3.43775 5.59352 5.89574 3.25915 8.93815 3.25915C11.9763 3.25915 14.4386 5.58945 14.4386 8.4738C14.4386 11.3541 11.9806 13.6884 8.93815 13.6884Z" fill="#ACACAC"/>
</svg>
