<svg width="29" height="35" viewBox="0 0 29 35" fill="none" xmlns="http://www.w3.org/2000/svg">
<path d="M20.6754 21.9167L14.5 28.4378L8.32455 21.9167C3.69621 22.1286 0 26.1274 0 31.0627V31.7189C0 33.5303 1.39174 35 3.10714 35H25.8929C27.6083 35 29 33.5303 29 31.7189V31.0627C29 26.1274 25.3038 22.1286 20.6754 21.9167ZM0.880357 5.45652L1.29464 5.55905V9.55105C0.841518 9.83814 0.517857 10.3371 0.517857 10.9387C0.517857 11.5129 0.815625 11.9914 1.23638 12.2853L0.226562 16.5439C0.116518 17.0155 0.3625 17.5009 0.718527 17.5009H3.42433C3.78036 17.5009 4.02634 17.0155 3.91629 16.5439L2.90647 12.2853C3.32723 11.9914 3.625 11.5129 3.625 10.9387C3.625 10.3371 3.30134 9.83814 2.84821 9.55105V5.95552L7.12054 7.04238C6.56384 8.2181 6.21429 9.53054 6.21429 10.9387C6.21429 15.7714 9.92344 19.6882 14.5 19.6882C19.0766 19.6882 22.7857 15.7714 22.7857 10.9387C22.7857 9.53054 22.4426 8.2181 21.8795 7.04238L28.1132 5.45652C29.2913 5.15575 29.2913 3.60407 28.1132 3.30331L15.7882 0.158928C14.9467 -0.0529759 14.0598 -0.0529759 13.2183 0.158928L0.880357 3.29647C-0.291295 3.59724 -0.291295 5.15575 0.880357 5.45652Z" fill="black"/>
</svg>
