<svg width="21" height="21" viewBox="0 0 21 21" fill="none" xmlns="http://www.w3.org/2000/svg">
<path d="M10.2111 0C4.5703 0 0 4.5703 0 10.2111C0 15.8519 4.5703 20.4222 10.2111 20.4222C15.8519 20.4222 20.4222 15.8519 20.4222 10.2111C20.4222 4.5703 15.8519 0 10.2111 0ZM12.5621 14.415L8.9306 11.7757C8.80296 11.681 8.72885 11.5328 8.72885 11.3763V4.44677C8.72885 4.17503 8.95119 3.95269 9.22294 3.95269H11.1993C11.471 3.95269 11.6934 4.17503 11.6934 4.44677V10.1164L14.3079 12.0186C14.5302 12.1792 14.5755 12.488 14.415 12.7104L13.2539 14.3079C13.0933 14.5261 12.7845 14.5755 12.5621 14.415Z" fill="#354135"/>
</svg>
