<svg width="174" height="25" viewBox="0 0 174 25" fill="none" xmlns="http://www.w3.org/2000/svg">
<path d="M70.8606 6.066V8.395H65.9986V10.911H69.6366V13.172H65.9986V18H63.0916V6.066H70.8606ZM76.7065 18.136C75.7771 18.136 74.9385 17.9377 74.1905 17.541C73.4538 17.1443 72.8701 16.5777 72.4395 15.841C72.0201 15.1043 71.8105 14.243 71.8105 13.257C71.8105 12.2823 72.0258 11.4267 72.4565 10.69C72.8871 9.942 73.4765 9.36967 74.2245 8.973C74.9725 8.57633 75.8111 8.378 76.7405 8.378C77.6698 8.378 78.5085 8.57633 79.2565 8.973C80.0045 9.36967 80.5938 9.942 81.0245 10.69C81.4551 11.4267 81.6705 12.2823 81.6705 13.257C81.6705 14.2317 81.4495 15.093 81.0075 15.841C80.5768 16.5777 79.9818 17.1443 79.2225 17.541C78.4745 17.9377 77.6358 18.136 76.7065 18.136ZM76.7065 15.62C77.2618 15.62 77.7321 15.416 78.1175 15.008C78.5141 14.6 78.7125 14.0163 78.7125 13.257C78.7125 12.4977 78.5198 11.914 78.1345 11.506C77.7605 11.098 77.2958 10.894 76.7405 10.894C76.1738 10.894 75.7035 11.098 75.3295 11.506C74.9555 11.9027 74.7685 12.4863 74.7685 13.257C74.7685 14.0163 74.9498 14.6 75.3125 15.008C75.6865 15.416 76.1511 15.62 76.7065 15.62ZM86.1197 5.42V18H83.2127V5.42H86.1197ZM91.1334 5.42V18H88.2264V5.42H91.1334ZM97.558 18.136C96.6287 18.136 95.79 17.9377 95.042 17.541C94.3054 17.1443 93.7217 16.5777 93.291 15.841C92.8717 15.1043 92.662 14.243 92.662 13.257C92.662 12.2823 92.8774 11.4267 93.308 10.69C93.7387 9.942 94.328 9.36967 95.076 8.973C95.824 8.57633 96.6627 8.378 97.592 8.378C98.5214 8.378 99.36 8.57633 100.108 8.973C100.856 9.36967 101.445 9.942 101.876 10.69C102.307 11.4267 102.522 12.2823 102.522 13.257C102.522 14.2317 102.301 15.093 101.859 15.841C101.428 16.5777 100.833 17.1443 100.074 17.541C99.326 17.9377 98.4874 18.136 97.558 18.136ZM97.558 15.62C98.1134 15.62 98.5837 15.416 98.969 15.008C99.3657 14.6 99.564 14.0163 99.564 13.257C99.564 12.4977 99.3714 11.914 98.986 11.506C98.612 11.098 98.1474 10.894 97.592 10.894C97.0254 10.894 96.555 11.098 96.181 11.506C95.807 11.9027 95.62 12.4863 95.62 13.257C95.62 14.0163 95.8014 14.6 96.164 15.008C96.538 15.416 97.0027 15.62 97.558 15.62ZM117.681 8.514L115.114 18H111.901L110.405 11.846L108.858 18H105.662L103.078 8.514H105.985L107.328 15.297L108.926 8.514H112.003L113.618 15.263L114.944 8.514H117.681ZM127.732 13.104C127.732 13.376 127.715 13.6593 127.681 13.954H121.102C121.147 14.5433 121.334 14.9967 121.663 15.314C122.003 15.62 122.417 15.773 122.904 15.773C123.629 15.773 124.134 15.467 124.417 14.855H127.511C127.352 15.4783 127.063 16.0393 126.644 16.538C126.236 17.0367 125.72 17.4277 125.097 17.711C124.474 17.9943 123.777 18.136 123.006 18.136C122.077 18.136 121.249 17.9377 120.524 17.541C119.799 17.1443 119.232 16.5777 118.824 15.841C118.416 15.1043 118.212 14.243 118.212 13.257C118.212 12.271 118.41 11.4097 118.807 10.673C119.215 9.93633 119.782 9.36967 120.507 8.973C121.232 8.57633 122.065 8.378 123.006 8.378C123.924 8.378 124.74 8.57067 125.454 8.956C126.168 9.34133 126.723 9.891 127.12 10.605C127.528 11.319 127.732 12.152 127.732 13.104ZM124.757 12.339C124.757 11.8403 124.587 11.4437 124.247 11.149C123.907 10.8543 123.482 10.707 122.972 10.707C122.485 10.707 122.071 10.8487 121.731 11.132C121.402 11.4153 121.198 11.8177 121.119 12.339H124.757ZM132.172 10.095C132.512 9.57367 132.937 9.16567 133.447 8.871C133.957 8.565 134.524 8.412 135.147 8.412V11.489H134.348C133.623 11.489 133.079 11.6477 132.716 11.965C132.354 12.271 132.172 12.815 132.172 13.597V18H129.265V8.514H132.172V10.095ZM140.396 18.136C139.569 18.136 138.832 17.9943 138.186 17.711C137.54 17.4277 137.03 17.0423 136.656 16.555C136.282 16.0563 136.072 15.501 136.027 14.889H138.9C138.934 15.2177 139.087 15.484 139.359 15.688C139.631 15.892 139.965 15.994 140.362 15.994C140.725 15.994 141.002 15.926 141.195 15.79C141.399 15.6427 141.501 15.4557 141.501 15.229C141.501 14.957 141.359 14.7587 141.076 14.634C140.793 14.498 140.334 14.3507 139.699 14.192C139.019 14.0333 138.452 13.869 137.999 13.699C137.546 13.5177 137.155 13.24 136.826 12.866C136.497 12.4807 136.333 11.965 136.333 11.319C136.333 10.775 136.48 10.282 136.775 9.84C137.081 9.38667 137.523 9.02967 138.101 8.769C138.69 8.50833 139.387 8.378 140.192 8.378C141.382 8.378 142.317 8.67267 142.997 9.262C143.688 9.85133 144.085 10.6333 144.187 11.608H141.501C141.456 11.2793 141.308 11.0187 141.059 10.826C140.821 10.6333 140.504 10.537 140.107 10.537C139.767 10.537 139.506 10.605 139.325 10.741C139.144 10.8657 139.053 11.0413 139.053 11.268C139.053 11.54 139.195 11.744 139.478 11.88C139.773 12.016 140.226 12.152 140.838 12.288C141.541 12.4693 142.113 12.6507 142.555 12.832C142.997 13.002 143.382 13.2853 143.711 13.682C144.051 14.0673 144.227 14.5887 144.238 15.246C144.238 15.8013 144.079 16.3 143.762 16.742C143.456 17.1727 143.008 17.5127 142.419 17.762C141.841 18.0113 141.167 18.136 140.396 18.136Z" fill="#106B2A"/>
<path d="M24.8489 12.6997C22.4952 8.1072 17.8355 5 12.5 5C7.16447 5 2.50345 8.10938 0.151018 12.7001C0.0517306 12.8965 0 13.1135 0 13.3336C0 13.5536 0.0517306 13.7706 0.151018 13.967C2.50475 18.5595 7.16447 21.6667 12.5 21.6667C17.8355 21.6667 22.4965 18.5573 24.8489 13.9666C24.9482 13.7702 25 13.5532 25 13.3331C25 13.113 24.9482 12.8961 24.8489 12.6997ZM12.5 19.5833C11.2638 19.5833 10.0555 19.2168 9.02766 18.53C7.99985 17.8433 7.19878 16.8671 6.72573 15.7251C6.25268 14.5831 6.12891 13.3264 6.37007 12.114C6.61123 10.9016 7.20648 9.78799 8.08056 8.91392C8.95464 8.03984 10.0683 7.44458 11.2807 7.20343C12.493 6.96227 13.7497 7.08604 14.8917 7.55909C16.0338 8.03213 17.0099 8.83321 17.6967 9.86102C18.3834 10.8888 18.75 12.0972 18.75 13.3333C18.7504 14.1542 18.589 14.9671 18.275 15.7256C17.9611 16.484 17.5007 17.1732 16.9203 17.7536C16.3398 18.3341 15.6507 18.7944 14.8922 19.1084C14.1338 19.4223 13.3208 19.5837 12.5 19.5833ZM12.5 9.16667C12.1281 9.17186 11.7586 9.22719 11.4015 9.33116C11.6958 9.73119 11.8371 10.2235 11.7996 10.7187C11.7621 11.214 11.5484 11.6794 11.1972 12.0306C10.846 12.3818 10.3806 12.5955 9.88537 12.633C9.39012 12.6704 8.89784 12.5292 8.49781 12.2348C8.27001 13.074 8.31113 13.9636 8.61538 14.7782C8.91962 15.5928 9.47167 16.2916 10.1938 16.776C10.916 17.2605 11.7719 17.5063 12.641 17.4788C13.5102 17.4514 14.3489 17.152 15.039 16.623C15.7291 16.0939 16.236 15.3617 16.4882 14.5295C16.7404 13.6973 16.7253 12.8069 16.445 11.9838C16.1647 11.1606 15.6333 10.446 14.9256 9.94067C14.2179 9.43532 13.3696 9.16462 12.5 9.16667Z" fill="#3A3434"/>
</svg>
