<svg width="45" height="45" viewBox="0 0 45 45" fill="none" xmlns="http://www.w3.org/2000/svg">
<circle cx="22.5" cy="22.5" r="22.5" fill="#5EEE6F"/>
<path d="M26.9479 20.0523C29.8652 22.9727 29.8252 27.6548 26.9655 30.5303C26.9601 30.5362 26.9537 30.5426 26.9479 30.5484L23.6666 33.8297C20.7726 36.7237 16.0641 36.7233 13.1705 33.8297C10.2765 30.9361 10.2765 26.2271 13.1705 23.3336L14.9823 21.5218C15.4628 21.0413 16.2903 21.3606 16.3151 22.0396C16.3467 22.905 16.5019 23.7743 16.7882 24.6139C16.8852 24.8982 16.8159 25.2126 16.6035 25.425L15.9645 26.064C14.596 27.4325 14.5531 29.6607 15.9081 31.0426C17.2764 32.438 19.5256 32.4463 20.9044 31.0675L24.1857 27.7867C25.5622 26.4102 25.5564 24.1853 24.1857 22.8145C24.005 22.6342 23.8229 22.494 23.6807 22.3961C23.5801 22.327 23.4971 22.2354 23.4382 22.1285C23.3793 22.0217 23.3462 21.9025 23.3415 21.7806C23.3222 21.2646 23.505 20.7329 23.9127 20.3252L24.9407 19.2971C25.2103 19.0276 25.6332 18.9945 25.9458 19.2126C26.3038 19.4626 26.6391 19.7436 26.9479 20.0523ZM33.8295 13.1704C30.9359 10.2767 26.2274 10.2763 23.3334 13.1704L20.0521 16.4516C20.0463 16.4575 20.0399 16.4638 20.0345 16.4697C17.1749 19.3453 17.1348 24.0274 20.0521 26.9477C20.3609 27.2565 20.6961 27.5374 21.0541 27.7874C21.3667 28.0055 21.7897 27.9724 22.0592 27.7029L23.0872 26.6748C23.4949 26.2671 23.6778 25.7354 23.6584 25.2194C23.6537 25.0975 23.6206 24.9783 23.5618 24.8715C23.5029 24.7646 23.4198 24.673 23.3192 24.6039C23.177 24.506 22.995 24.3658 22.8143 24.1855C21.4435 22.8147 21.4378 20.5898 22.8143 19.2133L26.0955 15.9325C27.4744 14.5537 29.7235 14.562 31.0919 15.9574C32.4468 17.3393 32.404 19.5675 31.0355 20.936L30.3965 21.575C30.1841 21.7874 30.1148 22.1018 30.2117 22.3861C30.4981 23.2257 30.6532 24.095 30.6849 24.9604C30.7097 25.6394 31.5371 25.9587 32.0176 25.4782L33.8294 23.6664C36.7235 20.7729 36.7235 16.0639 33.8295 13.1704Z" fill="#F7F7F7"/>
</svg>
