<svg width="12" height="11" viewBox="0 0 12 11" fill="none" xmlns="http://www.w3.org/2000/svg">
<path d="M6 0C2.68548 0 0 2.46169 0 5.5C0 8.53831 2.68548 11 6 11C9.31452 11 12 8.53831 12 5.5C12 2.46169 9.31452 0 6 0ZM9.48387 6.12097C9.48387 6.26734 9.35323 6.3871 9.19355 6.3871H6.96774V8.42742C6.96774 8.57379 6.8371 8.69355 6.67742 8.69355H5.32258C5.1629 8.69355 5.03226 8.57379 5.03226 8.42742V6.3871H2.80645C2.64677 6.3871 2.51613 6.26734 2.51613 6.12097V4.87903C2.51613 4.73266 2.64677 4.6129 2.80645 4.6129H5.03226V2.57258C5.03226 2.42621 5.1629 2.30645 5.32258 2.30645H6.67742C6.8371 2.30645 6.96774 2.42621 6.96774 2.57258V4.6129H9.19355C9.35323 4.6129 9.48387 4.73266 9.48387 4.87903V6.12097Z" fill="white"/>
</svg>
