<svg width="52" height="45" viewBox="0 0 52 45" fill="none" xmlns="http://www.w3.org/2000/svg">
<path d="M46.4286 0H5.57143C2.49554 0 0 2.1596 0 4.82143V40.1786C0 42.8404 2.49554 45 5.57143 45H46.4286C49.5045 45 52 42.8404 52 40.1786V4.82143C52 2.1596 49.5045 0 46.4286 0ZM18.5714 33.75C18.5714 34.6379 17.7404 35.3571 16.7143 35.3571H13C11.9739 35.3571 11.1429 34.6379 11.1429 33.75V20.8929C11.1429 20.0049 11.9739 19.2857 13 19.2857H16.7143C17.7404 19.2857 18.5714 20.0049 18.5714 20.8929V33.75ZM29.7143 33.75C29.7143 34.6379 28.8832 35.3571 27.8571 35.3571H24.1429C23.1168 35.3571 22.2857 34.6379 22.2857 33.75V11.25C22.2857 10.3621 23.1168 9.64286 24.1429 9.64286H27.8571C28.8832 9.64286 29.7143 10.3621 29.7143 11.25V33.75ZM40.8571 33.75C40.8571 34.6379 40.0261 35.3571 39 35.3571H35.2857C34.2596 35.3571 33.4286 34.6379 33.4286 33.75V27.3214C33.4286 26.4335 34.2596 25.7143 35.2857 25.7143H39C40.0261 25.7143 40.8571 26.4335 40.8571 27.3214V33.75Z" fill="#F0FF46"/>
</svg>
