<svg width="308" height="67" viewBox="0 0 308 67" fill="none" xmlns="http://www.w3.org/2000/svg">
<g filter="url(#filter0_d_804_2)">
<g filter="url(#filter1_d_804_2)">
<path d="M4 29.5C4 13.2076 18.3269 0 36 0H272C289.673 0 304 13.2076 304 29.5V29.5C304 45.7924 289.673 59 272 59H36C18.3269 59 4 45.7924 4 29.5V29.5Z" fill="#3F3F3F"/>
<path d="M34.4094 9.79122C30.7147 12.1649 28.0481 15.0255 26.0562 18.799C25.4457 19.925 24.9638 20.9292 24.9638 21.0205C24.9638 21.1118 29.526 21.1727 35.0841 21.1727H45.2043V23.6072V26.0418H34.6021H24V27.7155V29.3892H33.4777H42.9553V31.8238V34.2583H35.8872H28.8192V36.6929V39.1274H37.0117H45.2043V41.5619V43.9965H37.333H29.4617L29.9758 44.7573C30.7789 45.9441 34.2487 48.4091 36.7226 49.5959C40.4173 51.3609 43.5015 52 47.7745 52C53.8145 51.9696 58.73 50.3263 63.2922 46.7962C67.1154 43.8443 67.4366 43.9965 57.4128 43.9965H48.7383V43.0835C48.7383 42.4749 49.156 41.5924 49.9271 40.649L51.1158 39.1274H60.3686H69.5892L70.1032 38.2449C71.1956 36.2059 71.9667 32.615 71.9988 29.3892C72.0309 26.4069 71.4205 22.5421 70.9064 22.2378C70.7779 22.1465 70.3924 22.4812 70.0711 22.9377C69.782 23.3942 67.4045 26.4678 64.8343 29.7544L60.1758 35.7799H57.0273C53.2683 35.7799 53.2041 36.3581 57.702 30.6065C59.469 28.3546 60.9469 26.4069 60.9469 26.2548C60.9469 26.133 58.216 26.0418 54.8426 26.0418H48.7383V23.6072V21.1727H59.6617C65.6696 21.1727 70.5852 21.1118 70.5852 21.0205C70.5852 20.9292 70.1032 19.925 69.4928 18.799C67.4688 14.995 64.8986 12.2562 61.1396 9.85209L59.8224 9H47.7424H35.6624L34.4094 9.79122Z" fill="white"/>
<rect x="84.1138" y="16.2266" width="204.545" height="29.5" rx="7" fill="white"/>
<path d="M112.305 34.14H108.375L107.745 36H105.06L108.87 25.47H111.84L115.65 36H112.935L112.305 34.14ZM111.645 32.16L110.34 28.305L109.05 32.16H111.645ZM120.619 36.105C119.849 36.105 119.159 35.98 118.549 35.73C117.939 35.48 117.449 35.11 117.079 34.62C116.719 34.13 116.529 33.54 116.509 32.85H119.239C119.279 33.24 119.414 33.54 119.644 33.75C119.874 33.95 120.174 34.05 120.544 34.05C120.924 34.05 121.224 33.965 121.444 33.795C121.664 33.615 121.774 33.37 121.774 33.06C121.774 32.8 121.684 32.585 121.504 32.415C121.334 32.245 121.119 32.105 120.859 31.995C120.609 31.885 120.249 31.76 119.779 31.62C119.099 31.41 118.544 31.2 118.114 30.99C117.684 30.78 117.314 30.47 117.004 30.06C116.694 29.65 116.539 29.115 116.539 28.455C116.539 27.475 116.894 26.71 117.604 26.16C118.314 25.6 119.239 25.32 120.379 25.32C121.539 25.32 122.474 25.6 123.184 26.16C123.894 26.71 124.274 27.48 124.324 28.47H121.549C121.529 28.13 121.404 27.865 121.174 27.675C120.944 27.475 120.649 27.375 120.289 27.375C119.979 27.375 119.729 27.46 119.539 27.63C119.349 27.79 119.254 28.025 119.254 28.335C119.254 28.675 119.414 28.94 119.734 29.13C120.054 29.32 120.554 29.525 121.234 29.745C121.914 29.975 122.464 30.195 122.884 30.405C123.314 30.615 123.684 30.92 123.994 31.32C124.304 31.72 124.459 32.235 124.459 32.865C124.459 33.465 124.304 34.01 123.994 34.5C123.694 34.99 123.254 35.38 122.674 35.67C122.094 35.96 121.409 36.105 120.619 36.105ZM129.848 36.105C129.078 36.105 128.388 35.98 127.778 35.73C127.168 35.48 126.678 35.11 126.308 34.62C125.948 34.13 125.758 33.54 125.738 32.85H128.468C128.508 33.24 128.643 33.54 128.873 33.75C129.103 33.95 129.403 34.05 129.773 34.05C130.153 34.05 130.453 33.965 130.673 33.795C130.893 33.615 131.003 33.37 131.003 33.06C131.003 32.8 130.913 32.585 130.733 32.415C130.563 32.245 130.348 32.105 130.088 31.995C129.838 31.885 129.478 31.76 129.008 31.62C128.328 31.41 127.773 31.2 127.343 30.99C126.913 30.78 126.543 30.47 126.233 30.06C125.923 29.65 125.768 29.115 125.768 28.455C125.768 27.475 126.123 26.71 126.833 26.16C127.543 25.6 128.468 25.32 129.608 25.32C130.768 25.32 131.703 25.6 132.413 26.16C133.123 26.71 133.503 27.48 133.553 28.47H130.778C130.758 28.13 130.633 27.865 130.403 27.675C130.173 27.475 129.878 27.375 129.518 27.375C129.208 27.375 128.958 27.46 128.768 27.63C128.578 27.79 128.483 28.025 128.483 28.335C128.483 28.675 128.643 28.94 128.963 29.13C129.283 29.32 129.783 29.525 130.463 29.745C131.143 29.975 131.693 30.195 132.113 30.405C132.543 30.615 132.913 30.92 133.223 31.32C133.533 31.72 133.688 32.235 133.688 32.865C133.688 33.465 133.533 34.01 133.223 34.5C132.923 34.99 132.483 35.38 131.903 35.67C131.323 35.96 130.638 36.105 129.848 36.105ZM137.786 25.47V31.77C137.786 32.4 137.941 32.885 138.251 33.225C138.561 33.565 139.016 33.735 139.616 33.735C140.216 33.735 140.676 33.565 140.996 33.225C141.316 32.885 141.476 32.4 141.476 31.77V25.47H144.041V31.755C144.041 32.695 143.841 33.49 143.441 34.14C143.041 34.79 142.501 35.28 141.821 35.61C141.151 35.94 140.401 36.105 139.571 36.105C138.741 36.105 137.996 35.945 137.336 35.625C136.686 35.295 136.171 34.805 135.791 34.155C135.411 33.495 135.221 32.695 135.221 31.755V25.47H137.786ZM151.212 36L149.022 32.025H148.407V36H145.842V25.47H150.147C150.977 25.47 151.682 25.615 152.262 25.905C152.852 26.195 153.292 26.595 153.582 27.105C153.872 27.605 154.017 28.165 154.017 28.785C154.017 29.485 153.817 30.11 153.417 30.66C153.027 31.21 152.447 31.6 151.677 31.83L154.107 36H151.212ZM148.407 30.21H149.997C150.467 30.21 150.817 30.095 151.047 29.865C151.287 29.635 151.407 29.31 151.407 28.89C151.407 28.49 151.287 28.175 151.047 27.945C150.817 27.715 150.467 27.6 149.997 27.6H148.407V30.21ZM158.193 27.525V29.655H161.628V31.635H158.193V33.945H162.078V36H155.628V25.47H162.078V27.525H158.193ZM167.688 25.47C168.798 25.47 169.768 25.69 170.598 26.13C171.428 26.57 172.068 27.19 172.518 27.99C172.978 28.78 173.208 29.695 173.208 30.735C173.208 31.765 172.978 32.68 172.518 33.48C172.068 34.28 171.423 34.9 170.583 35.34C169.753 35.78 168.788 36 167.688 36H163.743V25.47H167.688ZM167.523 33.78C168.493 33.78 169.248 33.515 169.788 32.985C170.328 32.455 170.598 31.705 170.598 30.735C170.598 29.765 170.328 29.01 169.788 28.47C169.248 27.93 168.493 27.66 167.523 27.66H166.308V33.78H167.523ZM181.63 36.105C180.86 36.105 180.17 35.98 179.56 35.73C178.95 35.48 178.46 35.11 178.09 34.62C177.73 34.13 177.54 33.54 177.52 32.85H180.25C180.29 33.24 180.425 33.54 180.655 33.75C180.885 33.95 181.185 34.05 181.555 34.05C181.935 34.05 182.235 33.965 182.455 33.795C182.675 33.615 182.785 33.37 182.785 33.06C182.785 32.8 182.695 32.585 182.515 32.415C182.345 32.245 182.13 32.105 181.87 31.995C181.62 31.885 181.26 31.76 180.79 31.62C180.11 31.41 179.555 31.2 179.125 30.99C178.695 30.78 178.325 30.47 178.015 30.06C177.705 29.65 177.55 29.115 177.55 28.455C177.55 27.475 177.905 26.71 178.615 26.16C179.325 25.6 180.25 25.32 181.39 25.32C182.55 25.32 183.485 25.6 184.195 26.16C184.905 26.71 185.285 27.48 185.335 28.47H182.56C182.54 28.13 182.415 27.865 182.185 27.675C181.955 27.475 181.66 27.375 181.3 27.375C180.99 27.375 180.74 27.46 180.55 27.63C180.36 27.79 180.265 28.025 180.265 28.335C180.265 28.675 180.425 28.94 180.745 29.13C181.065 29.32 181.565 29.525 182.245 29.745C182.925 29.975 183.475 30.195 183.895 30.405C184.325 30.615 184.695 30.92 185.005 31.32C185.315 31.72 185.47 32.235 185.47 32.865C185.47 33.465 185.315 34.01 185.005 34.5C184.705 34.99 184.265 35.38 183.685 35.67C183.105 35.96 182.42 36.105 181.63 36.105ZM189.614 27.525V29.655H193.049V31.635H189.614V33.945H193.499V36H187.049V25.47H193.499V27.525H189.614ZM200.534 36L198.344 32.025H197.729V36H195.164V25.47H199.469C200.299 25.47 201.004 25.615 201.584 25.905C202.174 26.195 202.614 26.595 202.904 27.105C203.194 27.605 203.339 28.165 203.339 28.785C203.339 29.485 203.139 30.11 202.739 30.66C202.349 31.21 201.769 31.6 200.999 31.83L203.429 36H200.534ZM197.729 30.21H199.319C199.789 30.21 200.139 30.095 200.369 29.865C200.609 29.635 200.729 29.31 200.729 28.89C200.729 28.49 200.609 28.175 200.369 27.945C200.139 27.715 199.789 27.6 199.319 27.6H197.729V30.21ZM214.834 25.47L211.099 36H207.889L204.154 25.47H206.884L209.494 33.42L212.119 25.47H214.834ZM218.471 25.47V36H215.906V25.47H218.471ZM219.895 30.72C219.895 29.68 220.12 28.755 220.57 27.945C221.02 27.125 221.645 26.49 222.445 26.04C223.255 25.58 224.17 25.35 225.19 25.35C226.44 25.35 227.51 25.68 228.4 26.34C229.29 27 229.885 27.9 230.185 29.04H227.365C227.155 28.6 226.855 28.265 226.465 28.035C226.085 27.805 225.65 27.69 225.16 27.69C224.37 27.69 223.73 27.965 223.24 28.515C222.75 29.065 222.505 29.8 222.505 30.72C222.505 31.64 222.75 32.375 223.24 32.925C223.73 33.475 224.37 33.75 225.16 33.75C225.65 33.75 226.085 33.635 226.465 33.405C226.855 33.175 227.155 32.84 227.365 32.4H230.185C229.885 33.54 229.29 34.44 228.4 35.1C227.51 35.75 226.44 36.075 225.19 36.075C224.17 36.075 223.255 35.85 222.445 35.4C221.645 34.94 221.02 34.305 220.57 33.495C220.12 32.685 219.895 31.76 219.895 30.72ZM234.321 27.525V29.655H237.756V31.635H234.321V33.945H238.206V36H231.756V25.47H238.206V27.525H234.321Z" fill="#003902"/>
</g>
</g>
<defs>
<filter id="filter0_d_804_2" x="0" y="0" width="308" height="67" filterUnits="userSpaceOnUse" color-interpolation-filters="sRGB">
<feFlood flood-opacity="0" result="BackgroundImageFix"/>
<feColorMatrix in="SourceAlpha" type="matrix" values="0 0 0 0 0 0 0 0 0 0 0 0 0 0 0 0 0 0 127 0" result="hardAlpha"/>
<feOffset dy="4"/>
<feGaussianBlur stdDeviation="2"/>
<feComposite in2="hardAlpha" operator="out"/>
<feColorMatrix type="matrix" values="0 0 0 0 0 0 0 0 0 0 0 0 0 0 0 0 0 0 0.25 0"/>
<feBlend mode="normal" in2="BackgroundImageFix" result="effect1_dropShadow_804_2"/>
<feBlend mode="normal" in="SourceGraphic" in2="effect1_dropShadow_804_2" result="shape"/>
</filter>
<filter id="filter1_d_804_2" x="0" y="0" width="308" height="67" filterUnits="userSpaceOnUse" color-interpolation-filters="sRGB">
<feFlood flood-opacity="0" result="BackgroundImageFix"/>
<feColorMatrix in="SourceAlpha" type="matrix" values="0 0 0 0 0 0 0 0 0 0 0 0 0 0 0 0 0 0 127 0" result="hardAlpha"/>
<feOffset dy="4"/>
<feGaussianBlur stdDeviation="2"/>
<feComposite in2="hardAlpha" operator="out"/>
<feColorMatrix type="matrix" values="0 0 0 0 0 0 0 0 0 0 0 0 0 0 0 0 0 0 0.25 0"/>
<feBlend mode="normal" in2="BackgroundImageFix" result="effect1_dropShadow_804_2"/>
<feBlend mode="normal" in="SourceGraphic" in2="effect1_dropShadow_804_2" result="shape"/>
</filter>
</defs>
</svg>
