<svg width="45" height="45" viewBox="0 0 45 45" fill="none" xmlns="http://www.w3.org/2000/svg">
<path d="M40.7812 22.5H33.75V16.0714C33.75 12.5257 36.2725 9.64286 39.375 9.64286H40.0781C41.2471 9.64286 42.1875 8.56808 42.1875 7.23214V2.41071C42.1875 1.07478 41.2471 0 40.0781 0H39.375C31.6055 0 25.3125 7.19196 25.3125 16.0714V40.1786C25.3125 42.8404 27.2021 45 29.5312 45H40.7812C43.1104 45 45 42.8404 45 40.1786V27.3214C45 24.6596 43.1104 22.5 40.7812 22.5ZM15.4688 22.5H8.4375V16.0714C8.4375 12.5257 10.96 9.64286 14.0625 9.64286H14.7656C15.9346 9.64286 16.875 8.56808 16.875 7.23214V2.41071C16.875 1.07478 15.9346 0 14.7656 0H14.0625C6.29297 0 0 7.19196 0 16.0714V40.1786C0 42.8404 1.88965 45 4.21875 45H15.4688C17.7979 45 19.6875 42.8404 19.6875 40.1786V27.3214C19.6875 24.6596 17.7979 22.5 15.4688 22.5Z" fill="#F4AA3B"/>
</svg>
