<svg width="48" height="43" viewBox="0 0 48 43" fill="none" xmlns="http://www.w3.org/2000/svg">
<path d="M10.4094 0.791223C6.71469 3.1649 4.04809 6.02548 2.05617 9.79901C1.44575 10.925 0.963831 11.9292 0.963831 12.0205C0.963831 12.1118 5.52596 12.1727 11.0841 12.1727H21.2043V14.6072V17.0418H10.6021H0V18.7155V20.3892H9.47767H18.9553V22.8238V25.2583H11.8872H4.81915V27.6929V30.1274H13.0117H21.2043V32.5619V34.9965H13.333H5.46171L5.97575 35.7573C6.77894 36.9441 10.2487 39.4091 12.7226 40.5959C16.4173 42.3609 19.5015 43 23.7745 43C29.8145 42.9696 34.73 41.3263 39.2922 37.7962C43.1154 34.8443 43.4366 34.9965 33.4128 34.9965H24.7383V34.0835C24.7383 33.4749 25.156 32.5924 25.9271 31.649L27.1158 30.1274H36.3686H45.5892L46.1032 29.2449C47.1956 27.2059 47.9667 23.615 47.9988 20.3892C48.0309 17.4069 47.4205 13.5421 46.9064 13.2378C46.7779 13.1465 46.3924 13.4812 46.0711 13.9377C45.782 14.3942 43.4045 17.4678 40.8343 20.7544L36.1758 26.7799H33.0273C29.2683 26.7799 29.2041 27.3581 33.702 21.6065C35.469 19.3546 36.9469 17.4069 36.9469 17.2548C36.9469 17.133 34.216 17.0418 30.8426 17.0418H24.7383V14.6072V12.1727H35.6617C41.6696 12.1727 46.5852 12.1118 46.5852 12.0205C46.5852 11.9292 46.1032 10.925 45.4928 9.79901C43.4688 5.99504 40.8986 3.25619 37.1396 0.852087L35.8224 -1.32664e-06H23.7424H11.6624L10.4094 0.791223Z" fill="white"/>
</svg>
