<svg width="35" height="34" viewBox="0 0 35 34" fill="none" xmlns="http://www.w3.org/2000/svg">
<path d="M35 13.6844V14.8743C35 15.8601 34.3471 16.6592 33.5417 16.6592H33.0556L31.4688 30.2533C31.2636 32.0119 30.033 33.3182 28.5815 33.3182H6.41849C4.96702 33.3182 3.73643 32.0119 3.53111 30.2533L1.94444 16.6592H1.45833C0.652908 16.6592 0 15.8601 0 14.8743V13.6844C0 12.6986 0.652908 11.8995 1.45833 11.8995H5.55023L12.0386 0.980341C12.6702 -0.0825636 13.8863 -0.317649 14.7548 0.455433C15.6233 1.22852 15.8153 2.71689 15.1837 3.77987L10.3588 11.8995H24.6412L19.8163 3.7798C19.1847 2.71689 19.3768 1.22844 20.2453 0.455359C21.1136 -0.317724 22.3298 -0.0827124 22.9615 0.980266L29.4498 11.8995H33.5417C34.3471 11.8995 35 12.6986 35 13.6844ZM18.9583 26.7736V18.4441C18.9583 17.4583 18.3054 16.6592 17.5 16.6592C16.6946 16.6592 16.0417 17.4583 16.0417 18.4441V26.7736C16.0417 27.7594 16.6946 28.5585 17.5 28.5585C18.3054 28.5585 18.9583 27.7594 18.9583 26.7736ZM25.7639 26.7736V18.4441C25.7639 17.4583 25.111 16.6592 24.3056 16.6592C23.5001 16.6592 22.8472 17.4583 22.8472 18.4441V26.7736C22.8472 27.7594 23.5001 28.5585 24.3056 28.5585C25.111 28.5585 25.7639 27.7594 25.7639 26.7736ZM12.1528 26.7736V18.4441C12.1528 17.4583 11.4999 16.6592 10.6944 16.6592C9.88902 16.6592 9.23611 17.4583 9.23611 18.4441V26.7736C9.23611 27.7594 9.88902 28.5585 10.6944 28.5585C11.4999 28.5585 12.1528 27.7594 12.1528 26.7736Z" fill="#003902"/>
</svg>
