<svg width="50" height="44" viewBox="0 0 50 44" fill="none" xmlns="http://www.w3.org/2000/svg">
<path d="M50 11V39.2857C50 41.8884 47.9004 44 45.3125 44H4.6875C2.09961 44 0 41.8884 0 39.2857V11C0 8.39732 2.09961 6.28571 4.6875 6.28571H13.2812L14.4824 3.05446C15.166 1.21786 16.9141 0 18.8672 0H31.123C33.0762 0 34.8242 1.21786 35.5078 3.05446L36.7188 6.28571H45.3125C47.9004 6.28571 50 8.39732 50 11ZM36.7188 25.1429C36.7188 18.6411 31.4648 13.3571 25 13.3571C18.5352 13.3571 13.2812 18.6411 13.2812 25.1429C13.2812 31.6446 18.5352 36.9286 25 36.9286C31.4648 36.9286 36.7188 31.6446 36.7188 25.1429ZM33.5938 25.1429C33.5938 29.9062 29.7363 33.7857 25 33.7857C20.2637 33.7857 16.4062 29.9062 16.4062 25.1429C16.4062 20.3795 20.2637 16.5 25 16.5C29.7363 16.5 33.5938 20.3795 33.5938 25.1429Z" fill="#676767"/>
</svg>
