<svg width="17" height="10" viewBox="0 0 17 10" fill="none" xmlns="http://www.w3.org/2000/svg">
<path d="M15.9861 4.37067C14.4719 1.76379 11.4741 0 8.04163 0C4.60913 0 1.61055 1.76502 0.0971546 4.37091C0.0332799 4.4824 0 4.60557 0 4.73049C0 4.85542 0.0332799 4.97859 0.0971546 5.09008C1.61139 7.69695 4.60913 9.46074 8.04163 9.46074C11.4741 9.46074 14.4727 7.69572 15.9861 5.08983C16.05 4.97834 16.0833 4.85517 16.0833 4.73025C16.0833 4.60533 16.05 4.48215 15.9861 4.37067ZM8.04163 8.27815C7.24639 8.27815 6.469 8.07008 5.80778 7.68024C5.14656 7.29041 4.6312 6.73632 4.32687 6.08805C4.02255 5.43978 3.94292 4.72644 4.09807 4.03823C4.25321 3.35003 4.63616 2.71788 5.19848 2.22171C5.7608 1.72555 6.47724 1.38765 7.25721 1.25076C8.03717 1.11387 8.84562 1.18413 9.58033 1.45265C10.315 1.72117 10.943 2.1759 11.3848 2.75933C11.8266 3.34276 12.0625 4.02869 12.0625 4.73037C12.0627 5.19634 11.9589 5.65778 11.7569 6.08832C11.5549 6.51885 11.2588 6.91005 10.8854 7.23953C10.5119 7.56902 10.0686 7.83034 9.58064 8.00855C9.09269 8.18676 8.56972 8.27838 8.04163 8.27815ZM8.04163 2.36519C7.80237 2.36814 7.56466 2.39954 7.33491 2.45856C7.52429 2.68564 7.61517 2.96508 7.59106 3.2462C7.56696 3.52733 7.42947 3.79153 7.20354 3.99088C6.9776 4.19024 6.67818 4.31155 6.35957 4.33281C6.04096 4.35408 5.72426 4.2739 5.46691 4.1068C5.32036 4.58318 5.34681 5.08812 5.54254 5.55055C5.73827 6.01297 6.09342 6.4096 6.55801 6.6846C7.02259 6.95959 7.57321 7.09912 8.13237 7.08353C8.69153 7.06795 9.23107 6.89804 9.67505 6.59771C10.119 6.29739 10.4451 5.88178 10.6074 5.40937C10.7696 4.93697 10.7599 4.43156 10.5796 3.96429C10.3992 3.49702 10.0574 3.09141 9.60211 2.80455C9.14683 2.51769 8.60107 2.36402 8.04163 2.36519Z" fill="white"/>
</svg>
