<svg width="35" height="33" viewBox="0 0 35 33" fill="none" xmlns="http://www.w3.org/2000/svg">
<path d="M17.5 0C7.8357 0 0 7.3906 0 16.5C0 25.6147 7.8357 33 17.5 33C27.1643 33 35 25.6147 35 16.5C35 7.3906 27.1643 0 17.5 0ZM17.5 7.31855C19.1368 7.31855 20.4637 8.56962 20.4637 10.1129C20.4637 11.6562 19.1368 12.9073 17.5 12.9073C15.8632 12.9073 14.5363 11.6562 14.5363 10.1129C14.5363 8.56962 15.8632 7.31855 17.5 7.31855ZM21.4516 24.2177C21.4516 24.6587 21.0725 25.0161 20.6048 25.0161H14.3952C13.9275 25.0161 13.5484 24.6587 13.5484 24.2177V22.621C13.5484 22.1801 13.9275 21.8226 14.3952 21.8226H15.2419V17.5645H14.3952C13.9275 17.5645 13.5484 17.207 13.5484 16.7661V15.1694C13.5484 14.7284 13.9275 14.371 14.3952 14.371H18.9113C19.3789 14.371 19.7581 14.7284 19.7581 15.1694V21.8226H20.6048C21.0725 21.8226 21.4516 22.1801 21.4516 22.621V24.2177Z" fill="#4DDB69"/>
</svg>
