<svg width="52" height="45" viewBox="0 0 52 45" fill="none" xmlns="http://www.w3.org/2000/svg">
<path d="M4.875 0C2.18359 0 0 2.1596 0 4.82143V40.1786C0 42.8404 2.18359 45 4.875 45H47.125C49.8164 45 52 42.8404 52 40.1786V4.82143C52 2.1596 49.8164 0 47.125 0H4.875ZM4.875 3.21429H15.6406C15.9758 3.21429 16.25 3.48549 16.25 3.81696V5.82589C16.25 6.15737 15.9758 6.42857 15.6406 6.42857H3.85938C3.52422 6.42857 3.25 6.15737 3.25 5.82589V4.82143C3.25 3.9375 3.98125 3.21429 4.875 3.21429ZM48.1406 12.8571H3.85938C3.52422 12.8571 3.25 12.5859 3.25 12.2545V8.63839C3.25 8.30692 3.52422 8.03571 3.85938 8.03571H17.875L20.9422 3.48549C21.0539 3.31473 21.2469 3.21429 21.45 3.21429H47.125C48.0187 3.21429 48.75 3.9375 48.75 4.82143V12.2545C48.75 12.5859 48.4758 12.8571 48.1406 12.8571ZM26 39.375C19.2766 39.375 13.8125 33.971 13.8125 27.3214C13.8125 20.6719 19.2766 15.2679 26 15.2679C32.7234 15.2679 38.1875 20.6719 38.1875 27.3214C38.1875 33.971 32.7234 39.375 26 39.375ZM26 18.4821C21.0742 18.4821 17.0625 22.4498 17.0625 27.3214C17.0625 32.1931 21.0742 36.1607 26 36.1607C30.9258 36.1607 34.9375 32.1931 34.9375 27.3214C34.9375 22.4498 30.9258 18.4821 26 18.4821ZM21.125 28.9286C20.2313 28.9286 19.5 28.2054 19.5 27.3214C19.5 23.7757 22.4148 20.8929 26 20.8929C26.8937 20.8929 27.625 21.6161 27.625 22.5C27.625 23.3839 26.8937 24.1071 26 24.1071C24.2125 24.1071 22.75 25.5536 22.75 27.3214C22.75 28.2054 22.0187 28.9286 21.125 28.9286Z" fill="#E85CFF"/>
</svg>
