<svg width="45" height="45" viewBox="0 0 45 45" fill="none" xmlns="http://www.w3.org/2000/svg">
<path d="M45 22.5C45 34.9292 34.9255 45 22.5 45C10.0745 45 0 34.9292 0 22.5C0 10.0781 10.0745 0 22.5 0C34.9255 0 45 10.0781 45 22.5ZM23.1038 7.43952C18.1595 7.43952 15.006 9.52231 12.5298 13.224C12.209 13.7036 12.3163 14.3504 12.7761 14.699L15.9242 17.086C16.3964 17.4441 17.0692 17.3589 17.4361 16.8935C19.0569 14.8378 20.1682 13.6458 22.635 13.6458C24.4884 13.6458 26.781 14.8387 26.781 16.6359C26.781 17.9946 25.6593 18.6924 23.8293 19.7184C21.6951 20.9148 18.871 22.4039 18.871 26.129V26.4919C18.871 27.0932 19.3584 27.5806 19.9597 27.5806H25.0403C25.6416 27.5806 26.129 27.0932 26.129 26.4919V26.371C26.129 23.7888 33.6762 23.6812 33.6762 16.6935C33.6762 11.4313 28.2176 7.43952 23.1038 7.43952ZM22.5 29.9395C20.1987 29.9395 18.3266 31.8116 18.3266 34.1129C18.3266 36.4141 20.1987 38.2863 22.5 38.2863C24.8013 38.2863 26.6734 36.4141 26.6734 34.1129C26.6734 31.8116 24.8013 29.9395 22.5 29.9395Z" fill="#00B8FF"/>
</svg>
