<svg width="45" height="45" viewBox="0 0 45 45" fill="none" xmlns="http://www.w3.org/2000/svg">
<path d="M45 31.6406V2.10938C45 0.94043 43.9252 0 42.5893 0H9.64286C4.3192 0 0 3.7793 0 8.4375V36.5625C0 41.2207 4.3192 45 9.64286 45H42.5893C43.9252 45 45 44.0596 45 42.8906V41.4844C45 40.8252 44.6484 40.2275 44.106 39.8408C43.6842 38.4873 43.6842 34.6289 44.106 33.2754C44.6484 32.8975 45 32.2998 45 31.6406ZM12.8571 11.7773C12.8571 11.4873 13.1283 11.25 13.4598 11.25H34.7545C35.0859 11.25 35.3571 11.4873 35.3571 11.7773V13.5352C35.3571 13.8252 35.0859 14.0625 34.7545 14.0625H13.4598C13.1283 14.0625 12.8571 13.8252 12.8571 13.5352V11.7773ZM12.8571 17.4023C12.8571 17.1123 13.1283 16.875 13.4598 16.875H34.7545C35.0859 16.875 35.3571 17.1123 35.3571 17.4023V19.1602C35.3571 19.4502 35.0859 19.6875 34.7545 19.6875H13.4598C13.1283 19.6875 12.8571 19.4502 12.8571 19.1602V17.4023ZM38.3103 39.375H9.64286C7.86495 39.375 6.42857 38.1182 6.42857 36.5625C6.42857 35.0156 7.875 33.75 9.64286 33.75H38.3103C38.1194 35.2529 38.1194 37.8721 38.3103 39.375Z" fill="#B5AEFF"/>
</svg>
