<svg width="63" height="25" viewBox="0 0 63 25" fill="none" xmlns="http://www.w3.org/2000/svg">
<path d="M62.0688 21.064L57.4706 16.4908C57.2631 16.2844 56.9818 16.1697 56.6866 16.1697H55.9348C57.2077 14.5506 57.9641 12.514 57.9641 10.2985C57.9641 5.0282 53.6704 0.757812 48.3712 0.757812C43.0721 0.757812 38.7783 5.0282 38.7783 10.2985C38.7783 15.5689 43.0721 19.8393 48.3712 19.8393C50.5988 19.8393 52.6465 19.087 54.2745 17.821V18.5687C54.2745 18.8622 54.3898 19.142 54.5974 19.3485L59.1955 23.9216C59.629 24.3527 60.33 24.3527 60.759 23.9216L62.0641 22.6235C62.4977 22.1923 62.4977 21.4951 62.0688 21.064ZM48.3712 16.1697C45.1106 16.1697 42.4679 13.546 42.4679 10.2985C42.4679 7.05561 45.1059 4.42732 48.3712 4.42732C51.6319 4.42732 54.2745 7.05102 54.2745 10.2985C54.2745 13.5415 51.6365 16.1697 48.3712 16.1697Z" fill="white"/>
<path d="M8.5 16.5C11.0606 16.5 13.1364 14.4853 13.1364 12V4.5C13.1364 2.01469 11.0606 0 8.5 0C5.93937 0 3.86364 2.01469 3.86364 4.5V12C3.86364 14.4853 5.93937 16.5 8.5 16.5ZM16.2273 9H15.4545C15.0276 9 14.6818 9.33562 14.6818 9.75V12C14.6818 15.5063 11.5672 18.3197 7.8823 17.9709C4.67065 17.6667 2.31818 14.8645 2.31818 11.7328V9.75C2.31818 9.33562 1.97239 9 1.54545 9H0.772727C0.345795 9 0 9.33562 0 9.75V11.6325C0 15.8344 3.08946 19.5802 7.34091 20.1492V21.75H4.63636C4.20943 21.75 3.86364 22.0856 3.86364 22.5V23.25C3.86364 23.6644 4.20943 24 4.63636 24H12.3636C12.7906 24 13.1364 23.6644 13.1364 23.25V22.5C13.1364 22.0856 12.7906 21.75 12.3636 21.75H9.65909V20.167C13.7985 19.6158 17 16.1672 17 12V9.75C17 9.33562 16.6542 9 16.2273 9Z" fill="white"/>
</svg>
