<svg width="103" height="42" viewBox="0 0 103 42" fill="none" xmlns="http://www.w3.org/2000/svg">
<rect width="103" height="42" rx="10" fill="#D9D9D9"/>
<path d="M27.6954 13.468V28H25.7844V17.164L20.9544 28H19.6104L14.7594 17.143V28H12.8484V13.468H14.9064L20.2824 25.48L25.6584 13.468H27.6954ZM35.9553 28.189C34.8773 28.189 33.8973 27.944 33.0153 27.454C32.1473 26.964 31.4613 26.271 30.9573 25.375C30.4673 24.465 30.2223 23.415 30.2223 22.225C30.2223 21.049 30.4743 20.013 30.9783 19.117C31.4963 18.207 32.1963 17.514 33.0783 17.038C33.9603 16.548 34.9473 16.303 36.0393 16.303C37.1313 16.303 38.1183 16.548 39.0003 17.038C39.8823 17.514 40.5753 18.2 41.0793 19.096C41.5973 19.992 41.8563 21.035 41.8563 22.225C41.8563 23.415 41.5903 24.465 41.0583 25.375C40.5403 26.271 39.8333 26.964 38.9373 27.454C38.0413 27.944 37.0473 28.189 35.9553 28.189ZM35.9553 26.509C36.6413 26.509 37.2853 26.348 37.8873 26.026C38.4893 25.704 38.9723 25.221 39.3363 24.577C39.7143 23.933 39.9033 23.149 39.9033 22.225C39.9033 21.301 39.7213 20.517 39.3573 19.873C38.9933 19.229 38.5173 18.753 37.9293 18.445C37.3413 18.123 36.7043 17.962 36.0183 17.962C35.3183 17.962 34.6743 18.123 34.0863 18.445C33.5123 18.753 33.0503 19.229 32.7003 19.873C32.3503 20.517 32.1753 21.301 32.1753 22.225C32.1753 23.163 32.3433 23.954 32.6793 24.598C33.0293 25.242 33.4913 25.725 34.0653 26.047C34.6393 26.355 35.2693 26.509 35.9553 26.509ZM46.28 18.361C46.616 17.703 47.092 17.192 47.708 16.828C48.338 16.464 49.101 16.282 49.997 16.282V18.256H49.493C47.351 18.256 46.28 19.418 46.28 21.742V28H44.369V16.492H46.28V18.361ZM62.7029 21.805C62.7029 22.169 62.6819 22.554 62.6399 22.96H53.4419C53.5119 24.094 53.8969 24.983 54.5969 25.627C55.3109 26.257 56.1719 26.572 57.1799 26.572C58.0059 26.572 58.6919 26.383 59.2379 26.005C59.7979 25.613 60.1899 25.095 60.4139 24.451H62.4719C62.1639 25.557 61.5479 26.46 60.6239 27.16C59.6999 27.846 58.5519 28.189 57.1799 28.189C56.0879 28.189 55.1079 27.944 54.2399 27.454C53.3859 26.964 52.7139 26.271 52.2239 25.375C51.7339 24.465 51.4889 23.415 51.4889 22.225C51.4889 21.035 51.7269 19.992 52.2029 19.096C52.6789 18.2 53.3439 17.514 54.1979 17.038C55.0659 16.548 56.0599 16.303 57.1799 16.303C58.2719 16.303 59.2379 16.541 60.0779 17.017C60.9179 17.493 61.5619 18.151 62.0099 18.991C62.4719 19.817 62.7029 20.755 62.7029 21.805ZM60.7289 21.406C60.7289 20.678 60.5679 20.055 60.2459 19.537C59.9239 19.005 59.4829 18.606 58.9229 18.34C58.3769 18.06 57.7679 17.92 57.0959 17.92C56.1299 17.92 55.3039 18.228 54.6179 18.844C53.9459 19.46 53.5609 20.314 53.4629 21.406H60.7289Z" fill="#8B6868"/>
</svg>
