<svg width="12" height="12" viewBox="0 0 12 12" fill="none" xmlns="http://www.w3.org/2000/svg">
<path fill-rule="evenodd" clip-rule="evenodd" d="M10.8609 3.93971C10.2901 2.49028 9.13477 1.33502 7.68536 0.764237C7.51736 0.955199 7.38116 1.17487 7.28515 1.41495C8.64216 1.90633 9.71881 2.98295 10.2102 4.3399C10.4503 4.24389 10.67 4.10773 10.8609 3.93971ZM5.79584 1.12795C5.73922 1.126 5.68229 1.12502 5.62514 1.12502C2.93268 1.12502 0.750018 3.30768 0.750018 6.00014C0.750018 8.69263 2.93268 10.8753 5.62514 10.8753C8.31763 10.8753 10.5003 8.69263 10.5003 6.00014C10.5003 5.94291 10.4993 5.88599 10.4973 5.82921C10.7543 5.74873 10.9994 5.64133 11.2293 5.51038C11.2432 5.67178 11.2503 5.83513 11.2503 6.00014C11.2503 9.10679 8.73179 11.6253 5.62514 11.6253C2.51846 11.6253 0 9.10679 0 6.00014C0 2.89346 2.51846 0.375 5.62514 0.375C5.79007 0.375 5.95335 0.382095 6.11468 0.396008C5.98372 0.625889 5.87632 0.870972 5.79584 1.12795Z" fill="#222222"/>
<path d="M9.37506 4.50011C10.6177 4.50011 11.6251 3.49273 11.6251 2.25006C11.6251 1.00738 10.6177 0 9.37506 0C8.13238 0 7.125 1.00738 7.125 2.25006C7.125 3.49273 8.13238 4.50011 9.37506 4.50011Z" fill="#222222"/>
</svg>
