<svg width="109" height="25" viewBox="0 0 109 25" fill="none" xmlns="http://www.w3.org/2000/svg">
<path d="M46.5506 8.293V5.59H51.2596V18H48.2336V8.293H46.5506ZM53.2482 11.625C53.2482 9.67567 53.6222 8.14 54.3702 7.018C55.1295 5.896 56.3478 5.335 58.0252 5.335C59.7025 5.335 60.9152 5.896 61.6632 7.018C62.4225 8.14 62.8022 9.67567 62.8022 11.625C62.8022 13.597 62.4225 15.144 61.6632 16.266C60.9152 17.388 59.7025 17.949 58.0252 17.949C56.3478 17.949 55.1295 17.388 54.3702 16.266C53.6222 15.144 53.2482 13.597 53.2482 11.625ZM59.9462 11.625C59.9462 10.4803 59.8215 9.602 59.5722 8.99C59.3228 8.36667 58.8072 8.055 58.0252 8.055C57.2432 8.055 56.7275 8.36667 56.4782 8.99C56.2288 9.602 56.1042 10.4803 56.1042 11.625C56.1042 12.3957 56.1495 13.036 56.2402 13.546C56.3308 14.0447 56.5122 14.4527 56.7842 14.77C57.0675 15.076 57.4812 15.229 58.0252 15.229C58.5692 15.229 58.9772 15.076 59.2492 14.77C59.5325 14.4527 59.7195 14.0447 59.8102 13.546C59.9008 13.036 59.9462 12.3957 59.9462 11.625ZM67.755 15.314L65.868 20.193H64.015L65.001 15.314H67.755ZM69.1169 15.671C69.5022 15.365 69.6779 15.2233 69.6439 15.246C70.7545 14.328 71.6272 13.5743 72.2619 12.985C72.9079 12.3957 73.4519 11.778 73.8939 11.132C74.3359 10.486 74.5569 9.857 74.5569 9.245C74.5569 8.78033 74.4492 8.41767 74.2339 8.157C74.0185 7.89633 73.6955 7.766 73.2649 7.766C72.8342 7.766 72.4942 7.93033 72.2449 8.259C72.0069 8.57633 71.8879 9.02967 71.8879 9.619H69.0829C69.1055 8.65567 69.3095 7.851 69.6949 7.205C70.0915 6.559 70.6072 6.083 71.2419 5.777C71.8879 5.471 72.6019 5.318 73.3839 5.318C74.7325 5.318 75.7469 5.66367 76.4269 6.355C77.1182 7.04633 77.4639 7.94733 77.4639 9.058C77.4639 10.2707 77.0502 11.3983 76.2229 12.441C75.3955 13.4723 74.3415 14.481 73.0609 15.467H77.6509V17.83H69.1169V15.671ZM82.0588 14.362C82.2288 15.2573 82.7501 15.705 83.6228 15.705C84.2234 15.705 84.6484 15.4387 84.8978 14.906C85.1471 14.3733 85.2718 13.5063 85.2718 12.305C85.0224 12.6563 84.6824 12.9283 84.2518 13.121C83.8211 13.3137 83.3394 13.41 82.8068 13.41C82.0814 13.41 81.4354 13.2627 80.8688 12.968C80.3021 12.662 79.8544 12.2143 79.5258 11.625C79.2084 11.0243 79.0498 10.299 79.0498 9.449C79.0498 8.61033 79.2198 7.87933 79.5598 7.256C79.9111 6.63267 80.4041 6.151 81.0388 5.811C81.6848 5.471 82.4441 5.301 83.3168 5.301C84.9941 5.301 86.1671 5.82233 86.8358 6.865C87.5044 7.90767 87.8388 9.44333 87.8388 11.472C87.8388 12.9453 87.7028 14.1637 87.4308 15.127C87.1701 16.079 86.7224 16.8043 86.0878 17.303C85.4644 17.8017 84.6088 18.051 83.5208 18.051C82.6594 18.051 81.9228 17.881 81.3108 17.541C80.7101 17.201 80.2454 16.7533 79.9168 16.198C79.5994 15.6427 79.4181 15.0307 79.3728 14.362H82.0588ZM83.4698 11.115C83.9458 11.115 84.3254 10.9733 84.6088 10.69C84.8921 10.3953 85.0338 9.99867 85.0338 9.5C85.0338 8.956 84.8864 8.53667 84.5918 8.242C84.2971 7.94733 83.9004 7.8 83.4018 7.8C82.9031 7.8 82.5064 7.953 82.2118 8.259C81.9284 8.55367 81.7868 8.96167 81.7868 9.483C81.7868 9.97033 81.9284 10.367 82.2118 10.673C82.5064 10.9677 82.9258 11.115 83.4698 11.115ZM89.0838 8.293V5.59H93.7928V18H90.7668V8.293H89.0838Z" fill="#106B2A"/>
<path d="M24.8489 12.6997C22.4952 8.1072 17.8355 5 12.5 5C7.16447 5 2.50345 8.10938 0.151018 12.7001C0.0517306 12.8965 0 13.1135 0 13.3336C0 13.5536 0.0517306 13.7706 0.151018 13.967C2.50475 18.5595 7.16447 21.6667 12.5 21.6667C17.8355 21.6667 22.4965 18.5573 24.8489 13.9666C24.9482 13.7702 25 13.5532 25 13.3331C25 13.113 24.9482 12.8961 24.8489 12.6997ZM12.5 19.5833C11.2638 19.5833 10.0555 19.2168 9.02766 18.53C7.99985 17.8433 7.19878 16.8671 6.72573 15.7251C6.25268 14.5831 6.12891 13.3264 6.37007 12.114C6.61123 10.9016 7.20648 9.78799 8.08056 8.91392C8.95464 8.03984 10.0683 7.44458 11.2807 7.20343C12.493 6.96227 13.7497 7.08604 14.8917 7.55909C16.0338 8.03213 17.0099 8.83321 17.6967 9.86102C18.3834 10.8888 18.75 12.0972 18.75 13.3333C18.7504 14.1542 18.589 14.9671 18.275 15.7256C17.9611 16.484 17.5007 17.1732 16.9203 17.7536C16.3398 18.3341 15.6507 18.7944 14.8922 19.1084C14.1338 19.4223 13.3208 19.5837 12.5 19.5833ZM12.5 9.16667C12.1281 9.17186 11.7586 9.22719 11.4015 9.33116C11.6958 9.73119 11.8371 10.2235 11.7996 10.7187C11.7621 11.214 11.5484 11.6794 11.1972 12.0306C10.846 12.3818 10.3806 12.5955 9.88537 12.633C9.39012 12.6704 8.89784 12.5292 8.49781 12.2348C8.27001 13.074 8.31113 13.9636 8.61538 14.7782C8.91962 15.5928 9.47167 16.2916 10.1938 16.776C10.916 17.2605 11.7719 17.5063 12.641 17.4788C13.5102 17.4514 14.3489 17.152 15.039 16.623C15.7291 16.0939 16.236 15.3617 16.4882 14.5295C16.7404 13.6973 16.7253 12.8069 16.445 11.9838C16.1647 11.1606 15.6333 10.446 14.9256 9.94067C14.2179 9.43532 13.3696 9.16462 12.5 9.16667Z" fill="#3A3434"/>
</svg>
